%TF.GenerationSoftware,KiCad,Pcbnew,(5.0.0-rc2-dev-581-g09a6bada0)*%
%TF.CreationDate,2018-07-03T10:36:25-06:00*%
%TF.ProjectId,Sensor_FMC_LPC_Breakout_V02,53656E736F725F464D435F4C50435F42,01*%
%TF.SameCoordinates,Original*%
%TF.FileFunction,Soldermask,Bot*%
%TF.FilePolarity,Negative*%
%FSLAX46Y46*%
G04 Gerber Fmt 4.6, Leading zero omitted, Abs format (unit mm)*
G04 Created by KiCad (PCBNEW (5.0.0-rc2-dev-581-g09a6bada0)) date 07/03/18 10:36:25*
%MOMM*%
%LPD*%
G01*
G04 APERTURE LIST*
%ADD10R,5.101600X3.101600*%
%ADD11C,2.701600*%
%ADD12C,6.197600*%
%ADD13C,1.601600*%
%ADD14R,1.371600X1.371600*%
%ADD15R,2.101600X2.901600*%
%ADD16C,4.101600*%
%ADD17C,0.741600*%
%ADD18C,1.371600*%
%ADD19R,3.151600X1.621600*%
%ADD20R,1.601600X1.901600*%
%ADD21R,0.701600X0.901600*%
%ADD22R,0.901600X0.701600*%
%ADD23R,2.282000X2.311600*%
%ADD24R,1.550000X0.550000*%
%ADD25R,1.701600X0.801600*%
%ADD26C,0.801600*%
%ADD27C,4.501600*%
%ADD28C,1.498600*%
%ADD29C,1.625600*%
%ADD30C,0.787400*%
%ADD31C,1.117600*%
%ADD32C,1.879600*%
G04 APERTURE END LIST*
D10*
X86000000Y-123450000D03*
X86000000Y-95450000D03*
D11*
X91850000Y-117450000D03*
X91850000Y-101450000D03*
D12*
X97600000Y-95500000D03*
D13*
X85000000Y-88450000D03*
X64500000Y-128450000D03*
X65000000Y-88450000D03*
D12*
X97650000Y-123400000D03*
D14*
X71324000Y-74800000D03*
X68276000Y-74800000D03*
X68524000Y-72000000D03*
X65476000Y-72000000D03*
D15*
X76900000Y-77500000D03*
X81100000Y-77500000D03*
D13*
X46446000Y-101274000D03*
X62806000Y-117634000D03*
D16*
X96250000Y-61910000D03*
D17*
X41560000Y-56740000D03*
D18*
X37870000Y-59910000D03*
D17*
X40290000Y-61820000D03*
X41560000Y-61820000D03*
X40290000Y-63080000D03*
X41560000Y-63080000D03*
X47920000Y-61820000D03*
X47920000Y-63080000D03*
X49180000Y-63080000D03*
X49180000Y-61820000D03*
X51720000Y-61820000D03*
X51720000Y-63080000D03*
X50450000Y-63080000D03*
X50450000Y-61820000D03*
X45380000Y-61820000D03*
X45380000Y-63080000D03*
X46650000Y-63080000D03*
X46650000Y-61820000D03*
X44110000Y-61820000D03*
X44110000Y-63080000D03*
X42830000Y-63080000D03*
X42830000Y-61820000D03*
X63150000Y-61820000D03*
X63150000Y-63080000D03*
X64420000Y-63080000D03*
X64420000Y-61820000D03*
X65700000Y-61820000D03*
X65680000Y-63080000D03*
X69510000Y-61820000D03*
X69510000Y-63080000D03*
X70770000Y-63080000D03*
X70770000Y-61820000D03*
X68230000Y-61820000D03*
X68230000Y-63080000D03*
X66970000Y-63080000D03*
X66970000Y-61820000D03*
X58070000Y-61820000D03*
X58070000Y-63080000D03*
X59350000Y-63080000D03*
X59350000Y-61820000D03*
X61890000Y-61820000D03*
X61890000Y-63080000D03*
X60610000Y-63080000D03*
X60610000Y-61820000D03*
X55530000Y-61820000D03*
X55530000Y-63080000D03*
X56800000Y-63080000D03*
X56800000Y-61820000D03*
X54270000Y-61820000D03*
X54270000Y-63080000D03*
X53000000Y-63080000D03*
X53000000Y-61820000D03*
X75850000Y-61820000D03*
X75850000Y-63080000D03*
X77120000Y-63080000D03*
X77120000Y-61820000D03*
X79670000Y-61820000D03*
X79670000Y-63080000D03*
X78400000Y-63080000D03*
X78400000Y-61820000D03*
X74590000Y-63080000D03*
X74590000Y-61820000D03*
X73320000Y-61820000D03*
X73320000Y-63080000D03*
X72050000Y-63080000D03*
X72050000Y-61820000D03*
X83470000Y-61820000D03*
X83470000Y-63080000D03*
X84740000Y-63080000D03*
X84740000Y-61820000D03*
X86010000Y-61820000D03*
X86010000Y-63080000D03*
X89830000Y-61820000D03*
X89830000Y-63080000D03*
X88560000Y-61820000D03*
X88560000Y-63080000D03*
X87290000Y-63080000D03*
X87290000Y-61820000D03*
X82200000Y-61820000D03*
X82200000Y-63080000D03*
X80940000Y-63080000D03*
X80940000Y-61820000D03*
X80940000Y-56740000D03*
X80940000Y-58000000D03*
X82200000Y-58000000D03*
X82200000Y-56740000D03*
X87290000Y-56740000D03*
X87290000Y-58000000D03*
X88560000Y-58000000D03*
X88560000Y-56740000D03*
X89830000Y-58000000D03*
X89830000Y-56740000D03*
X86010000Y-58000000D03*
X86010000Y-56740000D03*
X84740000Y-56740000D03*
X84740000Y-58000000D03*
X83470000Y-58000000D03*
X83470000Y-56740000D03*
X72050000Y-56740000D03*
X72050000Y-58000000D03*
X73320000Y-58000000D03*
X73320000Y-56740000D03*
X74590000Y-56740000D03*
X74590000Y-58000000D03*
X78400000Y-56740000D03*
X78400000Y-58000000D03*
X79670000Y-58000000D03*
X79670000Y-56740000D03*
X77120000Y-56740000D03*
X77120000Y-58000000D03*
X75850000Y-58000000D03*
X75850000Y-56740000D03*
X53000000Y-56740000D03*
X53000000Y-58000000D03*
X54270000Y-58000000D03*
X54270000Y-56740000D03*
X56800000Y-56740000D03*
X56800000Y-58000000D03*
X55530000Y-58000000D03*
X55530000Y-56740000D03*
X60610000Y-56740000D03*
X60610000Y-58000000D03*
X61890000Y-58000000D03*
X61890000Y-56740000D03*
X59350000Y-56740000D03*
X59350000Y-58000000D03*
X58070000Y-58000000D03*
X58070000Y-56740000D03*
X66970000Y-56740000D03*
X66970000Y-58000000D03*
X68230000Y-58000000D03*
X68230000Y-56740000D03*
X70770000Y-56740000D03*
X70770000Y-58000000D03*
X69510000Y-58000000D03*
X69510000Y-56740000D03*
X65680000Y-58000000D03*
X65700000Y-56740000D03*
X64420000Y-56740000D03*
X64420000Y-58000000D03*
X63150000Y-58000000D03*
X63150000Y-56740000D03*
X42830000Y-56740000D03*
X42830000Y-58000000D03*
X44110000Y-58000000D03*
X44110000Y-56740000D03*
X46650000Y-56740000D03*
X46650000Y-58000000D03*
X45380000Y-58000000D03*
X45380000Y-56740000D03*
X50450000Y-56740000D03*
X50450000Y-58000000D03*
X51720000Y-58000000D03*
X51720000Y-56740000D03*
X49180000Y-56740000D03*
X49180000Y-58000000D03*
X47920000Y-58000000D03*
X47920000Y-56740000D03*
X41560000Y-58000000D03*
X40290000Y-58000000D03*
X40290000Y-56740000D03*
D18*
X92250000Y-62960000D03*
D16*
X33870000Y-61910000D03*
D19*
X82390000Y-84020000D03*
X82390000Y-86310000D03*
D20*
X51950000Y-109150000D03*
X55550000Y-109150000D03*
D19*
X78540000Y-85540000D03*
X78540000Y-87830000D03*
D21*
X55300000Y-102560000D03*
X56700000Y-102560000D03*
D22*
X74860000Y-88090000D03*
X74860000Y-86690000D03*
D20*
X61370000Y-109160000D03*
X57770000Y-109160000D03*
D22*
X64590000Y-79960000D03*
X64590000Y-81360000D03*
D20*
X37560000Y-96820000D03*
X41160000Y-96820000D03*
X52370000Y-127100000D03*
X55970000Y-127100000D03*
D21*
X63180000Y-75250000D03*
X64580000Y-75250000D03*
X72300000Y-73000000D03*
X70900000Y-73000000D03*
X42840000Y-90370000D03*
X44240000Y-90370000D03*
X61310000Y-119580000D03*
X62710000Y-119580000D03*
D19*
X77500000Y-72895000D03*
X77500000Y-70605000D03*
D20*
X47320000Y-96860000D03*
X43720000Y-96860000D03*
X61670000Y-127110000D03*
X58070000Y-127110000D03*
D22*
X55710000Y-121670000D03*
X55710000Y-123070000D03*
D23*
X71067200Y-84560000D03*
X67352800Y-84560000D03*
D24*
X52300000Y-106395000D03*
X52300000Y-105745000D03*
X52300000Y-105095000D03*
X52300000Y-104445000D03*
X56700000Y-104445000D03*
X56700000Y-105095000D03*
X56700000Y-105745000D03*
X56700000Y-106395000D03*
X39840000Y-94325000D03*
X39840000Y-93675000D03*
X39840000Y-93025000D03*
X39840000Y-92375000D03*
X44240000Y-92375000D03*
X44240000Y-93025000D03*
X44240000Y-93675000D03*
X44240000Y-94325000D03*
X58320000Y-123115000D03*
X58320000Y-122465000D03*
X58320000Y-121815000D03*
X58320000Y-121165000D03*
X62720000Y-121165000D03*
X62720000Y-121815000D03*
X62720000Y-122465000D03*
X62720000Y-123115000D03*
D21*
X73300000Y-86740000D03*
X71900000Y-86740000D03*
D22*
X53410000Y-123160000D03*
X53410000Y-121760000D03*
D21*
X56940000Y-119630000D03*
X58340000Y-119630000D03*
D22*
X64590000Y-84400000D03*
X64590000Y-85800000D03*
X62800000Y-71900000D03*
X62800000Y-73300000D03*
X64540000Y-76940000D03*
X64540000Y-78340000D03*
D25*
X71935000Y-80085000D03*
X71935000Y-78815000D03*
X71935000Y-81355000D03*
X71935000Y-77545000D03*
X67005000Y-81355000D03*
X67005000Y-80085000D03*
X67005000Y-78815000D03*
X67005000Y-77545000D03*
D26*
X36396726Y-123923274D03*
X35230000Y-123440000D03*
X34063274Y-123923274D03*
X33580000Y-125090000D03*
X34063274Y-126256726D03*
X35230000Y-126740000D03*
X36396726Y-126256726D03*
X36880000Y-125090000D03*
D27*
X35230000Y-125090000D03*
D28*
X59330000Y-111960000D03*
D29*
X51100000Y-112820000D03*
D28*
X38660000Y-64040000D03*
D29*
X39750000Y-90349998D03*
X37500000Y-109000000D03*
X71000000Y-68750000D03*
D28*
X66900000Y-121350000D03*
D29*
X41250000Y-103900000D03*
X60200000Y-105200000D03*
X50343241Y-115763212D03*
X56910000Y-115750000D03*
X35450000Y-102750000D03*
X55317037Y-111549990D03*
X94488000Y-81788000D03*
X94488000Y-85852000D03*
D30*
X43942000Y-82550000D03*
D31*
X42840000Y-76490000D03*
X41656000Y-82549998D03*
D30*
X42925988Y-83566000D03*
D31*
X42926000Y-78994000D03*
X87122000Y-72898000D03*
D30*
X64300000Y-59400000D03*
X56350000Y-67250000D03*
D31*
X42840000Y-73950000D03*
X87122000Y-75437986D03*
X87122000Y-77978000D03*
X87122000Y-70358000D03*
X87230000Y-80550000D03*
X89770000Y-75470000D03*
X89770000Y-72930000D03*
X89916000Y-80518000D03*
X89770000Y-70390000D03*
X89770000Y-78010000D03*
D30*
X49074112Y-60324112D03*
X48265888Y-59515888D03*
X71505888Y-59455888D03*
X67884112Y-60184112D03*
X67075888Y-59375888D03*
X72314112Y-60264112D03*
X71445888Y-55154112D03*
X72254112Y-54345888D03*
X60664112Y-60024112D03*
X59855888Y-59215888D03*
X56284112Y-60094112D03*
X55475888Y-59285888D03*
X52982112Y-60094112D03*
X52173888Y-59285888D03*
D32*
X97536000Y-83820000D03*
M02*
