%TF.GenerationSoftware,KiCad,Pcbnew,(5.0.0-rc2-dev-581-g09a6bada0)*%
%TF.CreationDate,2018-07-03T10:36:25-06:00*%
%TF.ProjectId,Sensor_FMC_LPC_Breakout_V02,53656E736F725F464D435F4C50435F42,01*%
%TF.SameCoordinates,Original*%
%TF.FileFunction,Legend,Bot*%
%TF.FilePolarity,Positive*%
%FSLAX46Y46*%
G04 Gerber Fmt 4.6, Leading zero omitted, Abs format (unit mm)*
G04 Created by KiCad (PCBNEW (5.0.0-rc2-dev-581-g09a6bada0)) date 07/03/18 10:36:25*
%MOMM*%
%LPD*%
G01*
G04 APERTURE LIST*
%ADD10C,0.300000*%
%ADD11C,0.200000*%
%ADD12C,0.100000*%
%ADD13C,0.120000*%
%ADD14C,0.152400*%
%ADD15C,0.150000*%
G04 APERTURE END LIST*
D10*
X95035714Y-92690000D02*
X95178571Y-92618571D01*
X95392857Y-92618571D01*
X95607142Y-92690000D01*
X95750000Y-92832857D01*
X95821428Y-92975714D01*
X95892857Y-93261428D01*
X95892857Y-93475714D01*
X95821428Y-93761428D01*
X95750000Y-93904285D01*
X95607142Y-94047142D01*
X95392857Y-94118571D01*
X95250000Y-94118571D01*
X95035714Y-94047142D01*
X94964285Y-93975714D01*
X94964285Y-93475714D01*
X95250000Y-93475714D01*
X94321428Y-94118571D02*
X94321428Y-92618571D01*
X93464285Y-94118571D01*
X93464285Y-92618571D01*
X92750000Y-94118571D02*
X92750000Y-92618571D01*
X92392857Y-92618571D01*
X92178571Y-92690000D01*
X92035714Y-92832857D01*
X91964285Y-92975714D01*
X91892857Y-93261428D01*
X91892857Y-93475714D01*
X91964285Y-93761428D01*
X92035714Y-93904285D01*
X92178571Y-94047142D01*
X92392857Y-94118571D01*
X92750000Y-94118571D01*
X91321428Y-93690000D02*
X90607142Y-93690000D01*
X91464285Y-94118571D02*
X90964285Y-92618571D01*
X90464285Y-94118571D01*
X96682857Y-124758571D02*
X96182857Y-126258571D01*
X95682857Y-124758571D01*
X94325714Y-126115714D02*
X94397142Y-126187142D01*
X94611428Y-126258571D01*
X94754285Y-126258571D01*
X94968571Y-126187142D01*
X95111428Y-126044285D01*
X95182857Y-125901428D01*
X95254285Y-125615714D01*
X95254285Y-125401428D01*
X95182857Y-125115714D01*
X95111428Y-124972857D01*
X94968571Y-124830000D01*
X94754285Y-124758571D01*
X94611428Y-124758571D01*
X94397142Y-124830000D01*
X94325714Y-124901428D01*
X92825714Y-126115714D02*
X92897142Y-126187142D01*
X93111428Y-126258571D01*
X93254285Y-126258571D01*
X93468571Y-126187142D01*
X93611428Y-126044285D01*
X93682857Y-125901428D01*
X93754285Y-125615714D01*
X93754285Y-125401428D01*
X93682857Y-125115714D01*
X93611428Y-124972857D01*
X93468571Y-124830000D01*
X93254285Y-124758571D01*
X93111428Y-124758571D01*
X92897142Y-124830000D01*
X92825714Y-124901428D01*
X92254285Y-125830000D02*
X91540000Y-125830000D01*
X92397142Y-126258571D02*
X91897142Y-124758571D01*
X91397142Y-126258571D01*
D11*
X101000000Y-103450000D02*
X101000000Y-89450000D01*
X101000000Y-115450000D02*
X101000000Y-129450000D01*
X96000000Y-119450000D02*
X96000000Y-115450000D01*
X96000000Y-99450000D02*
X96000000Y-103450000D01*
X95000000Y-115450000D02*
X101000000Y-115450000D01*
X95000000Y-103450000D02*
X101000000Y-103450000D01*
X66000000Y-89450000D02*
X101000000Y-89450000D01*
X66000000Y-129450000D02*
X101000000Y-129450000D01*
X76000000Y-119450000D02*
X82000000Y-119450000D01*
X90000000Y-99450000D02*
X96000000Y-99450000D01*
X90000000Y-93450000D02*
X90000000Y-99450000D01*
X82000000Y-93450000D02*
X90000000Y-93450000D01*
X82000000Y-99450000D02*
X82000000Y-93450000D01*
X76000000Y-99450000D02*
X82000000Y-99450000D01*
X76000000Y-119450000D02*
X76000000Y-99450000D01*
X82000000Y-125450000D02*
X82000000Y-119450000D01*
X90000000Y-125450000D02*
X82000000Y-125450000D01*
X90000000Y-119450000D02*
X90000000Y-125450000D01*
X96000000Y-119450000D02*
X90000000Y-119450000D01*
X89500000Y-103450000D02*
X95000000Y-103450000D01*
X77000000Y-103450000D02*
X82500000Y-103450000D01*
X89500000Y-98450000D02*
X89500000Y-103450000D01*
X82500000Y-98450000D02*
X89500000Y-98450000D01*
X82500000Y-103450000D02*
X82500000Y-98450000D01*
X78000000Y-115450000D02*
X82500000Y-115450000D01*
X89500000Y-115450000D02*
X95000000Y-115450000D01*
X89500000Y-120450000D02*
X89500000Y-115450000D01*
X82500000Y-120450000D02*
X89500000Y-120450000D01*
X82500000Y-115450000D02*
X82500000Y-120450000D01*
X77000000Y-115450000D02*
X77000000Y-103450000D01*
X78000000Y-115450000D02*
X77000000Y-115450000D01*
X66000000Y-89450000D02*
X66000000Y-129450000D01*
X76000000Y-99450000D02*
X66000000Y-99450000D01*
X76000000Y-119450000D02*
X66000000Y-119450000D01*
D12*
X71325000Y-75500000D02*
X71350000Y-75475000D01*
X71350000Y-75475000D02*
X71350000Y-75350000D01*
X71050000Y-75750000D02*
X71325000Y-75500000D01*
X71350000Y-75350000D02*
X72575000Y-75350000D01*
X71000000Y-73825000D02*
X71350000Y-73825000D01*
X71350000Y-73825000D02*
X71350000Y-74150000D01*
X68250000Y-75525000D02*
X68250000Y-75775000D01*
X68250000Y-75775000D02*
X68500000Y-75775000D01*
X68550000Y-73825000D02*
X68250000Y-73825000D01*
X68250000Y-73825000D02*
X68250000Y-74050000D01*
D11*
X72050000Y-76100000D02*
X71400000Y-76100000D01*
X71400000Y-76100000D02*
X71100000Y-76350000D01*
D12*
X68525000Y-72700000D02*
X68550000Y-72675000D01*
X68550000Y-72675000D02*
X68550000Y-72550000D01*
X68250000Y-72950000D02*
X68525000Y-72700000D01*
X68550000Y-72550000D02*
X69775000Y-72550000D01*
X68200000Y-71025000D02*
X68550000Y-71025000D01*
X68550000Y-71025000D02*
X68550000Y-71350000D01*
X65450000Y-72725000D02*
X65450000Y-72975000D01*
X65450000Y-72975000D02*
X65700000Y-72975000D01*
X65750000Y-71025000D02*
X65450000Y-71025000D01*
X65450000Y-71025000D02*
X65450000Y-71250000D01*
D11*
X69250000Y-73300000D02*
X68600000Y-73300000D01*
X68600000Y-73300000D02*
X68300000Y-73550000D01*
X76000000Y-74500000D02*
X76000000Y-80500000D01*
X82000000Y-74500000D02*
X76000000Y-74500000D01*
X82000000Y-80500000D02*
X82000000Y-74500000D01*
X76000000Y-80500000D02*
X82000000Y-80500000D01*
X75952000Y-75976000D02*
X75952000Y-79024000D01*
X82048000Y-75976000D02*
X75952000Y-75976000D01*
X82048000Y-79024000D02*
X82048000Y-75976000D01*
X75952000Y-79024000D02*
X82048000Y-79024000D01*
D13*
X36160000Y-52170000D02*
X38060000Y-52170000D01*
X36160000Y-54070000D02*
X36160000Y-52170000D01*
X93670000Y-52460000D02*
X36450000Y-52460000D01*
X93670000Y-67360000D02*
X93670000Y-52460000D01*
X36450000Y-67360000D02*
X93670000Y-67360000D01*
X36450000Y-52460000D02*
X36450000Y-67360000D01*
D12*
X83750000Y-84825000D02*
X83750000Y-85465000D01*
X81010000Y-84825000D02*
X81010000Y-85475000D01*
X51150000Y-109450000D02*
X51150000Y-108850000D01*
X53750000Y-108250000D02*
X53250000Y-108250000D01*
X53750000Y-108250000D02*
X54250000Y-108250000D01*
X53750000Y-110050000D02*
X53250000Y-110050000D01*
X53750000Y-110050000D02*
X54250000Y-110050000D01*
X79900000Y-86345000D02*
X79900000Y-86985000D01*
X77160000Y-86345000D02*
X77160000Y-86995000D01*
D13*
X56300000Y-102860000D02*
X55700000Y-102860000D01*
X56300000Y-102260000D02*
X55700000Y-102260000D01*
X75160000Y-87090000D02*
X75160000Y-87690000D01*
X74560000Y-87090000D02*
X74560000Y-87690000D01*
D12*
X62170000Y-108860000D02*
X62170000Y-109460000D01*
X59570000Y-110060000D02*
X60070000Y-110060000D01*
X59570000Y-110060000D02*
X59070000Y-110060000D01*
X59570000Y-108260000D02*
X60070000Y-108260000D01*
X59570000Y-108260000D02*
X59070000Y-108260000D01*
D13*
X64290000Y-80960000D02*
X64290000Y-80360000D01*
X64890000Y-80960000D02*
X64890000Y-80360000D01*
D12*
X36760000Y-97120000D02*
X36760000Y-96520000D01*
X39360000Y-95920000D02*
X38860000Y-95920000D01*
X39360000Y-95920000D02*
X39860000Y-95920000D01*
X39360000Y-97720000D02*
X38860000Y-97720000D01*
X39360000Y-97720000D02*
X39860000Y-97720000D01*
X51570000Y-127400000D02*
X51570000Y-126800000D01*
X54170000Y-126200000D02*
X53670000Y-126200000D01*
X54170000Y-126200000D02*
X54670000Y-126200000D01*
X54170000Y-128000000D02*
X53670000Y-128000000D01*
X54170000Y-128000000D02*
X54670000Y-128000000D01*
D13*
X64180000Y-75550000D02*
X63580000Y-75550000D01*
X64180000Y-74950000D02*
X63580000Y-74950000D01*
X71900000Y-72700000D02*
X71300000Y-72700000D01*
X71900000Y-73300000D02*
X71300000Y-73300000D01*
X43840000Y-90670000D02*
X43240000Y-90670000D01*
X43840000Y-90070000D02*
X43240000Y-90070000D01*
X62310000Y-119880000D02*
X61710000Y-119880000D01*
X62310000Y-119280000D02*
X61710000Y-119280000D01*
D12*
X76140000Y-72090000D02*
X76140000Y-71450000D01*
X78880000Y-72090000D02*
X78880000Y-71440000D01*
X48120000Y-96560000D02*
X48120000Y-97160000D01*
X45520000Y-97760000D02*
X46020000Y-97760000D01*
X45520000Y-97760000D02*
X45020000Y-97760000D01*
X45520000Y-95960000D02*
X46020000Y-95960000D01*
X45520000Y-95960000D02*
X45020000Y-95960000D01*
X62470000Y-126810000D02*
X62470000Y-127410000D01*
X59870000Y-128010000D02*
X60370000Y-128010000D01*
X59870000Y-128010000D02*
X59370000Y-128010000D01*
X59870000Y-126210000D02*
X60370000Y-126210000D01*
X59870000Y-126210000D02*
X59370000Y-126210000D01*
D13*
X55410000Y-122670000D02*
X55410000Y-122070000D01*
X56010000Y-122670000D02*
X56010000Y-122070000D01*
D14*
X72513001Y-84560000D02*
X73783001Y-84560000D01*
X73529001Y-83925000D02*
X73529001Y-85195000D01*
X73529001Y-84560000D02*
X72767001Y-83925000D01*
X73529001Y-84560000D02*
X72767001Y-84052000D01*
X73529001Y-84560000D02*
X72767001Y-84179000D01*
X73529001Y-84560000D02*
X72767001Y-84306000D01*
X73529001Y-84560000D02*
X72767001Y-84433000D01*
X73529001Y-84560000D02*
X72767001Y-85195000D01*
X73529001Y-84560000D02*
X72767001Y-85068000D01*
X73529001Y-84560000D02*
X72767001Y-84941000D01*
X73529001Y-84560000D02*
X72767001Y-84814000D01*
X73529001Y-84560000D02*
X72767001Y-84687000D01*
X72767001Y-83925000D02*
X72767001Y-85195000D01*
X72132001Y-86657000D02*
X66287999Y-86657000D01*
X66287999Y-86657000D02*
X66287999Y-85997740D01*
X66287999Y-82463000D02*
X72132001Y-82463000D01*
X72132001Y-82463000D02*
X72132001Y-83122260D01*
X72132001Y-85997740D02*
X72132001Y-86657000D01*
X66287999Y-83122260D02*
X66287999Y-82463000D01*
D12*
X53200000Y-103820000D02*
X52900000Y-103820000D01*
X52900000Y-103820000D02*
X52900000Y-104120000D01*
X53200000Y-107020000D02*
X52900000Y-107020000D01*
X52900000Y-107020000D02*
X52900000Y-106720000D01*
X52900000Y-106720000D02*
X52200000Y-106720000D01*
X56100000Y-106720000D02*
X56100000Y-107020000D01*
X56100000Y-107020000D02*
X55800000Y-107020000D01*
X56100000Y-104120000D02*
X56100000Y-103820000D01*
X56100000Y-103820000D02*
X55800000Y-103820000D01*
X40740000Y-91750000D02*
X40440000Y-91750000D01*
X40440000Y-91750000D02*
X40440000Y-92050000D01*
X40740000Y-94950000D02*
X40440000Y-94950000D01*
X40440000Y-94950000D02*
X40440000Y-94650000D01*
X40440000Y-94650000D02*
X39740000Y-94650000D01*
X43640000Y-94650000D02*
X43640000Y-94950000D01*
X43640000Y-94950000D02*
X43340000Y-94950000D01*
X43640000Y-92050000D02*
X43640000Y-91750000D01*
X43640000Y-91750000D02*
X43340000Y-91750000D01*
X59220000Y-120540000D02*
X58920000Y-120540000D01*
X58920000Y-120540000D02*
X58920000Y-120840000D01*
X59220000Y-123740000D02*
X58920000Y-123740000D01*
X58920000Y-123740000D02*
X58920000Y-123440000D01*
X58920000Y-123440000D02*
X58220000Y-123440000D01*
X62120000Y-123440000D02*
X62120000Y-123740000D01*
X62120000Y-123740000D02*
X61820000Y-123740000D01*
X62120000Y-120840000D02*
X62120000Y-120540000D01*
X62120000Y-120540000D02*
X61820000Y-120540000D01*
D13*
X72300000Y-86440000D02*
X72900000Y-86440000D01*
X72300000Y-87040000D02*
X72900000Y-87040000D01*
X53710000Y-122160000D02*
X53710000Y-122760000D01*
X53110000Y-122160000D02*
X53110000Y-122760000D01*
X57940000Y-119930000D02*
X57340000Y-119930000D01*
X57940000Y-119330000D02*
X57340000Y-119330000D01*
X64290000Y-85400000D02*
X64290000Y-84800000D01*
X64890000Y-85400000D02*
X64890000Y-84800000D01*
X62500000Y-72900000D02*
X62500000Y-72300000D01*
X63100000Y-72900000D02*
X63100000Y-72300000D01*
X64240000Y-77940000D02*
X64240000Y-77340000D01*
X64840000Y-77940000D02*
X64840000Y-77340000D01*
D12*
X71570000Y-81850000D02*
X71570000Y-82050000D01*
X71570000Y-82050000D02*
X70870000Y-82050000D01*
X67370000Y-81850000D02*
X67370000Y-82050000D01*
X67370000Y-82050000D02*
X67970000Y-82050000D01*
X68070000Y-76850000D02*
X67370000Y-76850000D01*
X67370000Y-76850000D02*
X67370000Y-77050000D01*
X71270000Y-76850000D02*
X71570000Y-77150000D01*
X71570000Y-77150000D02*
X72270000Y-77150000D01*
D15*
X80452380Y-117640476D02*
X80452380Y-118307142D01*
X81452380Y-117640476D01*
X81452380Y-118307142D01*
X81452380Y-119211904D02*
X81452380Y-118640476D01*
X81452380Y-118926190D02*
X80452380Y-118926190D01*
X80595238Y-118830952D01*
X80690476Y-118735714D01*
X80738095Y-118640476D01*
X70738095Y-76702380D02*
X70738095Y-75702380D01*
X70500000Y-75702380D01*
X70357142Y-75750000D01*
X70261904Y-75845238D01*
X70214285Y-75940476D01*
X70166666Y-76130952D01*
X70166666Y-76273809D01*
X70214285Y-76464285D01*
X70261904Y-76559523D01*
X70357142Y-76654761D01*
X70500000Y-76702380D01*
X70738095Y-76702380D01*
X69833333Y-75702380D02*
X69214285Y-75702380D01*
X69547619Y-76083333D01*
X69404761Y-76083333D01*
X69309523Y-76130952D01*
X69261904Y-76178571D01*
X69214285Y-76273809D01*
X69214285Y-76511904D01*
X69261904Y-76607142D01*
X69309523Y-76654761D01*
X69404761Y-76702380D01*
X69690476Y-76702380D01*
X69785714Y-76654761D01*
X69833333Y-76607142D01*
X67838095Y-73702380D02*
X67838095Y-72702380D01*
X67600000Y-72702380D01*
X67457142Y-72750000D01*
X67361904Y-72845238D01*
X67314285Y-72940476D01*
X67266666Y-73130952D01*
X67266666Y-73273809D01*
X67314285Y-73464285D01*
X67361904Y-73559523D01*
X67457142Y-73654761D01*
X67600000Y-73702380D01*
X67838095Y-73702380D01*
X66885714Y-72797619D02*
X66838095Y-72750000D01*
X66742857Y-72702380D01*
X66504761Y-72702380D01*
X66409523Y-72750000D01*
X66361904Y-72797619D01*
X66314285Y-72892857D01*
X66314285Y-72988095D01*
X66361904Y-73130952D01*
X66933333Y-73702380D01*
X66314285Y-73702380D01*
X83266666Y-78002380D02*
X83742857Y-78002380D01*
X83742857Y-77002380D01*
X82409523Y-78002380D02*
X82980952Y-78002380D01*
X82695238Y-78002380D02*
X82695238Y-77002380D01*
X82790476Y-77145238D01*
X82885714Y-77240476D01*
X82980952Y-77288095D01*
X97364761Y-53138571D02*
X97698095Y-53138571D01*
X97698095Y-53662380D02*
X97698095Y-52662380D01*
X97221904Y-52662380D01*
X96840952Y-53662380D02*
X96840952Y-52662380D01*
X96507619Y-53376666D01*
X96174285Y-52662380D01*
X96174285Y-53662380D01*
X95126666Y-53567142D02*
X95174285Y-53614761D01*
X95317142Y-53662380D01*
X95412380Y-53662380D01*
X95555238Y-53614761D01*
X95650476Y-53519523D01*
X95698095Y-53424285D01*
X95745714Y-53233809D01*
X95745714Y-53090952D01*
X95698095Y-52900476D01*
X95650476Y-52805238D01*
X95555238Y-52710000D01*
X95412380Y-52662380D01*
X95317142Y-52662380D01*
X95174285Y-52710000D01*
X95126666Y-52757619D01*
X94174285Y-53662380D02*
X94745714Y-53662380D01*
X94460000Y-53662380D02*
X94460000Y-52662380D01*
X94555238Y-52805238D01*
X94650476Y-52900476D01*
X94745714Y-52948095D01*
X35508666Y-53612342D02*
X35556285Y-53659961D01*
X35699142Y-53707580D01*
X35794380Y-53707580D01*
X35937238Y-53659961D01*
X36032476Y-53564723D01*
X36080095Y-53469485D01*
X36127714Y-53279009D01*
X36127714Y-53136152D01*
X36080095Y-52945676D01*
X36032476Y-52850438D01*
X35937238Y-52755200D01*
X35794380Y-52707580D01*
X35699142Y-52707580D01*
X35556285Y-52755200D01*
X35508666Y-52802819D01*
X34556285Y-53707580D02*
X35127714Y-53707580D01*
X34842000Y-53707580D02*
X34842000Y-52707580D01*
X34937238Y-52850438D01*
X35032476Y-52945676D01*
X35127714Y-52993295D01*
X82842857Y-82687142D02*
X82890476Y-82734761D01*
X83033333Y-82782380D01*
X83128571Y-82782380D01*
X83271428Y-82734761D01*
X83366666Y-82639523D01*
X83414285Y-82544285D01*
X83461904Y-82353809D01*
X83461904Y-82210952D01*
X83414285Y-82020476D01*
X83366666Y-81925238D01*
X83271428Y-81830000D01*
X83128571Y-81782380D01*
X83033333Y-81782380D01*
X82890476Y-81830000D01*
X82842857Y-81877619D01*
X82509523Y-81782380D02*
X81890476Y-81782380D01*
X82223809Y-82163333D01*
X82080952Y-82163333D01*
X81985714Y-82210952D01*
X81938095Y-82258571D01*
X81890476Y-82353809D01*
X81890476Y-82591904D01*
X81938095Y-82687142D01*
X81985714Y-82734761D01*
X82080952Y-82782380D01*
X82366666Y-82782380D01*
X82461904Y-82734761D01*
X82509523Y-82687142D01*
X81557142Y-81782380D02*
X80938095Y-81782380D01*
X81271428Y-82163333D01*
X81128571Y-82163333D01*
X81033333Y-82210952D01*
X80985714Y-82258571D01*
X80938095Y-82353809D01*
X80938095Y-82591904D01*
X80985714Y-82687142D01*
X81033333Y-82734761D01*
X81128571Y-82782380D01*
X81414285Y-82782380D01*
X81509523Y-82734761D01*
X81557142Y-82687142D01*
X54492857Y-111357142D02*
X54540476Y-111404761D01*
X54683333Y-111452380D01*
X54778571Y-111452380D01*
X54921428Y-111404761D01*
X55016666Y-111309523D01*
X55064285Y-111214285D01*
X55111904Y-111023809D01*
X55111904Y-110880952D01*
X55064285Y-110690476D01*
X55016666Y-110595238D01*
X54921428Y-110500000D01*
X54778571Y-110452380D01*
X54683333Y-110452380D01*
X54540476Y-110500000D01*
X54492857Y-110547619D01*
X54159523Y-110452380D02*
X53540476Y-110452380D01*
X53873809Y-110833333D01*
X53730952Y-110833333D01*
X53635714Y-110880952D01*
X53588095Y-110928571D01*
X53540476Y-111023809D01*
X53540476Y-111261904D01*
X53588095Y-111357142D01*
X53635714Y-111404761D01*
X53730952Y-111452380D01*
X54016666Y-111452380D01*
X54111904Y-111404761D01*
X54159523Y-111357142D01*
X52921428Y-110452380D02*
X52826190Y-110452380D01*
X52730952Y-110500000D01*
X52683333Y-110547619D01*
X52635714Y-110642857D01*
X52588095Y-110833333D01*
X52588095Y-111071428D01*
X52635714Y-111261904D01*
X52683333Y-111357142D01*
X52730952Y-111404761D01*
X52826190Y-111452380D01*
X52921428Y-111452380D01*
X53016666Y-111404761D01*
X53064285Y-111357142D01*
X53111904Y-111261904D01*
X53159523Y-111071428D01*
X53159523Y-110833333D01*
X53111904Y-110642857D01*
X53064285Y-110547619D01*
X53016666Y-110500000D01*
X52921428Y-110452380D01*
X79212857Y-84187142D02*
X79260476Y-84234761D01*
X79403333Y-84282380D01*
X79498571Y-84282380D01*
X79641428Y-84234761D01*
X79736666Y-84139523D01*
X79784285Y-84044285D01*
X79831904Y-83853809D01*
X79831904Y-83710952D01*
X79784285Y-83520476D01*
X79736666Y-83425238D01*
X79641428Y-83330000D01*
X79498571Y-83282380D01*
X79403333Y-83282380D01*
X79260476Y-83330000D01*
X79212857Y-83377619D01*
X78879523Y-83282380D02*
X78260476Y-83282380D01*
X78593809Y-83663333D01*
X78450952Y-83663333D01*
X78355714Y-83710952D01*
X78308095Y-83758571D01*
X78260476Y-83853809D01*
X78260476Y-84091904D01*
X78308095Y-84187142D01*
X78355714Y-84234761D01*
X78450952Y-84282380D01*
X78736666Y-84282380D01*
X78831904Y-84234761D01*
X78879523Y-84187142D01*
X77879523Y-83377619D02*
X77831904Y-83330000D01*
X77736666Y-83282380D01*
X77498571Y-83282380D01*
X77403333Y-83330000D01*
X77355714Y-83377619D01*
X77308095Y-83472857D01*
X77308095Y-83568095D01*
X77355714Y-83710952D01*
X77927142Y-84282380D01*
X77308095Y-84282380D01*
X56642857Y-101357142D02*
X56690476Y-101404761D01*
X56833333Y-101452380D01*
X56928571Y-101452380D01*
X57071428Y-101404761D01*
X57166666Y-101309523D01*
X57214285Y-101214285D01*
X57261904Y-101023809D01*
X57261904Y-100880952D01*
X57214285Y-100690476D01*
X57166666Y-100595238D01*
X57071428Y-100500000D01*
X56928571Y-100452380D01*
X56833333Y-100452380D01*
X56690476Y-100500000D01*
X56642857Y-100547619D01*
X56309523Y-100452380D02*
X55690476Y-100452380D01*
X56023809Y-100833333D01*
X55880952Y-100833333D01*
X55785714Y-100880952D01*
X55738095Y-100928571D01*
X55690476Y-101023809D01*
X55690476Y-101261904D01*
X55738095Y-101357142D01*
X55785714Y-101404761D01*
X55880952Y-101452380D01*
X56166666Y-101452380D01*
X56261904Y-101404761D01*
X56309523Y-101357142D01*
X54833333Y-100785714D02*
X54833333Y-101452380D01*
X55071428Y-100404761D02*
X55309523Y-101119047D01*
X54690476Y-101119047D01*
X75832857Y-85767142D02*
X75880476Y-85814761D01*
X76023333Y-85862380D01*
X76118571Y-85862380D01*
X76261428Y-85814761D01*
X76356666Y-85719523D01*
X76404285Y-85624285D01*
X76451904Y-85433809D01*
X76451904Y-85290952D01*
X76404285Y-85100476D01*
X76356666Y-85005238D01*
X76261428Y-84910000D01*
X76118571Y-84862380D01*
X76023333Y-84862380D01*
X75880476Y-84910000D01*
X75832857Y-84957619D01*
X75499523Y-84862380D02*
X74880476Y-84862380D01*
X75213809Y-85243333D01*
X75070952Y-85243333D01*
X74975714Y-85290952D01*
X74928095Y-85338571D01*
X74880476Y-85433809D01*
X74880476Y-85671904D01*
X74928095Y-85767142D01*
X74975714Y-85814761D01*
X75070952Y-85862380D01*
X75356666Y-85862380D01*
X75451904Y-85814761D01*
X75499523Y-85767142D01*
X73975714Y-84862380D02*
X74451904Y-84862380D01*
X74499523Y-85338571D01*
X74451904Y-85290952D01*
X74356666Y-85243333D01*
X74118571Y-85243333D01*
X74023333Y-85290952D01*
X73975714Y-85338571D01*
X73928095Y-85433809D01*
X73928095Y-85671904D01*
X73975714Y-85767142D01*
X74023333Y-85814761D01*
X74118571Y-85862380D01*
X74356666Y-85862380D01*
X74451904Y-85814761D01*
X74499523Y-85767142D01*
X60112857Y-111357142D02*
X60160476Y-111404761D01*
X60303333Y-111452380D01*
X60398571Y-111452380D01*
X60541428Y-111404761D01*
X60636666Y-111309523D01*
X60684285Y-111214285D01*
X60731904Y-111023809D01*
X60731904Y-110880952D01*
X60684285Y-110690476D01*
X60636666Y-110595238D01*
X60541428Y-110500000D01*
X60398571Y-110452380D01*
X60303333Y-110452380D01*
X60160476Y-110500000D01*
X60112857Y-110547619D01*
X59779523Y-110452380D02*
X59160476Y-110452380D01*
X59493809Y-110833333D01*
X59350952Y-110833333D01*
X59255714Y-110880952D01*
X59208095Y-110928571D01*
X59160476Y-111023809D01*
X59160476Y-111261904D01*
X59208095Y-111357142D01*
X59255714Y-111404761D01*
X59350952Y-111452380D01*
X59636666Y-111452380D01*
X59731904Y-111404761D01*
X59779523Y-111357142D01*
X58303333Y-110452380D02*
X58493809Y-110452380D01*
X58589047Y-110500000D01*
X58636666Y-110547619D01*
X58731904Y-110690476D01*
X58779523Y-110880952D01*
X58779523Y-111261904D01*
X58731904Y-111357142D01*
X58684285Y-111404761D01*
X58589047Y-111452380D01*
X58398571Y-111452380D01*
X58303333Y-111404761D01*
X58255714Y-111357142D01*
X58208095Y-111261904D01*
X58208095Y-111023809D01*
X58255714Y-110928571D01*
X58303333Y-110880952D01*
X58398571Y-110833333D01*
X58589047Y-110833333D01*
X58684285Y-110880952D01*
X58731904Y-110928571D01*
X58779523Y-111023809D01*
X63707142Y-80207142D02*
X63754761Y-80159523D01*
X63802380Y-80016666D01*
X63802380Y-79921428D01*
X63754761Y-79778571D01*
X63659523Y-79683333D01*
X63564285Y-79635714D01*
X63373809Y-79588095D01*
X63230952Y-79588095D01*
X63040476Y-79635714D01*
X62945238Y-79683333D01*
X62850000Y-79778571D01*
X62802380Y-79921428D01*
X62802380Y-80016666D01*
X62850000Y-80159523D01*
X62897619Y-80207142D01*
X62802380Y-80540476D02*
X62802380Y-81159523D01*
X63183333Y-80826190D01*
X63183333Y-80969047D01*
X63230952Y-81064285D01*
X63278571Y-81111904D01*
X63373809Y-81159523D01*
X63611904Y-81159523D01*
X63707142Y-81111904D01*
X63754761Y-81064285D01*
X63802380Y-80969047D01*
X63802380Y-80683333D01*
X63754761Y-80588095D01*
X63707142Y-80540476D01*
X62802380Y-81492857D02*
X62802380Y-82159523D01*
X63802380Y-81730952D01*
X39962857Y-99027142D02*
X40010476Y-99074761D01*
X40153333Y-99122380D01*
X40248571Y-99122380D01*
X40391428Y-99074761D01*
X40486666Y-98979523D01*
X40534285Y-98884285D01*
X40581904Y-98693809D01*
X40581904Y-98550952D01*
X40534285Y-98360476D01*
X40486666Y-98265238D01*
X40391428Y-98170000D01*
X40248571Y-98122380D01*
X40153333Y-98122380D01*
X40010476Y-98170000D01*
X39962857Y-98217619D01*
X39629523Y-98122380D02*
X39010476Y-98122380D01*
X39343809Y-98503333D01*
X39200952Y-98503333D01*
X39105714Y-98550952D01*
X39058095Y-98598571D01*
X39010476Y-98693809D01*
X39010476Y-98931904D01*
X39058095Y-99027142D01*
X39105714Y-99074761D01*
X39200952Y-99122380D01*
X39486666Y-99122380D01*
X39581904Y-99074761D01*
X39629523Y-99027142D01*
X38439047Y-98550952D02*
X38534285Y-98503333D01*
X38581904Y-98455714D01*
X38629523Y-98360476D01*
X38629523Y-98312857D01*
X38581904Y-98217619D01*
X38534285Y-98170000D01*
X38439047Y-98122380D01*
X38248571Y-98122380D01*
X38153333Y-98170000D01*
X38105714Y-98217619D01*
X38058095Y-98312857D01*
X38058095Y-98360476D01*
X38105714Y-98455714D01*
X38153333Y-98503333D01*
X38248571Y-98550952D01*
X38439047Y-98550952D01*
X38534285Y-98598571D01*
X38581904Y-98646190D01*
X38629523Y-98741428D01*
X38629523Y-98931904D01*
X38581904Y-99027142D01*
X38534285Y-99074761D01*
X38439047Y-99122380D01*
X38248571Y-99122380D01*
X38153333Y-99074761D01*
X38105714Y-99027142D01*
X38058095Y-98931904D01*
X38058095Y-98741428D01*
X38105714Y-98646190D01*
X38153333Y-98598571D01*
X38248571Y-98550952D01*
X54832857Y-129177142D02*
X54880476Y-129224761D01*
X55023333Y-129272380D01*
X55118571Y-129272380D01*
X55261428Y-129224761D01*
X55356666Y-129129523D01*
X55404285Y-129034285D01*
X55451904Y-128843809D01*
X55451904Y-128700952D01*
X55404285Y-128510476D01*
X55356666Y-128415238D01*
X55261428Y-128320000D01*
X55118571Y-128272380D01*
X55023333Y-128272380D01*
X54880476Y-128320000D01*
X54832857Y-128367619D01*
X54499523Y-128272380D02*
X53880476Y-128272380D01*
X54213809Y-128653333D01*
X54070952Y-128653333D01*
X53975714Y-128700952D01*
X53928095Y-128748571D01*
X53880476Y-128843809D01*
X53880476Y-129081904D01*
X53928095Y-129177142D01*
X53975714Y-129224761D01*
X54070952Y-129272380D01*
X54356666Y-129272380D01*
X54451904Y-129224761D01*
X54499523Y-129177142D01*
X53404285Y-129272380D02*
X53213809Y-129272380D01*
X53118571Y-129224761D01*
X53070952Y-129177142D01*
X52975714Y-129034285D01*
X52928095Y-128843809D01*
X52928095Y-128462857D01*
X52975714Y-128367619D01*
X53023333Y-128320000D01*
X53118571Y-128272380D01*
X53309047Y-128272380D01*
X53404285Y-128320000D01*
X53451904Y-128367619D01*
X53499523Y-128462857D01*
X53499523Y-128700952D01*
X53451904Y-128796190D01*
X53404285Y-128843809D01*
X53309047Y-128891428D01*
X53118571Y-128891428D01*
X53023333Y-128843809D01*
X52975714Y-128796190D01*
X52928095Y-128700952D01*
X61822857Y-75587142D02*
X61870476Y-75634761D01*
X62013333Y-75682380D01*
X62108571Y-75682380D01*
X62251428Y-75634761D01*
X62346666Y-75539523D01*
X62394285Y-75444285D01*
X62441904Y-75253809D01*
X62441904Y-75110952D01*
X62394285Y-74920476D01*
X62346666Y-74825238D01*
X62251428Y-74730000D01*
X62108571Y-74682380D01*
X62013333Y-74682380D01*
X61870476Y-74730000D01*
X61822857Y-74777619D01*
X60965714Y-75015714D02*
X60965714Y-75682380D01*
X61203809Y-74634761D02*
X61441904Y-75349047D01*
X60822857Y-75349047D01*
X60251428Y-74682380D02*
X60156190Y-74682380D01*
X60060952Y-74730000D01*
X60013333Y-74777619D01*
X59965714Y-74872857D01*
X59918095Y-75063333D01*
X59918095Y-75301428D01*
X59965714Y-75491904D01*
X60013333Y-75587142D01*
X60060952Y-75634761D01*
X60156190Y-75682380D01*
X60251428Y-75682380D01*
X60346666Y-75634761D01*
X60394285Y-75587142D01*
X60441904Y-75491904D01*
X60489523Y-75301428D01*
X60489523Y-75063333D01*
X60441904Y-74872857D01*
X60394285Y-74777619D01*
X60346666Y-74730000D01*
X60251428Y-74682380D01*
X72242857Y-71957142D02*
X72290476Y-72004761D01*
X72433333Y-72052380D01*
X72528571Y-72052380D01*
X72671428Y-72004761D01*
X72766666Y-71909523D01*
X72814285Y-71814285D01*
X72861904Y-71623809D01*
X72861904Y-71480952D01*
X72814285Y-71290476D01*
X72766666Y-71195238D01*
X72671428Y-71100000D01*
X72528571Y-71052380D01*
X72433333Y-71052380D01*
X72290476Y-71100000D01*
X72242857Y-71147619D01*
X71385714Y-71385714D02*
X71385714Y-72052380D01*
X71623809Y-71004761D02*
X71861904Y-71719047D01*
X71242857Y-71719047D01*
X70338095Y-72052380D02*
X70909523Y-72052380D01*
X70623809Y-72052380D02*
X70623809Y-71052380D01*
X70719047Y-71195238D01*
X70814285Y-71290476D01*
X70909523Y-71338095D01*
X44142857Y-89407142D02*
X44190476Y-89454761D01*
X44333333Y-89502380D01*
X44428571Y-89502380D01*
X44571428Y-89454761D01*
X44666666Y-89359523D01*
X44714285Y-89264285D01*
X44761904Y-89073809D01*
X44761904Y-88930952D01*
X44714285Y-88740476D01*
X44666666Y-88645238D01*
X44571428Y-88550000D01*
X44428571Y-88502380D01*
X44333333Y-88502380D01*
X44190476Y-88550000D01*
X44142857Y-88597619D01*
X43285714Y-88835714D02*
X43285714Y-89502380D01*
X43523809Y-88454761D02*
X43761904Y-89169047D01*
X43142857Y-89169047D01*
X42809523Y-88597619D02*
X42761904Y-88550000D01*
X42666666Y-88502380D01*
X42428571Y-88502380D01*
X42333333Y-88550000D01*
X42285714Y-88597619D01*
X42238095Y-88692857D01*
X42238095Y-88788095D01*
X42285714Y-88930952D01*
X42857142Y-89502380D01*
X42238095Y-89502380D01*
X61202857Y-118647142D02*
X61250476Y-118694761D01*
X61393333Y-118742380D01*
X61488571Y-118742380D01*
X61631428Y-118694761D01*
X61726666Y-118599523D01*
X61774285Y-118504285D01*
X61821904Y-118313809D01*
X61821904Y-118170952D01*
X61774285Y-117980476D01*
X61726666Y-117885238D01*
X61631428Y-117790000D01*
X61488571Y-117742380D01*
X61393333Y-117742380D01*
X61250476Y-117790000D01*
X61202857Y-117837619D01*
X60345714Y-118075714D02*
X60345714Y-118742380D01*
X60583809Y-117694761D02*
X60821904Y-118409047D01*
X60202857Y-118409047D01*
X59917142Y-117742380D02*
X59298095Y-117742380D01*
X59631428Y-118123333D01*
X59488571Y-118123333D01*
X59393333Y-118170952D01*
X59345714Y-118218571D01*
X59298095Y-118313809D01*
X59298095Y-118551904D01*
X59345714Y-118647142D01*
X59393333Y-118694761D01*
X59488571Y-118742380D01*
X59774285Y-118742380D01*
X59869523Y-118694761D01*
X59917142Y-118647142D01*
X80487142Y-71017142D02*
X80534761Y-70969523D01*
X80582380Y-70826666D01*
X80582380Y-70731428D01*
X80534761Y-70588571D01*
X80439523Y-70493333D01*
X80344285Y-70445714D01*
X80153809Y-70398095D01*
X80010952Y-70398095D01*
X79820476Y-70445714D01*
X79725238Y-70493333D01*
X79630000Y-70588571D01*
X79582380Y-70731428D01*
X79582380Y-70826666D01*
X79630000Y-70969523D01*
X79677619Y-71017142D01*
X79915714Y-71874285D02*
X80582380Y-71874285D01*
X79534761Y-71636190D02*
X80249047Y-71398095D01*
X80249047Y-72017142D01*
X79915714Y-72826666D02*
X80582380Y-72826666D01*
X79534761Y-72588571D02*
X80249047Y-72350476D01*
X80249047Y-72969523D01*
X45792857Y-99107142D02*
X45840476Y-99154761D01*
X45983333Y-99202380D01*
X46078571Y-99202380D01*
X46221428Y-99154761D01*
X46316666Y-99059523D01*
X46364285Y-98964285D01*
X46411904Y-98773809D01*
X46411904Y-98630952D01*
X46364285Y-98440476D01*
X46316666Y-98345238D01*
X46221428Y-98250000D01*
X46078571Y-98202380D01*
X45983333Y-98202380D01*
X45840476Y-98250000D01*
X45792857Y-98297619D01*
X44935714Y-98535714D02*
X44935714Y-99202380D01*
X45173809Y-98154761D02*
X45411904Y-98869047D01*
X44792857Y-98869047D01*
X43935714Y-98202380D02*
X44411904Y-98202380D01*
X44459523Y-98678571D01*
X44411904Y-98630952D01*
X44316666Y-98583333D01*
X44078571Y-98583333D01*
X43983333Y-98630952D01*
X43935714Y-98678571D01*
X43888095Y-98773809D01*
X43888095Y-99011904D01*
X43935714Y-99107142D01*
X43983333Y-99154761D01*
X44078571Y-99202380D01*
X44316666Y-99202380D01*
X44411904Y-99154761D01*
X44459523Y-99107142D01*
X60502857Y-129267142D02*
X60550476Y-129314761D01*
X60693333Y-129362380D01*
X60788571Y-129362380D01*
X60931428Y-129314761D01*
X61026666Y-129219523D01*
X61074285Y-129124285D01*
X61121904Y-128933809D01*
X61121904Y-128790952D01*
X61074285Y-128600476D01*
X61026666Y-128505238D01*
X60931428Y-128410000D01*
X60788571Y-128362380D01*
X60693333Y-128362380D01*
X60550476Y-128410000D01*
X60502857Y-128457619D01*
X59645714Y-128695714D02*
X59645714Y-129362380D01*
X59883809Y-128314761D02*
X60121904Y-129029047D01*
X59502857Y-129029047D01*
X58693333Y-128362380D02*
X58883809Y-128362380D01*
X58979047Y-128410000D01*
X59026666Y-128457619D01*
X59121904Y-128600476D01*
X59169523Y-128790952D01*
X59169523Y-129171904D01*
X59121904Y-129267142D01*
X59074285Y-129314761D01*
X58979047Y-129362380D01*
X58788571Y-129362380D01*
X58693333Y-129314761D01*
X58645714Y-129267142D01*
X58598095Y-129171904D01*
X58598095Y-128933809D01*
X58645714Y-128838571D01*
X58693333Y-128790952D01*
X58788571Y-128743333D01*
X58979047Y-128743333D01*
X59074285Y-128790952D01*
X59121904Y-128838571D01*
X59169523Y-128933809D01*
X56342857Y-120857142D02*
X56390476Y-120904761D01*
X56533333Y-120952380D01*
X56628571Y-120952380D01*
X56771428Y-120904761D01*
X56866666Y-120809523D01*
X56914285Y-120714285D01*
X56961904Y-120523809D01*
X56961904Y-120380952D01*
X56914285Y-120190476D01*
X56866666Y-120095238D01*
X56771428Y-120000000D01*
X56628571Y-119952380D01*
X56533333Y-119952380D01*
X56390476Y-120000000D01*
X56342857Y-120047619D01*
X55485714Y-120285714D02*
X55485714Y-120952380D01*
X55723809Y-119904761D02*
X55961904Y-120619047D01*
X55342857Y-120619047D01*
X55057142Y-119952380D02*
X54390476Y-119952380D01*
X54819047Y-120952380D01*
X69686475Y-88029900D02*
X69686475Y-87029900D01*
X69448380Y-87029900D01*
X69305522Y-87077520D01*
X69210284Y-87172758D01*
X69162665Y-87267996D01*
X69115046Y-87458472D01*
X69115046Y-87601329D01*
X69162665Y-87791805D01*
X69210284Y-87887043D01*
X69305522Y-87982281D01*
X69448380Y-88029900D01*
X69686475Y-88029900D01*
X68162665Y-88029900D02*
X68734094Y-88029900D01*
X68448380Y-88029900D02*
X68448380Y-87029900D01*
X68543618Y-87172758D01*
X68638856Y-87267996D01*
X68734094Y-87315615D01*
X55226190Y-107902380D02*
X55226190Y-106902380D01*
X54178571Y-107807142D02*
X54226190Y-107854761D01*
X54369047Y-107902380D01*
X54464285Y-107902380D01*
X54607142Y-107854761D01*
X54702380Y-107759523D01*
X54750000Y-107664285D01*
X54797619Y-107473809D01*
X54797619Y-107330952D01*
X54750000Y-107140476D01*
X54702380Y-107045238D01*
X54607142Y-106950000D01*
X54464285Y-106902380D01*
X54369047Y-106902380D01*
X54226190Y-106950000D01*
X54178571Y-106997619D01*
X53226190Y-107902380D02*
X53797619Y-107902380D01*
X53511904Y-107902380D02*
X53511904Y-106902380D01*
X53607142Y-107045238D01*
X53702380Y-107140476D01*
X53797619Y-107188095D01*
X42876190Y-95652380D02*
X42876190Y-94652380D01*
X41828571Y-95557142D02*
X41876190Y-95604761D01*
X42019047Y-95652380D01*
X42114285Y-95652380D01*
X42257142Y-95604761D01*
X42352380Y-95509523D01*
X42400000Y-95414285D01*
X42447619Y-95223809D01*
X42447619Y-95080952D01*
X42400000Y-94890476D01*
X42352380Y-94795238D01*
X42257142Y-94700000D01*
X42114285Y-94652380D01*
X42019047Y-94652380D01*
X41876190Y-94700000D01*
X41828571Y-94747619D01*
X41447619Y-94747619D02*
X41400000Y-94700000D01*
X41304761Y-94652380D01*
X41066666Y-94652380D01*
X40971428Y-94700000D01*
X40923809Y-94747619D01*
X40876190Y-94842857D01*
X40876190Y-94938095D01*
X40923809Y-95080952D01*
X41495238Y-95652380D01*
X40876190Y-95652380D01*
X61476190Y-124652380D02*
X61476190Y-123652380D01*
X60428571Y-124557142D02*
X60476190Y-124604761D01*
X60619047Y-124652380D01*
X60714285Y-124652380D01*
X60857142Y-124604761D01*
X60952380Y-124509523D01*
X61000000Y-124414285D01*
X61047619Y-124223809D01*
X61047619Y-124080952D01*
X61000000Y-123890476D01*
X60952380Y-123795238D01*
X60857142Y-123700000D01*
X60714285Y-123652380D01*
X60619047Y-123652380D01*
X60476190Y-123700000D01*
X60428571Y-123747619D01*
X60095238Y-123652380D02*
X59476190Y-123652380D01*
X59809523Y-124033333D01*
X59666666Y-124033333D01*
X59571428Y-124080952D01*
X59523809Y-124128571D01*
X59476190Y-124223809D01*
X59476190Y-124461904D01*
X59523809Y-124557142D01*
X59571428Y-124604761D01*
X59666666Y-124652380D01*
X59952380Y-124652380D01*
X60047619Y-124604761D01*
X60095238Y-124557142D01*
X72766666Y-88722380D02*
X73100000Y-88246190D01*
X73338095Y-88722380D02*
X73338095Y-87722380D01*
X72957142Y-87722380D01*
X72861904Y-87770000D01*
X72814285Y-87817619D01*
X72766666Y-87912857D01*
X72766666Y-88055714D01*
X72814285Y-88150952D01*
X72861904Y-88198571D01*
X72957142Y-88246190D01*
X73338095Y-88246190D01*
X72290476Y-88722380D02*
X72100000Y-88722380D01*
X72004761Y-88674761D01*
X71957142Y-88627142D01*
X71861904Y-88484285D01*
X71814285Y-88293809D01*
X71814285Y-87912857D01*
X71861904Y-87817619D01*
X71909523Y-87770000D01*
X72004761Y-87722380D01*
X72195238Y-87722380D01*
X72290476Y-87770000D01*
X72338095Y-87817619D01*
X72385714Y-87912857D01*
X72385714Y-88150952D01*
X72338095Y-88246190D01*
X72290476Y-88293809D01*
X72195238Y-88341428D01*
X72004761Y-88341428D01*
X71909523Y-88293809D01*
X71861904Y-88246190D01*
X71814285Y-88150952D01*
X52622380Y-121967142D02*
X52146190Y-121633809D01*
X52622380Y-121395714D02*
X51622380Y-121395714D01*
X51622380Y-121776666D01*
X51670000Y-121871904D01*
X51717619Y-121919523D01*
X51812857Y-121967142D01*
X51955714Y-121967142D01*
X52050952Y-121919523D01*
X52098571Y-121871904D01*
X52146190Y-121776666D01*
X52146190Y-121395714D01*
X52622380Y-122919523D02*
X52622380Y-122348095D01*
X52622380Y-122633809D02*
X51622380Y-122633809D01*
X51765238Y-122538571D01*
X51860476Y-122443333D01*
X51908095Y-122348095D01*
X51622380Y-123538571D02*
X51622380Y-123633809D01*
X51670000Y-123729047D01*
X51717619Y-123776666D01*
X51812857Y-123824285D01*
X52003333Y-123871904D01*
X52241428Y-123871904D01*
X52431904Y-123824285D01*
X52527142Y-123776666D01*
X52574761Y-123729047D01*
X52622380Y-123633809D01*
X52622380Y-123538571D01*
X52574761Y-123443333D01*
X52527142Y-123395714D01*
X52431904Y-123348095D01*
X52241428Y-123300476D01*
X52003333Y-123300476D01*
X51812857Y-123348095D01*
X51717619Y-123395714D01*
X51670000Y-123443333D01*
X51622380Y-123538571D01*
X58212857Y-118732380D02*
X58546190Y-118256190D01*
X58784285Y-118732380D02*
X58784285Y-117732380D01*
X58403333Y-117732380D01*
X58308095Y-117780000D01*
X58260476Y-117827619D01*
X58212857Y-117922857D01*
X58212857Y-118065714D01*
X58260476Y-118160952D01*
X58308095Y-118208571D01*
X58403333Y-118256190D01*
X58784285Y-118256190D01*
X57260476Y-118732380D02*
X57831904Y-118732380D01*
X57546190Y-118732380D02*
X57546190Y-117732380D01*
X57641428Y-117875238D01*
X57736666Y-117970476D01*
X57831904Y-118018095D01*
X56308095Y-118732380D02*
X56879523Y-118732380D01*
X56593809Y-118732380D02*
X56593809Y-117732380D01*
X56689047Y-117875238D01*
X56784285Y-117970476D01*
X56879523Y-118018095D01*
X63622380Y-84587142D02*
X63146190Y-84253809D01*
X63622380Y-84015714D02*
X62622380Y-84015714D01*
X62622380Y-84396666D01*
X62670000Y-84491904D01*
X62717619Y-84539523D01*
X62812857Y-84587142D01*
X62955714Y-84587142D01*
X63050952Y-84539523D01*
X63098571Y-84491904D01*
X63146190Y-84396666D01*
X63146190Y-84015714D01*
X63622380Y-85539523D02*
X63622380Y-84968095D01*
X63622380Y-85253809D02*
X62622380Y-85253809D01*
X62765238Y-85158571D01*
X62860476Y-85063333D01*
X62908095Y-84968095D01*
X62717619Y-85920476D02*
X62670000Y-85968095D01*
X62622380Y-86063333D01*
X62622380Y-86301428D01*
X62670000Y-86396666D01*
X62717619Y-86444285D01*
X62812857Y-86491904D01*
X62908095Y-86491904D01*
X63050952Y-86444285D01*
X63622380Y-85872857D01*
X63622380Y-86491904D01*
X61852380Y-71857142D02*
X61376190Y-71523809D01*
X61852380Y-71285714D02*
X60852380Y-71285714D01*
X60852380Y-71666666D01*
X60900000Y-71761904D01*
X60947619Y-71809523D01*
X61042857Y-71857142D01*
X61185714Y-71857142D01*
X61280952Y-71809523D01*
X61328571Y-71761904D01*
X61376190Y-71666666D01*
X61376190Y-71285714D01*
X61852380Y-72809523D02*
X61852380Y-72238095D01*
X61852380Y-72523809D02*
X60852380Y-72523809D01*
X60995238Y-72428571D01*
X61090476Y-72333333D01*
X61138095Y-72238095D01*
X60852380Y-73142857D02*
X60852380Y-73761904D01*
X61233333Y-73428571D01*
X61233333Y-73571428D01*
X61280952Y-73666666D01*
X61328571Y-73714285D01*
X61423809Y-73761904D01*
X61661904Y-73761904D01*
X61757142Y-73714285D01*
X61804761Y-73666666D01*
X61852380Y-73571428D01*
X61852380Y-73285714D01*
X61804761Y-73190476D01*
X61757142Y-73142857D01*
X63732380Y-76977142D02*
X63256190Y-76643809D01*
X63732380Y-76405714D02*
X62732380Y-76405714D01*
X62732380Y-76786666D01*
X62780000Y-76881904D01*
X62827619Y-76929523D01*
X62922857Y-76977142D01*
X63065714Y-76977142D01*
X63160952Y-76929523D01*
X63208571Y-76881904D01*
X63256190Y-76786666D01*
X63256190Y-76405714D01*
X63732380Y-77929523D02*
X63732380Y-77358095D01*
X63732380Y-77643809D02*
X62732380Y-77643809D01*
X62875238Y-77548571D01*
X62970476Y-77453333D01*
X63018095Y-77358095D01*
X63065714Y-78786666D02*
X63732380Y-78786666D01*
X62684761Y-78548571D02*
X63399047Y-78310476D01*
X63399047Y-78929523D01*
X74606190Y-81216190D02*
X74606190Y-81692380D01*
X74939523Y-80692380D02*
X74606190Y-81216190D01*
X74272857Y-80692380D01*
X73415714Y-81692380D02*
X73987142Y-81692380D01*
X73701428Y-81692380D02*
X73701428Y-80692380D01*
X73796666Y-80835238D01*
X73891904Y-80930476D01*
X73987142Y-80978095D01*
M02*
