%TF.GenerationSoftware,KiCad,Pcbnew,(5.0.0-rc2-dev-581-g09a6bada0)*%
%TF.CreationDate,2018-07-03T10:36:25-06:00*%
%TF.ProjectId,Sensor_FMC_LPC_Breakout_V02,53656E736F725F464D435F4C50435F42,01*%
%TF.SameCoordinates,Original*%
%TF.FileFunction,Copper,L2,Bot,Signal*%
%TF.FilePolarity,Positive*%
%FSLAX46Y46*%
G04 Gerber Fmt 4.6, Leading zero omitted, Abs format (unit mm)*
G04 Created by KiCad (PCBNEW (5.0.0-rc2-dev-581-g09a6bada0)) date 07/03/18 10:36:25*
%MOMM*%
%LPD*%
G01*
G04 APERTURE LIST*
%ADD10R,5.000000X3.000000*%
%ADD11C,2.600000*%
%ADD12C,6.096000*%
%ADD13C,1.500000*%
%ADD14R,1.270000X1.270000*%
%ADD15R,2.000000X2.800000*%
%ADD16C,4.000000*%
%ADD17C,0.640000*%
%ADD18R,3.050000X1.520000*%
%ADD19R,1.500000X1.800000*%
%ADD20R,0.600000X0.800000*%
%ADD21R,0.800000X0.600000*%
%ADD22R,2.180400X2.210000*%
%ADD23R,1.450000X0.450000*%
%ADD24R,1.600000X0.700000*%
%ADD25C,0.700000*%
%ADD26C,4.400000*%
%ADD27C,1.397000*%
%ADD28C,1.524000*%
%ADD29C,0.685800*%
%ADD30C,1.016000*%
%ADD31C,1.778000*%
%ADD32C,0.330200*%
%ADD33C,2.997200*%
%ADD34C,0.711200*%
%ADD35C,0.508000*%
%ADD36C,1.016000*%
%ADD37C,0.900000*%
%ADD38C,0.800000*%
%ADD39C,0.889000*%
%ADD40C,0.762000*%
%ADD41C,0.228600*%
%ADD42C,0.838200*%
%ADD43C,0.254000*%
G04 APERTURE END LIST*
D10*
X86000000Y-123450000D03*
X86000000Y-95450000D03*
D11*
X91850000Y-117450000D03*
X91850000Y-101450000D03*
D12*
X97600000Y-95500000D03*
D13*
X85000000Y-88450000D03*
X64500000Y-128450000D03*
X65000000Y-88450000D03*
D12*
X97650000Y-123400000D03*
D14*
X71324000Y-74800000D03*
X68276000Y-74800000D03*
X68524000Y-72000000D03*
X65476000Y-72000000D03*
D15*
X76900000Y-77500000D03*
X81100000Y-77500000D03*
D13*
X46446000Y-101274000D03*
X62806000Y-117634000D03*
D16*
X96250000Y-61910000D03*
D17*
X41560000Y-56740000D03*
X40290000Y-61820000D03*
X41560000Y-61820000D03*
X40290000Y-63080000D03*
X41560000Y-63080000D03*
X47920000Y-61820000D03*
X47920000Y-63080000D03*
X49180000Y-63080000D03*
X49180000Y-61820000D03*
X51720000Y-61820000D03*
X51720000Y-63080000D03*
X50450000Y-63080000D03*
X50450000Y-61820000D03*
X45380000Y-61820000D03*
X45380000Y-63080000D03*
X46650000Y-63080000D03*
X46650000Y-61820000D03*
X44110000Y-61820000D03*
X44110000Y-63080000D03*
X42830000Y-63080000D03*
X42830000Y-61820000D03*
X63150000Y-61820000D03*
X63150000Y-63080000D03*
X64420000Y-63080000D03*
X64420000Y-61820000D03*
X65700000Y-61820000D03*
X65680000Y-63080000D03*
X69510000Y-61820000D03*
X69510000Y-63080000D03*
X70770000Y-63080000D03*
X70770000Y-61820000D03*
X68230000Y-61820000D03*
X68230000Y-63080000D03*
X66970000Y-63080000D03*
X66970000Y-61820000D03*
X58070000Y-61820000D03*
X58070000Y-63080000D03*
X59350000Y-63080000D03*
X59350000Y-61820000D03*
X61890000Y-61820000D03*
X61890000Y-63080000D03*
X60610000Y-63080000D03*
X60610000Y-61820000D03*
X55530000Y-61820000D03*
X55530000Y-63080000D03*
X56800000Y-63080000D03*
X56800000Y-61820000D03*
X54270000Y-61820000D03*
X54270000Y-63080000D03*
X53000000Y-63080000D03*
X53000000Y-61820000D03*
X75850000Y-61820000D03*
X75850000Y-63080000D03*
X77120000Y-63080000D03*
X77120000Y-61820000D03*
X79670000Y-61820000D03*
X79670000Y-63080000D03*
X78400000Y-63080000D03*
X78400000Y-61820000D03*
X74590000Y-63080000D03*
X74590000Y-61820000D03*
X73320000Y-61820000D03*
X73320000Y-63080000D03*
X72050000Y-63080000D03*
X72050000Y-61820000D03*
X83470000Y-61820000D03*
X83470000Y-63080000D03*
X84740000Y-63080000D03*
X84740000Y-61820000D03*
X86010000Y-61820000D03*
X86010000Y-63080000D03*
X89830000Y-61820000D03*
X89830000Y-63080000D03*
X88560000Y-61820000D03*
X88560000Y-63080000D03*
X87290000Y-63080000D03*
X87290000Y-61820000D03*
X82200000Y-61820000D03*
X82200000Y-63080000D03*
X80940000Y-63080000D03*
X80940000Y-61820000D03*
X80940000Y-56740000D03*
X80940000Y-58000000D03*
X82200000Y-58000000D03*
X82200000Y-56740000D03*
X87290000Y-56740000D03*
X87290000Y-58000000D03*
X88560000Y-58000000D03*
X88560000Y-56740000D03*
X89830000Y-58000000D03*
X89830000Y-56740000D03*
X86010000Y-58000000D03*
X86010000Y-56740000D03*
X84740000Y-56740000D03*
X84740000Y-58000000D03*
X83470000Y-58000000D03*
X83470000Y-56740000D03*
X72050000Y-56740000D03*
X72050000Y-58000000D03*
X73320000Y-58000000D03*
X73320000Y-56740000D03*
X74590000Y-56740000D03*
X74590000Y-58000000D03*
X78400000Y-56740000D03*
X78400000Y-58000000D03*
X79670000Y-58000000D03*
X79670000Y-56740000D03*
X77120000Y-56740000D03*
X77120000Y-58000000D03*
X75850000Y-58000000D03*
X75850000Y-56740000D03*
X53000000Y-56740000D03*
X53000000Y-58000000D03*
X54270000Y-58000000D03*
X54270000Y-56740000D03*
X56800000Y-56740000D03*
X56800000Y-58000000D03*
X55530000Y-58000000D03*
X55530000Y-56740000D03*
X60610000Y-56740000D03*
X60610000Y-58000000D03*
X61890000Y-58000000D03*
X61890000Y-56740000D03*
X59350000Y-56740000D03*
X59350000Y-58000000D03*
X58070000Y-58000000D03*
X58070000Y-56740000D03*
X66970000Y-56740000D03*
X66970000Y-58000000D03*
X68230000Y-58000000D03*
X68230000Y-56740000D03*
X70770000Y-56740000D03*
X70770000Y-58000000D03*
X69510000Y-58000000D03*
X69510000Y-56740000D03*
X65680000Y-58000000D03*
X65700000Y-56740000D03*
X64420000Y-56740000D03*
X64420000Y-58000000D03*
X63150000Y-58000000D03*
X63150000Y-56740000D03*
X42830000Y-56740000D03*
X42830000Y-58000000D03*
X44110000Y-58000000D03*
X44110000Y-56740000D03*
X46650000Y-56740000D03*
X46650000Y-58000000D03*
X45380000Y-58000000D03*
X45380000Y-56740000D03*
X50450000Y-56740000D03*
X50450000Y-58000000D03*
X51720000Y-58000000D03*
X51720000Y-56740000D03*
X49180000Y-56740000D03*
X49180000Y-58000000D03*
X47920000Y-58000000D03*
X47920000Y-56740000D03*
X41560000Y-58000000D03*
X40290000Y-58000000D03*
X40290000Y-56740000D03*
D16*
X33870000Y-61910000D03*
D18*
X82390000Y-84020000D03*
X82390000Y-86310000D03*
D19*
X51950000Y-109150000D03*
X55550000Y-109150000D03*
D18*
X78540000Y-85540000D03*
X78540000Y-87830000D03*
D20*
X55300000Y-102560000D03*
X56700000Y-102560000D03*
D21*
X74860000Y-88090000D03*
X74860000Y-86690000D03*
D19*
X61370000Y-109160000D03*
X57770000Y-109160000D03*
D21*
X64590000Y-79960000D03*
X64590000Y-81360000D03*
D19*
X37560000Y-96820000D03*
X41160000Y-96820000D03*
X52370000Y-127100000D03*
X55970000Y-127100000D03*
D20*
X63180000Y-75250000D03*
X64580000Y-75250000D03*
X72300000Y-73000000D03*
X70900000Y-73000000D03*
X42840000Y-90370000D03*
X44240000Y-90370000D03*
X61310000Y-119580000D03*
X62710000Y-119580000D03*
D18*
X77500000Y-72895000D03*
X77500000Y-70605000D03*
D19*
X47320000Y-96860000D03*
X43720000Y-96860000D03*
X61670000Y-127110000D03*
X58070000Y-127110000D03*
D21*
X55710000Y-121670000D03*
X55710000Y-123070000D03*
D22*
X71067200Y-84560000D03*
X67352800Y-84560000D03*
D23*
X52300000Y-106395000D03*
X52300000Y-105745000D03*
X52300000Y-105095000D03*
X52300000Y-104445000D03*
X56700000Y-104445000D03*
X56700000Y-105095000D03*
X56700000Y-105745000D03*
X56700000Y-106395000D03*
X39840000Y-94325000D03*
X39840000Y-93675000D03*
X39840000Y-93025000D03*
X39840000Y-92375000D03*
X44240000Y-92375000D03*
X44240000Y-93025000D03*
X44240000Y-93675000D03*
X44240000Y-94325000D03*
X58320000Y-123115000D03*
X58320000Y-122465000D03*
X58320000Y-121815000D03*
X58320000Y-121165000D03*
X62720000Y-121165000D03*
X62720000Y-121815000D03*
X62720000Y-122465000D03*
X62720000Y-123115000D03*
D20*
X73300000Y-86740000D03*
X71900000Y-86740000D03*
D21*
X53410000Y-123160000D03*
X53410000Y-121760000D03*
D20*
X56940000Y-119630000D03*
X58340000Y-119630000D03*
D21*
X64590000Y-84400000D03*
X64590000Y-85800000D03*
X62800000Y-71900000D03*
X62800000Y-73300000D03*
X64540000Y-76940000D03*
X64540000Y-78340000D03*
D24*
X71935000Y-80085000D03*
X71935000Y-78815000D03*
X71935000Y-81355000D03*
X71935000Y-77545000D03*
X67005000Y-81355000D03*
X67005000Y-80085000D03*
X67005000Y-78815000D03*
X67005000Y-77545000D03*
D25*
X36396726Y-123923274D03*
X35230000Y-123440000D03*
X34063274Y-123923274D03*
X33580000Y-125090000D03*
X34063274Y-126256726D03*
X35230000Y-126740000D03*
X36396726Y-126256726D03*
X36880000Y-125090000D03*
D26*
X35230000Y-125090000D03*
D27*
X59330000Y-111960000D03*
D28*
X51100000Y-112820000D03*
D27*
X38660000Y-64040000D03*
D28*
X39750000Y-90349998D03*
X37500000Y-109000000D03*
X71000000Y-68750000D03*
D27*
X66900000Y-121350000D03*
D28*
X41250000Y-103900000D03*
X60200000Y-105200000D03*
X50343241Y-115763212D03*
X56910000Y-115750000D03*
X35450000Y-102750000D03*
X55317037Y-111549990D03*
X94488000Y-81788000D03*
X94488000Y-85852000D03*
D29*
X43942000Y-82550000D03*
D30*
X42840000Y-76490000D03*
X41656000Y-82549998D03*
D29*
X42925988Y-83566000D03*
D30*
X42926000Y-78994000D03*
X87122000Y-72898000D03*
D29*
X64300000Y-59400000D03*
X56350000Y-67250000D03*
D30*
X42840000Y-73950000D03*
X87122000Y-75437986D03*
X87122000Y-77978000D03*
X87122000Y-70358000D03*
X87230000Y-80550000D03*
X89770000Y-75470000D03*
X89770000Y-72930000D03*
X89916000Y-80518000D03*
X89770000Y-70390000D03*
X89770000Y-78010000D03*
D29*
X49074112Y-60324112D03*
X48265888Y-59515888D03*
X71505888Y-59455888D03*
X67884112Y-60184112D03*
X67075888Y-59375888D03*
X72314112Y-60264112D03*
X71445888Y-55154112D03*
X72254112Y-54345888D03*
X60664112Y-60024112D03*
X59855888Y-59215888D03*
X56284112Y-60094112D03*
X55475888Y-59285888D03*
X52982112Y-60094112D03*
X52173888Y-59285888D03*
D31*
X97536000Y-83820000D03*
D32*
X91681578Y-73558422D02*
X90531999Y-74708001D01*
X91681578Y-69583974D02*
X91681578Y-73558422D01*
X89906026Y-67808422D02*
X91681578Y-69583974D01*
X84248422Y-67808422D02*
X89906026Y-67808422D01*
X79670000Y-63080000D02*
X79670000Y-63230000D01*
X79670000Y-63230000D02*
X84248422Y-67808422D01*
X90531999Y-74708001D02*
X89770000Y-75470000D01*
X85891663Y-67224211D02*
X90148013Y-67224211D01*
X90148013Y-67224211D02*
X92265789Y-69341987D01*
X92265789Y-75514211D02*
X90531999Y-77248001D01*
X82200000Y-63080000D02*
X82200000Y-63532548D01*
X90531999Y-77248001D02*
X89770000Y-78010000D01*
X92265789Y-69341987D02*
X92265789Y-75514211D01*
X82200000Y-63532548D02*
X85891663Y-67224211D01*
D33*
X84980000Y-123530000D02*
X97980000Y-123530000D01*
D34*
X87290000Y-56740000D02*
X87290000Y-54750000D01*
D35*
X49180000Y-61820000D02*
X49190000Y-61820000D01*
X45380000Y-61820000D02*
X45390000Y-61820000D01*
X42830000Y-63080000D02*
X42850000Y-63080000D01*
X84740000Y-63080000D02*
X84730000Y-63080000D01*
X88560000Y-63080000D02*
X88550000Y-63080000D01*
X88560000Y-63080000D02*
X88570000Y-63080000D01*
X40300000Y-56740000D02*
X41560000Y-58000000D01*
X40290000Y-56740000D02*
X40300000Y-56740000D01*
X42850000Y-58000000D02*
X44110000Y-56740000D01*
X42830000Y-58000000D02*
X42850000Y-58000000D01*
X45390000Y-56740000D02*
X46650000Y-58000000D01*
X45380000Y-56740000D02*
X45390000Y-56740000D01*
X54270000Y-56740000D02*
X55530000Y-58000000D01*
X59350000Y-58000000D02*
X60610000Y-56740000D01*
X63160000Y-58000000D02*
X64420000Y-56740000D01*
X63150000Y-58000000D02*
X63160000Y-58000000D01*
X69510000Y-56740000D02*
X70770000Y-58000000D01*
X74590000Y-58000000D02*
X75850000Y-56740000D01*
X84750000Y-56740000D02*
X86010000Y-58000000D01*
X84740000Y-56740000D02*
X84750000Y-56740000D01*
X86030000Y-58000000D02*
X87290000Y-56740000D01*
X86010000Y-58000000D02*
X86030000Y-58000000D01*
X87300000Y-56740000D02*
X88560000Y-58000000D01*
X87290000Y-56740000D02*
X87300000Y-56740000D01*
X88570000Y-58000000D02*
X89830000Y-56740000D01*
X88560000Y-58000000D02*
X88570000Y-58000000D01*
X89820000Y-61820000D02*
X88560000Y-63080000D01*
X89830000Y-61820000D02*
X89820000Y-61820000D01*
X83480000Y-61820000D02*
X84740000Y-63080000D01*
X83470000Y-61820000D02*
X83480000Y-61820000D01*
X80930000Y-63080000D02*
X79670000Y-61820000D01*
X80940000Y-63080000D02*
X80930000Y-63080000D01*
X77110000Y-63080000D02*
X75850000Y-61820000D01*
X77120000Y-63080000D02*
X77110000Y-63080000D01*
X73310000Y-63080000D02*
X72050000Y-61820000D01*
X73320000Y-63080000D02*
X73310000Y-63080000D01*
X69490000Y-63080000D02*
X68230000Y-61820000D01*
X69510000Y-63080000D02*
X69490000Y-63080000D01*
X65680000Y-63080000D02*
X64420000Y-61820000D01*
X61870000Y-63080000D02*
X60610000Y-61820000D01*
X61890000Y-63080000D02*
X61870000Y-63080000D01*
X58060000Y-63080000D02*
X56800000Y-61820000D01*
X58070000Y-63080000D02*
X58060000Y-63080000D01*
X54260000Y-63080000D02*
X53000000Y-61820000D01*
X54270000Y-63080000D02*
X54260000Y-63080000D01*
X50440000Y-63080000D02*
X49180000Y-61820000D01*
X50450000Y-63080000D02*
X50440000Y-63080000D01*
X46640000Y-63080000D02*
X45380000Y-61820000D01*
X46650000Y-63080000D02*
X46640000Y-63080000D01*
X44090000Y-61820000D02*
X42830000Y-63080000D01*
X44110000Y-61820000D02*
X44090000Y-61820000D01*
X39040000Y-56740000D02*
X33870000Y-61910000D01*
X40290000Y-56740000D02*
X39040000Y-56740000D01*
X60610000Y-61770000D02*
X60610000Y-61820000D01*
X63150000Y-58000000D02*
X63150000Y-59230000D01*
X68549999Y-61500001D02*
X68549999Y-61470001D01*
X68230000Y-61820000D02*
X68549999Y-61500001D01*
X57119999Y-61500001D02*
X56800000Y-61820000D01*
X57628001Y-60991999D02*
X57119999Y-61500001D01*
X59781999Y-60991999D02*
X57628001Y-60991999D01*
X60610000Y-61820000D02*
X59781999Y-60991999D01*
X64420000Y-61820000D02*
X65350000Y-60890000D01*
X67300000Y-60890000D02*
X68230000Y-61820000D01*
X65350000Y-60890000D02*
X67300000Y-60890000D01*
X61388001Y-60991999D02*
X61250000Y-61130000D01*
X63591999Y-60991999D02*
X61388001Y-60991999D01*
X64420000Y-61820000D02*
X63591999Y-60991999D01*
X63150000Y-59230000D02*
X61250000Y-61130000D01*
X61250000Y-61130000D02*
X60610000Y-61770000D01*
X83150001Y-61500001D02*
X83470000Y-61820000D01*
X82330000Y-60680000D02*
X83150001Y-61500001D01*
X80620000Y-60680000D02*
X82330000Y-60680000D01*
X79670000Y-61820000D02*
X79670000Y-61630000D01*
X79670000Y-61630000D02*
X80620000Y-60680000D01*
X87300000Y-61820000D02*
X88560000Y-63080000D01*
X87290000Y-61820000D02*
X87300000Y-61820000D01*
X43790001Y-61500001D02*
X44110000Y-61820000D01*
X43120000Y-60830000D02*
X43790001Y-61500001D01*
X40290000Y-61820000D02*
X41280000Y-60830000D01*
X41280000Y-60830000D02*
X43120000Y-60830000D01*
X43680000Y-96820000D02*
X43720000Y-96860000D01*
X41160000Y-96820000D02*
X42420000Y-96820000D01*
X42420000Y-96820000D02*
X43680000Y-96820000D01*
X57760000Y-109150000D02*
X57770000Y-109160000D01*
X55550000Y-109150000D02*
X57760000Y-109150000D01*
X52383001Y-103766999D02*
X52383001Y-104361999D01*
X55550000Y-107742000D02*
X54460000Y-106652000D01*
X55550000Y-109150000D02*
X55550000Y-107742000D01*
X54460000Y-106652000D02*
X54460000Y-104170000D01*
X54460000Y-104170000D02*
X53810000Y-103520000D01*
X53810000Y-103520000D02*
X52630000Y-103520000D01*
X52630000Y-103520000D02*
X52383001Y-103766999D01*
X53810000Y-103242000D02*
X53810000Y-103520000D01*
X54492000Y-102560000D02*
X53810000Y-103242000D01*
X55300000Y-102560000D02*
X54492000Y-102560000D01*
X57770000Y-110568000D02*
X58950000Y-111748000D01*
X57770000Y-109160000D02*
X57770000Y-110568000D01*
X58950000Y-111748000D02*
X59118000Y-111748000D01*
X59118000Y-111748000D02*
X59330000Y-111960000D01*
X53319999Y-61500001D02*
X53000000Y-61820000D01*
X53828001Y-60991999D02*
X53319999Y-61500001D01*
X55971999Y-60991999D02*
X53828001Y-60991999D01*
X56800000Y-61820000D02*
X55971999Y-60991999D01*
X49499999Y-61500001D02*
X49180000Y-61820000D01*
X50008001Y-60991999D02*
X49499999Y-61500001D01*
X52171999Y-60991999D02*
X50008001Y-60991999D01*
X53000000Y-61820000D02*
X52171999Y-60991999D01*
X69028001Y-60991999D02*
X68549999Y-61470001D01*
X71221999Y-60991999D02*
X69028001Y-60991999D01*
X72050000Y-61820000D02*
X71221999Y-60991999D01*
X76169999Y-61500001D02*
X75850000Y-61820000D01*
X76678001Y-60991999D02*
X76169999Y-61500001D01*
X78841999Y-60991999D02*
X76678001Y-60991999D01*
X79670000Y-61820000D02*
X78841999Y-60991999D01*
X75530001Y-61500001D02*
X75850000Y-61820000D01*
X74192559Y-60991999D02*
X74987441Y-60991999D01*
X74987441Y-60991999D02*
X74995442Y-61000000D01*
X72870000Y-61000000D02*
X72914558Y-61000000D01*
X72050000Y-61820000D02*
X72870000Y-61000000D01*
X74184558Y-61000000D02*
X74192559Y-60991999D01*
X72914558Y-61000000D02*
X72922559Y-60991999D01*
X72922559Y-60991999D02*
X73717441Y-60991999D01*
X73717441Y-60991999D02*
X73725442Y-61000000D01*
X75030000Y-61000000D02*
X75530001Y-61500001D01*
X74995442Y-61000000D02*
X75030000Y-61000000D01*
X73725442Y-61000000D02*
X74184558Y-61000000D01*
X74590000Y-59324558D02*
X72922559Y-60991999D01*
X74590000Y-58000000D02*
X74590000Y-59324558D01*
X44110000Y-61820000D02*
X45380000Y-61820000D01*
X41560000Y-58000000D02*
X42830000Y-58000000D01*
X44110000Y-56740000D02*
X45380000Y-56740000D01*
X46650000Y-58000000D02*
X47920000Y-58000000D01*
X64420000Y-56740000D02*
X65700000Y-56740000D01*
X69510000Y-56740000D02*
X70770000Y-56740000D01*
X74590000Y-56740000D02*
X75850000Y-56740000D01*
X75850000Y-56740000D02*
X76870000Y-55720000D01*
X78650000Y-55720000D02*
X79670000Y-56740000D01*
X76870000Y-55720000D02*
X78650000Y-55720000D01*
X79670000Y-56740000D02*
X80940000Y-56740000D01*
X88240001Y-63399999D02*
X88560000Y-63080000D01*
X87731999Y-63908001D02*
X88240001Y-63399999D01*
X85568001Y-63908001D02*
X87731999Y-63908001D01*
X84740000Y-63080000D02*
X85568001Y-63908001D01*
D36*
X63632000Y-78340000D02*
X64540000Y-78340000D01*
X63180000Y-77888000D02*
X63632000Y-78340000D01*
X63180000Y-75250000D02*
X63180000Y-77888000D01*
D35*
X64540000Y-79910000D02*
X64590000Y-79960000D01*
D36*
X64540000Y-78340000D02*
X64540000Y-79910000D01*
D35*
X66880000Y-79960000D02*
X67005000Y-80085000D01*
X63180000Y-75250000D02*
X63180000Y-75150000D01*
X78280000Y-88090000D02*
X78540000Y-87830000D01*
D37*
X74860000Y-88090000D02*
X78280000Y-88090000D01*
D35*
X61260000Y-119630000D02*
X61310000Y-119580000D01*
X58340000Y-119630000D02*
X61260000Y-119630000D01*
X38660000Y-63450000D02*
X38660000Y-64040000D01*
X40290000Y-61820000D02*
X38660000Y-63450000D01*
X58060000Y-127100000D02*
X58070000Y-127110000D01*
X55970000Y-127100000D02*
X58060000Y-127100000D01*
D38*
X82138000Y-87830000D02*
X82390000Y-87578000D01*
X78540000Y-87830000D02*
X82138000Y-87830000D01*
D36*
X64590000Y-79960000D02*
X64716200Y-80086200D01*
X64716200Y-80086200D02*
X66753800Y-80086200D01*
D39*
X69269800Y-88090000D02*
X68090000Y-88090000D01*
X67352800Y-87352800D02*
X67352800Y-84560000D01*
X68090000Y-88090000D02*
X67352800Y-87352800D01*
D35*
X87390000Y-54650000D02*
X91410000Y-54650000D01*
X91410000Y-54650000D02*
X92470000Y-55710000D01*
X92470000Y-59180000D02*
X89830000Y-61820000D01*
X92470000Y-55710000D02*
X92470000Y-59180000D01*
X65710000Y-56740000D02*
X66970000Y-58000000D01*
X65700000Y-56740000D02*
X65710000Y-56740000D01*
X50460000Y-56740000D02*
X51720000Y-58000000D01*
X50450000Y-56740000D02*
X50460000Y-56740000D01*
X54270000Y-56740000D02*
X55530000Y-56740000D01*
X59350000Y-56740000D02*
X60610000Y-56740000D01*
X39840000Y-91510000D02*
X39840000Y-92291999D01*
X42840000Y-91660000D02*
X42840000Y-90370000D01*
X42420000Y-96820000D02*
X42420000Y-92080000D01*
X42420000Y-92080000D02*
X42840000Y-91660000D01*
X39770002Y-90370000D02*
X39750000Y-90349998D01*
X42840000Y-90370000D02*
X39770002Y-90370000D01*
X39750000Y-91427628D02*
X39750000Y-90349998D01*
X39832372Y-91510000D02*
X39750000Y-91427628D01*
X39840000Y-91510000D02*
X39832372Y-91510000D01*
D36*
X61000000Y-71200000D02*
X63450000Y-68750000D01*
D39*
X74880000Y-68750000D02*
X72077630Y-68750000D01*
D36*
X63450000Y-68750000D02*
X70922370Y-68750000D01*
X63180000Y-75150000D02*
X62145200Y-75150000D01*
X62145200Y-75150000D02*
X61000000Y-74004800D01*
X65680000Y-63080000D02*
X65680000Y-63532548D01*
X65680000Y-63532548D02*
X70897452Y-68750000D01*
D39*
X77500000Y-70605000D02*
X76735000Y-70605000D01*
X72077630Y-68750000D02*
X71000000Y-68750000D01*
D36*
X70922370Y-68750000D02*
X71000000Y-68750000D01*
D39*
X76735000Y-70605000D02*
X74880000Y-68750000D01*
D36*
X61000000Y-74004800D02*
X61000000Y-71200000D01*
X70897452Y-68750000D02*
X70922370Y-68750000D01*
D40*
X57940000Y-113350000D02*
X59330000Y-111960000D01*
X51100000Y-112820000D02*
X51630000Y-113350000D01*
X51630000Y-113350000D02*
X57940000Y-113350000D01*
D37*
X69269800Y-88090000D02*
X73952000Y-88090000D01*
X73952000Y-88090000D02*
X74860000Y-88090000D01*
D38*
X82390000Y-87578000D02*
X82390000Y-86310000D01*
D35*
X51160000Y-59840000D02*
X49499999Y-61500001D01*
X51720000Y-58000000D02*
X51160000Y-58560000D01*
X51160000Y-58560000D02*
X51160000Y-59840000D01*
X58860000Y-59760000D02*
X57119999Y-61500001D01*
X59350000Y-58000000D02*
X58860000Y-58490000D01*
X58860000Y-58490000D02*
X58860000Y-59760000D01*
X70250000Y-59950000D02*
X70250000Y-58520000D01*
X69208001Y-60991999D02*
X70250000Y-59950000D01*
X68681999Y-61470001D02*
X68681999Y-61422559D01*
X69112559Y-60991999D02*
X69208001Y-60991999D01*
X68681999Y-61422559D02*
X69112559Y-60991999D01*
X68549999Y-61470001D02*
X68681999Y-61470001D01*
X70250000Y-58520000D02*
X70770000Y-58000000D01*
X54600211Y-60219789D02*
X54600211Y-58902231D01*
X54600211Y-58902231D02*
X55462442Y-58040000D01*
X55462442Y-58040000D02*
X55520000Y-58040000D01*
X53000000Y-61820000D02*
X54600211Y-60219789D01*
D34*
X39840000Y-94325000D02*
X39840000Y-93675000D01*
X39840000Y-93675000D02*
X39840000Y-93260401D01*
X37560000Y-95080000D02*
X37560000Y-96820000D01*
X39840000Y-94325000D02*
X38315000Y-94325000D01*
X38315000Y-94325000D02*
X37560000Y-95080000D01*
X37560000Y-96820000D02*
X37560000Y-96970000D01*
X37560000Y-96970000D02*
X39790000Y-99200000D01*
X39840000Y-93675000D02*
X39840000Y-93209601D01*
X39790000Y-102440000D02*
X40488001Y-103138001D01*
X40488001Y-103138001D02*
X41250000Y-103900000D01*
X39790000Y-99200000D02*
X39790000Y-102440000D01*
X56077630Y-99200000D02*
X60200000Y-103322370D01*
X39790000Y-99200000D02*
X56077630Y-99200000D01*
X60200000Y-103322370D02*
X60200000Y-104122370D01*
X60200000Y-104122370D02*
X60200000Y-105200000D01*
X55710000Y-123070000D02*
X55710000Y-124500000D01*
X58320000Y-124051200D02*
X58320000Y-123115000D01*
X57871200Y-124500000D02*
X58320000Y-124051200D01*
X55710000Y-124500000D02*
X57871200Y-124500000D01*
X58320000Y-123115000D02*
X58320000Y-122700401D01*
X53410000Y-124171200D02*
X53738800Y-124500000D01*
X53410000Y-123160000D02*
X53410000Y-124171200D01*
X58320000Y-123115000D02*
X58320000Y-122649601D01*
X55832370Y-115750000D02*
X56910000Y-115750000D01*
X53890000Y-115750000D02*
X55832370Y-115750000D01*
X53876788Y-115763212D02*
X53890000Y-115750000D01*
X50343241Y-115763212D02*
X53876788Y-115763212D01*
X53890000Y-119250000D02*
X53890000Y-115750000D01*
X52350000Y-124500000D02*
X51730000Y-123880000D01*
X53738800Y-124500000D02*
X52350000Y-124500000D01*
X51730000Y-123880000D02*
X51730000Y-121760000D01*
X51730000Y-121760000D02*
X51740000Y-121750000D01*
X51740000Y-121750000D02*
X51740000Y-121400000D01*
X51740000Y-121400000D02*
X53890000Y-119250000D01*
X53831200Y-127100000D02*
X54190000Y-126741200D01*
X52370000Y-127100000D02*
X53831200Y-127100000D01*
X54190000Y-125220000D02*
X54910000Y-124500000D01*
X54190000Y-126741200D02*
X54190000Y-125220000D01*
X53738800Y-124500000D02*
X54910000Y-124500000D01*
X54910000Y-124500000D02*
X55710000Y-124500000D01*
X52300000Y-106395000D02*
X52300000Y-105745000D01*
X52300000Y-105745000D02*
X52300000Y-105330401D01*
X52300000Y-108800000D02*
X51950000Y-109150000D01*
X52300000Y-105745000D02*
X52300000Y-105279601D01*
X51800000Y-106395000D02*
X52300000Y-106395000D01*
X49893589Y-108301411D02*
X51800000Y-106395000D01*
X49893589Y-108554789D02*
X49893589Y-108301411D01*
X50488800Y-109150000D02*
X51950000Y-109150000D01*
X49893589Y-108554789D02*
X50488800Y-109150000D01*
X54239407Y-111549990D02*
X55317037Y-111549990D01*
X49893589Y-108554789D02*
X52888790Y-111549990D01*
X52888790Y-111549990D02*
X54239407Y-111549990D01*
X36527630Y-102750000D02*
X35450000Y-102750000D01*
X37000000Y-102750000D02*
X36527630Y-102750000D01*
X42815812Y-108565812D02*
X37000000Y-102750000D01*
X49893589Y-108554789D02*
X49882566Y-108565812D01*
X49882566Y-108565812D02*
X42815812Y-108565812D01*
D32*
X56700000Y-102560000D02*
X56700000Y-104445000D01*
D34*
X62720000Y-123115000D02*
X62720000Y-122700401D01*
X62720000Y-124051200D02*
X62868800Y-124200000D01*
X62720000Y-123115000D02*
X62720000Y-124051200D01*
X62868800Y-124200000D02*
X64820000Y-124200000D01*
X64820000Y-124200000D02*
X64760000Y-124260000D01*
X44240000Y-94640000D02*
X44240000Y-94325000D01*
X44550000Y-94950000D02*
X44240000Y-94640000D01*
X44240000Y-94325000D02*
X44240000Y-93910401D01*
X47360000Y-94950000D02*
X44550000Y-94950000D01*
X47320000Y-94990000D02*
X47320000Y-96860000D01*
X47360000Y-94950000D02*
X47320000Y-94990000D01*
X56700000Y-106395000D02*
X56700000Y-106820000D01*
X56700000Y-106820000D02*
X56860000Y-106980000D01*
X61370000Y-106990000D02*
X61380000Y-106980000D01*
X61370000Y-109160000D02*
X61370000Y-106990000D01*
X56860000Y-106980000D02*
X59640000Y-106980000D01*
X59640000Y-106980000D02*
X61380000Y-106980000D01*
X56700000Y-106395000D02*
X56700000Y-105980401D01*
X44240000Y-94325000D02*
X44240000Y-93859601D01*
X56700000Y-106395000D02*
X56700000Y-105929601D01*
X62720000Y-123115000D02*
X62720000Y-122649601D01*
X61670000Y-127110000D02*
X62070000Y-126710000D01*
X62310000Y-126710000D02*
X64820000Y-124200000D01*
X62070000Y-126710000D02*
X62310000Y-126710000D01*
X81100000Y-77500000D02*
X81100000Y-77100000D01*
X65222000Y-70978000D02*
X65222000Y-72000000D01*
X65800000Y-70400000D02*
X65222000Y-70978000D01*
X73800000Y-70400000D02*
X65800000Y-70400000D01*
X77500000Y-72895000D02*
X76295000Y-72895000D01*
X76295000Y-72895000D02*
X73800000Y-70400000D01*
X65122000Y-71900000D02*
X65222000Y-72000000D01*
X62800000Y-71900000D02*
X65122000Y-71900000D01*
X81100000Y-76495000D02*
X77500000Y-72895000D01*
X81100000Y-77500000D02*
X81100000Y-76495000D01*
X68000000Y-74800000D02*
X68022000Y-74800000D01*
X65222000Y-72000000D02*
X65222000Y-72022000D01*
X65222000Y-72022000D02*
X68000000Y-74800000D01*
X68867600Y-94050000D02*
X68883800Y-94066200D01*
X65900000Y-97050000D02*
X68883800Y-94066200D01*
X65900000Y-104830000D02*
X65900000Y-97050000D01*
X61380000Y-106980000D02*
X63750000Y-106980000D01*
X63750000Y-106980000D02*
X65900000Y-104830000D01*
X64820000Y-124200000D02*
X66900000Y-124200000D01*
X66900000Y-124200000D02*
X68883800Y-122216200D01*
X63800000Y-94950000D02*
X65900000Y-97050000D01*
X47360000Y-94950000D02*
X63800000Y-94950000D01*
X68883800Y-100033800D02*
X65900000Y-97050000D01*
X68883800Y-122216200D02*
X68883800Y-100033800D01*
X93410370Y-81788000D02*
X94488000Y-81788000D01*
X86614000Y-81788000D02*
X93410370Y-81788000D01*
X81100000Y-77500000D02*
X82326000Y-77500000D01*
X82326000Y-77500000D02*
X86614000Y-81788000D01*
X89780000Y-90560000D02*
X93726001Y-86613999D01*
X93726001Y-86613999D02*
X94488000Y-85852000D01*
X72390000Y-90560000D02*
X89780000Y-90560000D01*
X68883800Y-94066200D02*
X72390000Y-90560000D01*
D32*
X67000000Y-81360000D02*
X67005000Y-81355000D01*
D35*
X64590000Y-81360000D02*
X67000000Y-81360000D01*
X64590000Y-81360000D02*
X64590000Y-82910000D01*
X64590000Y-82910000D02*
X64590000Y-84400000D01*
X69200000Y-86000000D02*
X69940000Y-86740000D01*
X69200000Y-82419800D02*
X69200000Y-86000000D01*
X67005000Y-81355000D02*
X68135200Y-81355000D01*
X68135200Y-81355000D02*
X69200000Y-82419800D01*
X69940000Y-86740000D02*
X71900000Y-86740000D01*
X64710000Y-75250000D02*
X64580000Y-75250000D01*
X67005000Y-77545000D02*
X64710000Y-75250000D01*
D32*
X71090000Y-85445200D02*
X71090000Y-85460000D01*
D35*
X72460000Y-84560000D02*
X71067200Y-84560000D01*
X73790000Y-83230000D02*
X72460000Y-84560000D01*
X73790000Y-80809800D02*
X73790000Y-83230000D01*
X71935000Y-80085000D02*
X73065200Y-80085000D01*
X73065200Y-80085000D02*
X73790000Y-80809800D01*
D32*
X70800000Y-73000000D02*
X70900000Y-73000000D01*
D35*
X71369800Y-71800000D02*
X73000000Y-71800000D01*
X73000000Y-71800000D02*
X74400000Y-73200000D01*
X74400000Y-73200000D02*
X74400000Y-76800000D01*
X75100000Y-77500000D02*
X76900000Y-77500000D01*
X74400000Y-76800000D02*
X75100000Y-77500000D01*
D32*
X70900000Y-73100000D02*
X70900000Y-73000000D01*
X70090000Y-73910000D02*
X70900000Y-73100000D01*
X70090000Y-79370200D02*
X70090000Y-73910000D01*
D35*
X70900000Y-72269800D02*
X71369800Y-71800000D01*
X70900000Y-73000000D02*
X70900000Y-72269800D01*
D32*
X70804800Y-80085000D02*
X71935000Y-80085000D01*
X70090000Y-79370200D02*
X70804800Y-80085000D01*
D35*
X72300000Y-74078000D02*
X71578000Y-74800000D01*
X72300000Y-73000000D02*
X72300000Y-74078000D01*
X71578000Y-76178000D02*
X71578000Y-74800000D01*
X71935000Y-77545000D02*
X71935000Y-76535000D01*
X71935000Y-76535000D02*
X71578000Y-76178000D01*
D32*
X44240000Y-90370000D02*
X44240000Y-92375000D01*
X62720000Y-119590000D02*
X62710000Y-119580000D01*
X62720000Y-121165000D02*
X62720000Y-119590000D01*
X53410000Y-121760000D02*
X55620000Y-121760000D01*
D41*
X56940000Y-120258600D02*
X56940000Y-119630000D01*
X56940000Y-121388600D02*
X56940000Y-120258600D01*
X57366400Y-121815000D02*
X56940000Y-121388600D01*
X58320000Y-121815000D02*
X57366400Y-121815000D01*
X56620000Y-121388600D02*
X56940000Y-121388600D01*
X56338600Y-121670000D02*
X56620000Y-121388600D01*
X55710000Y-121670000D02*
X56338600Y-121670000D01*
D34*
X84740000Y-58452548D02*
X84740000Y-58000000D01*
X85497452Y-59210000D02*
X84740000Y-58452548D01*
X86175810Y-59210000D02*
X85497452Y-59210000D01*
X86970001Y-58415809D02*
X86175810Y-59210000D01*
X87290000Y-58000000D02*
X86970001Y-58319999D01*
X86970001Y-58319999D02*
X86970001Y-58415809D01*
X87290000Y-58452548D02*
X87290000Y-58000000D01*
X88057452Y-59220000D02*
X87290000Y-58452548D01*
X89062548Y-59220000D02*
X88057452Y-59220000D01*
X89830000Y-58000000D02*
X89830000Y-58452548D01*
X89830000Y-58452548D02*
X89062548Y-59220000D01*
X79670000Y-58452548D02*
X79670000Y-58000000D01*
X80447452Y-59230000D02*
X79670000Y-58452548D01*
X83615810Y-59230000D02*
X80447452Y-59230000D01*
X84420001Y-58425809D02*
X83615810Y-59230000D01*
X84740000Y-58000000D02*
X84420001Y-58319999D01*
X84420001Y-58319999D02*
X84420001Y-58425809D01*
X88879999Y-56420001D02*
X88879999Y-56314191D01*
X90759601Y-57522947D02*
X90282548Y-58000000D01*
X88560000Y-56740000D02*
X88879999Y-56420001D01*
X90282548Y-58000000D02*
X89830000Y-58000000D01*
X90759601Y-56293791D02*
X90759601Y-57522947D01*
X90276209Y-55810399D02*
X90759601Y-56293791D01*
X89383791Y-55810399D02*
X90276209Y-55810399D01*
X88879999Y-56314191D02*
X89383791Y-55810399D01*
D32*
X44240000Y-93025000D02*
X45295200Y-93025000D01*
X45289301Y-93019101D02*
X45300281Y-93019101D01*
X45300281Y-93019101D02*
X45384101Y-92935281D01*
X45300281Y-93019101D02*
X45650000Y-92669382D01*
X44284899Y-82892899D02*
X43942000Y-82550000D01*
X45650000Y-84258000D02*
X44284899Y-82892899D01*
X45650000Y-92669382D02*
X45650000Y-84258000D01*
X57350000Y-63630000D02*
X57119999Y-63399999D01*
X44043578Y-75286422D02*
X44043578Y-72288422D01*
X42840000Y-76490000D02*
X44043578Y-75286422D01*
X44043578Y-72288422D02*
X48197789Y-68134211D01*
X48197789Y-68134211D02*
X56715789Y-68134211D01*
X57119999Y-63399999D02*
X56800000Y-63080000D01*
X56715789Y-68134211D02*
X57350000Y-67500000D01*
X57350000Y-67500000D02*
X57350000Y-63630000D01*
X33108899Y-91097099D02*
X41148001Y-83057997D01*
X41148001Y-83057997D02*
X41656000Y-82549998D01*
X62720000Y-121815000D02*
X63775200Y-121815000D01*
X38411101Y-114341101D02*
X33108899Y-109038899D01*
X33108899Y-109038899D02*
X33108899Y-91097099D01*
X61651301Y-114341101D02*
X38411101Y-114341101D01*
X64800000Y-117489800D02*
X61651301Y-114341101D01*
X64800000Y-120790200D02*
X64800000Y-117489800D01*
X63775200Y-121815000D02*
X64800000Y-120790200D01*
X42163999Y-82041999D02*
X41656000Y-82549998D01*
X60610000Y-63080000D02*
X60610000Y-65892398D01*
X60610000Y-65892398D02*
X57199765Y-69302633D01*
X57199765Y-69302633D02*
X49315367Y-69302633D01*
X49315367Y-69302633D02*
X45212000Y-73406000D01*
X45212000Y-73406000D02*
X45212000Y-78993998D01*
X45212000Y-78993998D02*
X42163999Y-82041999D01*
X58350000Y-104500200D02*
X58350000Y-102580000D01*
X56700000Y-105095000D02*
X57755200Y-105095000D01*
X57755200Y-105095000D02*
X58350000Y-104500200D01*
X58350000Y-102580000D02*
X56280000Y-100510000D01*
X56280000Y-100510000D02*
X52380000Y-100510000D01*
X52380000Y-100510000D02*
X45630000Y-107260000D01*
X36131101Y-100631101D02*
X36131101Y-90360887D01*
X42583089Y-83908899D02*
X42925988Y-83566000D01*
X42760000Y-107260000D02*
X36131101Y-100631101D01*
X45630000Y-107260000D02*
X42760000Y-107260000D01*
X36131101Y-90360887D02*
X42583089Y-83908899D01*
X44627789Y-77242211D02*
X44627789Y-72896012D01*
X42840000Y-79030000D02*
X44627789Y-77242211D01*
X44627789Y-72896012D02*
X48805379Y-68718422D01*
X59350000Y-63532548D02*
X59350000Y-63080000D01*
X59350000Y-66326199D02*
X59350000Y-63532548D01*
X56957777Y-68718422D02*
X59350000Y-66326199D01*
X48805379Y-68718422D02*
X56957777Y-68718422D01*
X86403580Y-72898000D02*
X87122000Y-72898000D01*
X78056026Y-65408422D02*
X85545604Y-72898000D01*
X85545604Y-72898000D02*
X86403580Y-72898000D01*
X74378422Y-65408422D02*
X78056026Y-65408422D01*
X72050000Y-63080000D02*
X74378422Y-65408422D01*
X64420000Y-58000000D02*
X64420000Y-59280000D01*
X64420000Y-59280000D02*
X64300000Y-59400000D01*
X56350000Y-67250000D02*
X47558000Y-67250000D01*
X42840000Y-73231580D02*
X42840000Y-73950000D01*
X47558000Y-67250000D02*
X42840000Y-71968000D01*
X42840000Y-71968000D02*
X42840000Y-73231580D01*
X87230000Y-75470000D02*
X87230000Y-75470000D01*
X77814039Y-65992633D02*
X86614001Y-74792595D01*
X73682633Y-65992633D02*
X77814039Y-65992633D01*
X70770000Y-63080000D02*
X73682633Y-65992633D01*
X86614001Y-74792595D02*
X86614001Y-74929987D01*
X86614001Y-74929987D02*
X87122000Y-75437986D01*
X85090000Y-74094792D02*
X85090000Y-75870000D01*
X85090000Y-75870000D02*
X86468001Y-77248001D01*
X77572052Y-66576844D02*
X85090000Y-74094792D01*
X71726844Y-66576844D02*
X77572052Y-66576844D01*
X68230000Y-63080000D02*
X71726844Y-66576844D01*
X86468001Y-77324001D02*
X87122000Y-77978000D01*
X86468001Y-77248001D02*
X86468001Y-77324001D01*
X76334211Y-64824211D02*
X78298013Y-64824211D01*
X83831802Y-70358000D02*
X86403580Y-70358000D01*
X74590000Y-63080000D02*
X76334211Y-64824211D01*
X78298013Y-64824211D02*
X83831802Y-70358000D01*
X86403580Y-70358000D02*
X87122000Y-70358000D01*
X84505789Y-74336779D02*
X84505789Y-77825789D01*
X86468001Y-79788001D02*
X87230000Y-80550000D01*
X71051055Y-67161055D02*
X77330065Y-67161055D01*
X66970000Y-63080000D02*
X71051055Y-67161055D01*
X84505789Y-77825789D02*
X86468001Y-79788001D01*
X77330065Y-67161055D02*
X84505789Y-74336779D01*
X91097367Y-69825961D02*
X91097367Y-71602633D01*
X83712633Y-68392633D02*
X89664039Y-68392633D01*
X89664039Y-68392633D02*
X91097367Y-69825961D01*
X90531999Y-72168001D02*
X89770000Y-72930000D01*
X78400000Y-63080000D02*
X83712633Y-68392633D01*
X91097367Y-71602633D02*
X90531999Y-72168001D01*
X92850000Y-77584000D02*
X89916000Y-80518000D01*
X92850000Y-69100000D02*
X92850000Y-77584000D01*
X90390000Y-66640000D02*
X92850000Y-69100000D01*
X86577452Y-66640000D02*
X90390000Y-66640000D01*
X83470000Y-63080000D02*
X83470000Y-63532548D01*
X83470000Y-63532548D02*
X86577452Y-66640000D01*
X88356844Y-68976844D02*
X89008001Y-69628001D01*
X75850000Y-63080000D02*
X77010000Y-64240000D01*
X78540000Y-64240000D02*
X83276844Y-68976844D01*
X83276844Y-68976844D02*
X88356844Y-68976844D01*
X77010000Y-64240000D02*
X78540000Y-64240000D01*
X89008001Y-69628001D02*
X89770000Y-70390000D01*
X64640000Y-76940000D02*
X64540000Y-76940000D01*
X67005000Y-78815000D02*
X66515000Y-78815000D01*
D35*
X65600000Y-77900000D02*
X64640000Y-76940000D01*
X65600000Y-78400000D02*
X65600000Y-77900000D01*
X66515000Y-78815000D02*
X66015000Y-78815000D01*
X66015000Y-78815000D02*
X65600000Y-78400000D01*
X68135200Y-78815000D02*
X67005000Y-78815000D01*
X64300000Y-73300000D02*
X67500000Y-76500000D01*
X67500000Y-76500000D02*
X68250000Y-76500000D01*
X68250000Y-76500000D02*
X68620000Y-76870000D01*
X62800000Y-73300000D02*
X64300000Y-73300000D01*
X68620000Y-76870000D02*
X68620000Y-78330200D01*
X68620000Y-78330200D02*
X68135200Y-78815000D01*
D41*
X50157900Y-58917034D02*
X50157900Y-58292100D01*
X49074112Y-60324112D02*
X49074112Y-60000822D01*
X50157900Y-58292100D02*
X50450000Y-58000000D01*
X49074112Y-60000822D02*
X50157900Y-58917034D01*
X48589178Y-59515888D02*
X49472100Y-58632966D01*
X48265888Y-59515888D02*
X48589178Y-59515888D01*
X49472100Y-58632966D02*
X49472100Y-58292100D01*
X49472100Y-58292100D02*
X49180000Y-58000000D01*
X72342100Y-58292100D02*
X72050000Y-58000000D01*
X72342100Y-58942966D02*
X72342100Y-58292100D01*
X71505888Y-59455888D02*
X71829178Y-59455888D01*
X71829178Y-59455888D02*
X72342100Y-58942966D01*
X69212900Y-58297100D02*
X69510000Y-58000000D01*
X69212900Y-58855324D02*
X69212900Y-58297100D01*
X67884112Y-60184112D02*
X69212900Y-58855324D01*
X68527100Y-58297100D02*
X68230000Y-58000000D01*
X68527100Y-58571256D02*
X68527100Y-58297100D01*
X67075888Y-59375888D02*
X67722468Y-59375888D01*
X67722468Y-59375888D02*
X68527100Y-58571256D01*
X72314112Y-59940822D02*
X73027900Y-59227034D01*
X72314112Y-60264112D02*
X72314112Y-59940822D01*
X73027900Y-59227034D02*
X73027900Y-58292100D01*
X73027900Y-58292100D02*
X73320000Y-58000000D01*
X71445888Y-54835888D02*
X71445888Y-55154112D01*
X71120000Y-54510000D02*
X71445888Y-54835888D01*
X69495800Y-55699934D02*
X69495800Y-54738600D01*
X69267200Y-55928534D02*
X69495800Y-55699934D01*
X69038600Y-55699934D02*
X69267200Y-55928534D01*
X68230000Y-56280000D02*
X67950000Y-56000000D01*
X68230000Y-56740000D02*
X68230000Y-56280000D01*
X67950000Y-56000000D02*
X67950000Y-55370000D01*
X69495800Y-54738600D02*
X69724400Y-54510000D01*
X67950000Y-55370000D02*
X68810000Y-54510000D01*
X69724400Y-54510000D02*
X71120000Y-54510000D01*
X68810000Y-54510000D02*
X69038600Y-54738600D01*
X69038600Y-54738600D02*
X69038600Y-55699934D01*
X66970000Y-56287452D02*
X66970000Y-56740000D01*
X72005888Y-54345888D02*
X71484209Y-53824209D01*
X71484209Y-53824209D02*
X68525937Y-53824209D01*
X72254112Y-54345888D02*
X72005888Y-54345888D01*
X68525937Y-53824209D02*
X67240000Y-55110146D01*
X67240000Y-55110146D02*
X67240000Y-56017452D01*
X67240000Y-56017452D02*
X66970000Y-56287452D01*
X60664112Y-60024112D02*
X60664112Y-59700822D01*
X61592900Y-58772034D02*
X61592900Y-58297100D01*
X61592900Y-58297100D02*
X61890000Y-58000000D01*
X60664112Y-59700822D02*
X61592900Y-58772034D01*
X60907100Y-58297100D02*
X60610000Y-58000000D01*
X60907100Y-58487966D02*
X60907100Y-58297100D01*
X59855888Y-59215888D02*
X60179178Y-59215888D01*
X60179178Y-59215888D02*
X60907100Y-58487966D01*
X57777900Y-58292100D02*
X58070000Y-58000000D01*
X57777900Y-58600324D02*
X57777900Y-58292100D01*
X56284112Y-60094112D02*
X57777900Y-58600324D01*
X57092100Y-58292100D02*
X56800000Y-58000000D01*
X57092100Y-58316256D02*
X57092100Y-58292100D01*
X55475888Y-59285888D02*
X56122468Y-59285888D01*
X56122468Y-59285888D02*
X57092100Y-58316256D01*
X52982112Y-59770822D02*
X52982112Y-60094112D01*
X53977900Y-58775034D02*
X52982112Y-59770822D01*
X53977900Y-58292100D02*
X53977900Y-58775034D01*
X54270000Y-58000000D02*
X53977900Y-58292100D01*
X52497178Y-59285888D02*
X52173888Y-59285888D01*
X53292100Y-58490966D02*
X52497178Y-59285888D01*
X53000000Y-58000000D02*
X53292100Y-58292100D01*
X53292100Y-58292100D02*
X53292100Y-58490966D01*
D39*
X83470000Y-56740000D02*
X83470000Y-56287452D01*
X83470000Y-56287452D02*
X84880000Y-54877452D01*
D42*
X84880000Y-54877452D02*
X85147452Y-54877452D01*
X86010000Y-56545186D02*
X86020000Y-56555186D01*
X86010000Y-55740000D02*
X86010000Y-56545186D01*
X85147452Y-54877452D02*
X86010000Y-55740000D01*
X71935000Y-78815000D02*
X73573200Y-78815000D01*
X73573200Y-78815000D02*
X75758200Y-81000000D01*
X81000000Y-81031800D02*
X81000000Y-81000000D01*
X82390000Y-82421800D02*
X81000000Y-81031800D01*
X82390000Y-84020000D02*
X82390000Y-82421800D01*
X79000000Y-83481800D02*
X79000000Y-81000000D01*
X78540000Y-83941800D02*
X79000000Y-83481800D01*
X78540000Y-85540000D02*
X78540000Y-83941800D01*
X79000000Y-81000000D02*
X81000000Y-81000000D01*
X75758200Y-81000000D02*
X77000000Y-81000000D01*
X77000000Y-81000000D02*
X79000000Y-81000000D01*
X75000000Y-81758200D02*
X75758200Y-81000000D01*
X75000000Y-83801800D02*
X75000000Y-81758200D01*
X73300000Y-86740000D02*
X73300000Y-85501800D01*
X73300000Y-85501800D02*
X75000000Y-83801800D01*
X77000000Y-83500000D02*
X77000000Y-81000000D01*
X74860000Y-86690000D02*
X74860000Y-85640000D01*
X74860000Y-85640000D02*
X77000000Y-83500000D01*
X83286000Y-81000000D02*
X85852000Y-83566000D01*
X81000000Y-81000000D02*
X83286000Y-81000000D01*
D39*
X99450000Y-55370000D02*
X99450000Y-81906000D01*
X86694954Y-53062498D02*
X97142498Y-53062498D01*
X84880000Y-54877452D02*
X86694954Y-53062498D01*
X96278765Y-83820000D02*
X97536000Y-83820000D01*
X86106000Y-83820000D02*
X96278765Y-83820000D01*
X98424999Y-82931001D02*
X97536000Y-83820000D01*
X97142498Y-53062498D02*
X99450000Y-55370000D01*
X85852000Y-83566000D02*
X86106000Y-83820000D01*
X99450000Y-81906000D02*
X98424999Y-82931001D01*
D33*
X84980000Y-95530000D02*
X97980000Y-95530000D01*
D32*
X69505789Y-73985789D02*
X69505789Y-80055989D01*
X68524000Y-72000000D02*
X68524000Y-73004000D01*
X68524000Y-73004000D02*
X69505789Y-73985789D01*
X70804800Y-81355000D02*
X71935000Y-81355000D01*
X69505789Y-80055989D02*
X70804800Y-81355000D01*
D43*
G36*
X33245789Y-104467301D02*
X34117503Y-105339016D01*
X34117502Y-110768808D01*
X34101829Y-110847602D01*
X34117502Y-110926396D01*
X34117502Y-110926400D01*
X34163925Y-111159784D01*
X34340763Y-111424441D01*
X34407567Y-111469078D01*
X37789627Y-114851139D01*
X37834262Y-114917940D01*
X37901063Y-114962575D01*
X37901064Y-114962576D01*
X38098917Y-115094778D01*
X38146438Y-115104230D01*
X38332302Y-115141201D01*
X38332306Y-115141201D01*
X38411101Y-115156874D01*
X38489896Y-115141201D01*
X49088784Y-115141201D01*
X48946241Y-115485331D01*
X48946241Y-116041093D01*
X49158921Y-116554549D01*
X49551904Y-116947532D01*
X50065360Y-117160212D01*
X50621122Y-117160212D01*
X51134578Y-116947532D01*
X51328298Y-116753812D01*
X52899401Y-116753812D01*
X52899400Y-118839680D01*
X51108531Y-120630550D01*
X51025818Y-120685817D01*
X50806875Y-121013487D01*
X50754900Y-121274785D01*
X50729993Y-121400000D01*
X50749400Y-121497565D01*
X50749400Y-121612163D01*
X50719993Y-121760000D01*
X50739401Y-121857569D01*
X50739400Y-123782435D01*
X50719993Y-123880000D01*
X50739400Y-123977565D01*
X50796875Y-124266512D01*
X51015817Y-124594183D01*
X51098533Y-124649452D01*
X51580548Y-125131467D01*
X51635817Y-125214183D01*
X51963487Y-125433125D01*
X52252434Y-125490600D01*
X52252438Y-125490600D01*
X52349999Y-125510006D01*
X52447560Y-125490600D01*
X53199401Y-125490600D01*
X53199401Y-125568354D01*
X53120000Y-125552560D01*
X51620000Y-125552560D01*
X51372235Y-125601843D01*
X51162191Y-125742191D01*
X51021843Y-125952235D01*
X50972560Y-126200000D01*
X50972560Y-128000000D01*
X51021843Y-128247765D01*
X51162191Y-128457809D01*
X51372235Y-128598157D01*
X51620000Y-128647440D01*
X53120000Y-128647440D01*
X53367765Y-128598157D01*
X53577809Y-128457809D01*
X53718157Y-128247765D01*
X53748818Y-128093620D01*
X53831200Y-128110007D01*
X53928765Y-128090600D01*
X53928766Y-128090600D01*
X54217713Y-128033125D01*
X54545383Y-127814183D01*
X54585000Y-127754892D01*
X54585000Y-128126310D01*
X54681673Y-128359699D01*
X54860302Y-128538327D01*
X55093691Y-128635000D01*
X55684250Y-128635000D01*
X55843000Y-128476250D01*
X55843000Y-127227000D01*
X56097000Y-127227000D01*
X56097000Y-128476250D01*
X56255750Y-128635000D01*
X56846309Y-128635000D01*
X57007929Y-128568055D01*
X57193691Y-128645000D01*
X57784250Y-128645000D01*
X57943000Y-128486250D01*
X57943000Y-127237000D01*
X58197000Y-127237000D01*
X58197000Y-128486250D01*
X58355750Y-128645000D01*
X58946309Y-128645000D01*
X59179698Y-128548327D01*
X59358327Y-128369699D01*
X59455000Y-128136310D01*
X59455000Y-127395750D01*
X59296250Y-127237000D01*
X58197000Y-127237000D01*
X57943000Y-127237000D01*
X57206250Y-127237000D01*
X57196250Y-127227000D01*
X56097000Y-127227000D01*
X55843000Y-127227000D01*
X55823000Y-127227000D01*
X55823000Y-126973000D01*
X55843000Y-126973000D01*
X55843000Y-125723750D01*
X56097000Y-125723750D01*
X56097000Y-126973000D01*
X56833750Y-126973000D01*
X56843750Y-126983000D01*
X57943000Y-126983000D01*
X57943000Y-125733750D01*
X58197000Y-125733750D01*
X58197000Y-126983000D01*
X59296250Y-126983000D01*
X59455000Y-126824250D01*
X59455000Y-126083690D01*
X59358327Y-125850301D01*
X59179698Y-125671673D01*
X58946309Y-125575000D01*
X58355750Y-125575000D01*
X58197000Y-125733750D01*
X57943000Y-125733750D01*
X57784250Y-125575000D01*
X57193691Y-125575000D01*
X57032071Y-125641945D01*
X56846309Y-125565000D01*
X56255750Y-125565000D01*
X56097000Y-125723750D01*
X55843000Y-125723750D01*
X55684250Y-125565000D01*
X55245919Y-125565000D01*
X55320320Y-125490600D01*
X55612434Y-125490600D01*
X55710000Y-125510007D01*
X55807566Y-125490600D01*
X57773635Y-125490600D01*
X57871200Y-125510007D01*
X57968765Y-125490600D01*
X57968766Y-125490600D01*
X58257713Y-125433125D01*
X58585383Y-125214183D01*
X58640652Y-125131467D01*
X58951467Y-124820652D01*
X59034183Y-124765383D01*
X59253125Y-124437713D01*
X59310600Y-124148766D01*
X59310600Y-124148765D01*
X59330007Y-124051201D01*
X59310600Y-123953636D01*
X59310600Y-123926240D01*
X59502809Y-123797809D01*
X59643157Y-123587765D01*
X59692440Y-123340000D01*
X59692440Y-122890000D01*
X59672549Y-122790000D01*
X59692440Y-122690000D01*
X59692440Y-122240000D01*
X59672549Y-122140000D01*
X59692440Y-122040000D01*
X59692440Y-121590000D01*
X59678502Y-121519926D01*
X59680000Y-121516309D01*
X59680000Y-121436250D01*
X59657353Y-121413603D01*
X59643157Y-121342235D01*
X59502809Y-121132191D01*
X59383544Y-121052500D01*
X59521250Y-121052500D01*
X59680000Y-120893750D01*
X59680000Y-120813691D01*
X59583327Y-120580302D01*
X59404699Y-120401673D01*
X59207245Y-120319885D01*
X59275000Y-120156310D01*
X59275000Y-119915750D01*
X59225000Y-119865750D01*
X60375000Y-119865750D01*
X60375000Y-120106310D01*
X60471673Y-120339699D01*
X60650302Y-120518327D01*
X60883691Y-120615000D01*
X61024250Y-120615000D01*
X61183000Y-120456250D01*
X61183000Y-119707000D01*
X60533750Y-119707000D01*
X60375000Y-119865750D01*
X59225000Y-119865750D01*
X59116250Y-119757000D01*
X58467000Y-119757000D01*
X58467000Y-120443750D01*
X58447000Y-120463750D01*
X58447000Y-120942560D01*
X58193000Y-120942560D01*
X58193000Y-120526250D01*
X58213000Y-120506250D01*
X58213000Y-119757000D01*
X58193000Y-119757000D01*
X58193000Y-119503000D01*
X58213000Y-119503000D01*
X58213000Y-118753750D01*
X58467000Y-118753750D01*
X58467000Y-119503000D01*
X59116250Y-119503000D01*
X59275000Y-119344250D01*
X59275000Y-119103690D01*
X59254290Y-119053690D01*
X60375000Y-119053690D01*
X60375000Y-119294250D01*
X60533750Y-119453000D01*
X61183000Y-119453000D01*
X61183000Y-118703750D01*
X61024250Y-118545000D01*
X60883691Y-118545000D01*
X60650302Y-118641673D01*
X60471673Y-118820301D01*
X60375000Y-119053690D01*
X59254290Y-119053690D01*
X59178327Y-118870301D01*
X58999698Y-118691673D01*
X58766309Y-118595000D01*
X58625750Y-118595000D01*
X58467000Y-118753750D01*
X58213000Y-118753750D01*
X58054250Y-118595000D01*
X57913691Y-118595000D01*
X57680302Y-118691673D01*
X57639047Y-118732927D01*
X57487765Y-118631843D01*
X57240000Y-118582560D01*
X56640000Y-118582560D01*
X56392235Y-118631843D01*
X56182191Y-118772191D01*
X56041843Y-118982235D01*
X55992560Y-119230000D01*
X55992560Y-120030000D01*
X56041843Y-120277765D01*
X56182191Y-120487809D01*
X56190701Y-120493495D01*
X56190701Y-120738612D01*
X56110000Y-120722560D01*
X55310000Y-120722560D01*
X55062235Y-120771843D01*
X54852191Y-120912191D01*
X54820313Y-120959900D01*
X54204517Y-120959900D01*
X54057765Y-120861843D01*
X53810000Y-120812560D01*
X53728360Y-120812560D01*
X54521470Y-120019450D01*
X54604183Y-119964183D01*
X54823125Y-119636513D01*
X54880600Y-119347566D01*
X54880600Y-119347565D01*
X54900007Y-119250001D01*
X54880600Y-119152436D01*
X54880600Y-116740600D01*
X55924943Y-116740600D01*
X56118663Y-116934320D01*
X56632119Y-117147000D01*
X57187881Y-117147000D01*
X57701337Y-116934320D01*
X58094320Y-116541337D01*
X58307000Y-116027881D01*
X58307000Y-115472119D01*
X58169930Y-115141201D01*
X61319890Y-115141201D01*
X62457803Y-116279114D01*
X62021460Y-116459853D01*
X61631853Y-116849460D01*
X61421000Y-117358506D01*
X61421000Y-117909494D01*
X61631853Y-118418540D01*
X61773872Y-118560559D01*
X61736309Y-118545000D01*
X61595750Y-118545000D01*
X61437000Y-118703750D01*
X61437000Y-119453000D01*
X61457000Y-119453000D01*
X61457000Y-119707000D01*
X61437000Y-119707000D01*
X61437000Y-120456250D01*
X61507450Y-120526700D01*
X61396843Y-120692235D01*
X61347560Y-120940000D01*
X61347560Y-121390000D01*
X61367451Y-121490000D01*
X61347560Y-121590000D01*
X61347560Y-122040000D01*
X61367451Y-122140000D01*
X61347560Y-122240000D01*
X61347560Y-122690000D01*
X61367451Y-122790000D01*
X61347560Y-122890000D01*
X61347560Y-123340000D01*
X61396843Y-123587765D01*
X61537191Y-123797809D01*
X61729401Y-123926240D01*
X61729401Y-123953631D01*
X61709993Y-124051200D01*
X61780588Y-124406101D01*
X61786876Y-124437713D01*
X62005818Y-124765383D01*
X62088531Y-124820650D01*
X62099348Y-124831467D01*
X62154617Y-124914183D01*
X62482287Y-125133125D01*
X62485347Y-125133734D01*
X62056521Y-125562560D01*
X60920000Y-125562560D01*
X60672235Y-125611843D01*
X60462191Y-125752191D01*
X60321843Y-125962235D01*
X60272560Y-126210000D01*
X60272560Y-128010000D01*
X60321843Y-128257765D01*
X60462191Y-128467809D01*
X60672235Y-128608157D01*
X60920000Y-128657440D01*
X62420000Y-128657440D01*
X62667765Y-128608157D01*
X62877809Y-128467809D01*
X63018157Y-128257765D01*
X63067440Y-128010000D01*
X63067440Y-127359444D01*
X63079452Y-127341467D01*
X65230320Y-125190600D01*
X66802435Y-125190600D01*
X66900000Y-125210007D01*
X66997565Y-125190600D01*
X66997566Y-125190600D01*
X67286513Y-125133125D01*
X67614183Y-124914183D01*
X67669452Y-124831467D01*
X69179478Y-123321442D01*
X69173142Y-129315000D01*
X65593687Y-129315000D01*
X65674147Y-129234540D01*
X65885000Y-128725494D01*
X65885000Y-128174506D01*
X65674147Y-127665460D01*
X65284540Y-127275853D01*
X64775494Y-127065000D01*
X64224506Y-127065000D01*
X63715460Y-127275853D01*
X63325853Y-127665460D01*
X63115000Y-128174506D01*
X63115000Y-128725494D01*
X63325853Y-129234540D01*
X63406313Y-129315000D01*
X32196585Y-129315000D01*
X32190274Y-127109382D01*
X33390223Y-127109382D01*
X33635368Y-127500888D01*
X34679360Y-127927609D01*
X35807181Y-127922330D01*
X36824632Y-127500888D01*
X37069777Y-127109382D01*
X35230000Y-125269605D01*
X33390223Y-127109382D01*
X32190274Y-127109382D01*
X32182919Y-124539360D01*
X32392391Y-124539360D01*
X32397670Y-125667181D01*
X32819112Y-126684632D01*
X33210618Y-126929777D01*
X35050395Y-125090000D01*
X35409605Y-125090000D01*
X37249382Y-126929777D01*
X37640888Y-126684632D01*
X38067609Y-125640640D01*
X38062330Y-124512819D01*
X37640888Y-123495368D01*
X37249382Y-123250223D01*
X35409605Y-125090000D01*
X35050395Y-125090000D01*
X33210618Y-123250223D01*
X32819112Y-123495368D01*
X32392391Y-124539360D01*
X32182919Y-124539360D01*
X32178716Y-123070618D01*
X33390223Y-123070618D01*
X35230000Y-124910395D01*
X37069777Y-123070618D01*
X36824632Y-122679112D01*
X35780640Y-122252391D01*
X34652819Y-122257670D01*
X33635368Y-122679112D01*
X33390223Y-123070618D01*
X32178716Y-123070618D01*
X32127214Y-105074670D01*
X33222543Y-104467176D01*
X33245789Y-104467301D01*
X33245789Y-104467301D01*
G37*
X33245789Y-104467301D02*
X34117503Y-105339016D01*
X34117502Y-110768808D01*
X34101829Y-110847602D01*
X34117502Y-110926396D01*
X34117502Y-110926400D01*
X34163925Y-111159784D01*
X34340763Y-111424441D01*
X34407567Y-111469078D01*
X37789627Y-114851139D01*
X37834262Y-114917940D01*
X37901063Y-114962575D01*
X37901064Y-114962576D01*
X38098917Y-115094778D01*
X38146438Y-115104230D01*
X38332302Y-115141201D01*
X38332306Y-115141201D01*
X38411101Y-115156874D01*
X38489896Y-115141201D01*
X49088784Y-115141201D01*
X48946241Y-115485331D01*
X48946241Y-116041093D01*
X49158921Y-116554549D01*
X49551904Y-116947532D01*
X50065360Y-117160212D01*
X50621122Y-117160212D01*
X51134578Y-116947532D01*
X51328298Y-116753812D01*
X52899401Y-116753812D01*
X52899400Y-118839680D01*
X51108531Y-120630550D01*
X51025818Y-120685817D01*
X50806875Y-121013487D01*
X50754900Y-121274785D01*
X50729993Y-121400000D01*
X50749400Y-121497565D01*
X50749400Y-121612163D01*
X50719993Y-121760000D01*
X50739401Y-121857569D01*
X50739400Y-123782435D01*
X50719993Y-123880000D01*
X50739400Y-123977565D01*
X50796875Y-124266512D01*
X51015817Y-124594183D01*
X51098533Y-124649452D01*
X51580548Y-125131467D01*
X51635817Y-125214183D01*
X51963487Y-125433125D01*
X52252434Y-125490600D01*
X52252438Y-125490600D01*
X52349999Y-125510006D01*
X52447560Y-125490600D01*
X53199401Y-125490600D01*
X53199401Y-125568354D01*
X53120000Y-125552560D01*
X51620000Y-125552560D01*
X51372235Y-125601843D01*
X51162191Y-125742191D01*
X51021843Y-125952235D01*
X50972560Y-126200000D01*
X50972560Y-128000000D01*
X51021843Y-128247765D01*
X51162191Y-128457809D01*
X51372235Y-128598157D01*
X51620000Y-128647440D01*
X53120000Y-128647440D01*
X53367765Y-128598157D01*
X53577809Y-128457809D01*
X53718157Y-128247765D01*
X53748818Y-128093620D01*
X53831200Y-128110007D01*
X53928765Y-128090600D01*
X53928766Y-128090600D01*
X54217713Y-128033125D01*
X54545383Y-127814183D01*
X54585000Y-127754892D01*
X54585000Y-128126310D01*
X54681673Y-128359699D01*
X54860302Y-128538327D01*
X55093691Y-128635000D01*
X55684250Y-128635000D01*
X55843000Y-128476250D01*
X55843000Y-127227000D01*
X56097000Y-127227000D01*
X56097000Y-128476250D01*
X56255750Y-128635000D01*
X56846309Y-128635000D01*
X57007929Y-128568055D01*
X57193691Y-128645000D01*
X57784250Y-128645000D01*
X57943000Y-128486250D01*
X57943000Y-127237000D01*
X58197000Y-127237000D01*
X58197000Y-128486250D01*
X58355750Y-128645000D01*
X58946309Y-128645000D01*
X59179698Y-128548327D01*
X59358327Y-128369699D01*
X59455000Y-128136310D01*
X59455000Y-127395750D01*
X59296250Y-127237000D01*
X58197000Y-127237000D01*
X57943000Y-127237000D01*
X57206250Y-127237000D01*
X57196250Y-127227000D01*
X56097000Y-127227000D01*
X55843000Y-127227000D01*
X55823000Y-127227000D01*
X55823000Y-126973000D01*
X55843000Y-126973000D01*
X55843000Y-125723750D01*
X56097000Y-125723750D01*
X56097000Y-126973000D01*
X56833750Y-126973000D01*
X56843750Y-126983000D01*
X57943000Y-126983000D01*
X57943000Y-125733750D01*
X58197000Y-125733750D01*
X58197000Y-126983000D01*
X59296250Y-126983000D01*
X59455000Y-126824250D01*
X59455000Y-126083690D01*
X59358327Y-125850301D01*
X59179698Y-125671673D01*
X58946309Y-125575000D01*
X58355750Y-125575000D01*
X58197000Y-125733750D01*
X57943000Y-125733750D01*
X57784250Y-125575000D01*
X57193691Y-125575000D01*
X57032071Y-125641945D01*
X56846309Y-125565000D01*
X56255750Y-125565000D01*
X56097000Y-125723750D01*
X55843000Y-125723750D01*
X55684250Y-125565000D01*
X55245919Y-125565000D01*
X55320320Y-125490600D01*
X55612434Y-125490600D01*
X55710000Y-125510007D01*
X55807566Y-125490600D01*
X57773635Y-125490600D01*
X57871200Y-125510007D01*
X57968765Y-125490600D01*
X57968766Y-125490600D01*
X58257713Y-125433125D01*
X58585383Y-125214183D01*
X58640652Y-125131467D01*
X58951467Y-124820652D01*
X59034183Y-124765383D01*
X59253125Y-124437713D01*
X59310600Y-124148766D01*
X59310600Y-124148765D01*
X59330007Y-124051201D01*
X59310600Y-123953636D01*
X59310600Y-123926240D01*
X59502809Y-123797809D01*
X59643157Y-123587765D01*
X59692440Y-123340000D01*
X59692440Y-122890000D01*
X59672549Y-122790000D01*
X59692440Y-122690000D01*
X59692440Y-122240000D01*
X59672549Y-122140000D01*
X59692440Y-122040000D01*
X59692440Y-121590000D01*
X59678502Y-121519926D01*
X59680000Y-121516309D01*
X59680000Y-121436250D01*
X59657353Y-121413603D01*
X59643157Y-121342235D01*
X59502809Y-121132191D01*
X59383544Y-121052500D01*
X59521250Y-121052500D01*
X59680000Y-120893750D01*
X59680000Y-120813691D01*
X59583327Y-120580302D01*
X59404699Y-120401673D01*
X59207245Y-120319885D01*
X59275000Y-120156310D01*
X59275000Y-119915750D01*
X59225000Y-119865750D01*
X60375000Y-119865750D01*
X60375000Y-120106310D01*
X60471673Y-120339699D01*
X60650302Y-120518327D01*
X60883691Y-120615000D01*
X61024250Y-120615000D01*
X61183000Y-120456250D01*
X61183000Y-119707000D01*
X60533750Y-119707000D01*
X60375000Y-119865750D01*
X59225000Y-119865750D01*
X59116250Y-119757000D01*
X58467000Y-119757000D01*
X58467000Y-120443750D01*
X58447000Y-120463750D01*
X58447000Y-120942560D01*
X58193000Y-120942560D01*
X58193000Y-120526250D01*
X58213000Y-120506250D01*
X58213000Y-119757000D01*
X58193000Y-119757000D01*
X58193000Y-119503000D01*
X58213000Y-119503000D01*
X58213000Y-118753750D01*
X58467000Y-118753750D01*
X58467000Y-119503000D01*
X59116250Y-119503000D01*
X59275000Y-119344250D01*
X59275000Y-119103690D01*
X59254290Y-119053690D01*
X60375000Y-119053690D01*
X60375000Y-119294250D01*
X60533750Y-119453000D01*
X61183000Y-119453000D01*
X61183000Y-118703750D01*
X61024250Y-118545000D01*
X60883691Y-118545000D01*
X60650302Y-118641673D01*
X60471673Y-118820301D01*
X60375000Y-119053690D01*
X59254290Y-119053690D01*
X59178327Y-118870301D01*
X58999698Y-118691673D01*
X58766309Y-118595000D01*
X58625750Y-118595000D01*
X58467000Y-118753750D01*
X58213000Y-118753750D01*
X58054250Y-118595000D01*
X57913691Y-118595000D01*
X57680302Y-118691673D01*
X57639047Y-118732927D01*
X57487765Y-118631843D01*
X57240000Y-118582560D01*
X56640000Y-118582560D01*
X56392235Y-118631843D01*
X56182191Y-118772191D01*
X56041843Y-118982235D01*
X55992560Y-119230000D01*
X55992560Y-120030000D01*
X56041843Y-120277765D01*
X56182191Y-120487809D01*
X56190701Y-120493495D01*
X56190701Y-120738612D01*
X56110000Y-120722560D01*
X55310000Y-120722560D01*
X55062235Y-120771843D01*
X54852191Y-120912191D01*
X54820313Y-120959900D01*
X54204517Y-120959900D01*
X54057765Y-120861843D01*
X53810000Y-120812560D01*
X53728360Y-120812560D01*
X54521470Y-120019450D01*
X54604183Y-119964183D01*
X54823125Y-119636513D01*
X54880600Y-119347566D01*
X54880600Y-119347565D01*
X54900007Y-119250001D01*
X54880600Y-119152436D01*
X54880600Y-116740600D01*
X55924943Y-116740600D01*
X56118663Y-116934320D01*
X56632119Y-117147000D01*
X57187881Y-117147000D01*
X57701337Y-116934320D01*
X58094320Y-116541337D01*
X58307000Y-116027881D01*
X58307000Y-115472119D01*
X58169930Y-115141201D01*
X61319890Y-115141201D01*
X62457803Y-116279114D01*
X62021460Y-116459853D01*
X61631853Y-116849460D01*
X61421000Y-117358506D01*
X61421000Y-117909494D01*
X61631853Y-118418540D01*
X61773872Y-118560559D01*
X61736309Y-118545000D01*
X61595750Y-118545000D01*
X61437000Y-118703750D01*
X61437000Y-119453000D01*
X61457000Y-119453000D01*
X61457000Y-119707000D01*
X61437000Y-119707000D01*
X61437000Y-120456250D01*
X61507450Y-120526700D01*
X61396843Y-120692235D01*
X61347560Y-120940000D01*
X61347560Y-121390000D01*
X61367451Y-121490000D01*
X61347560Y-121590000D01*
X61347560Y-122040000D01*
X61367451Y-122140000D01*
X61347560Y-122240000D01*
X61347560Y-122690000D01*
X61367451Y-122790000D01*
X61347560Y-122890000D01*
X61347560Y-123340000D01*
X61396843Y-123587765D01*
X61537191Y-123797809D01*
X61729401Y-123926240D01*
X61729401Y-123953631D01*
X61709993Y-124051200D01*
X61780588Y-124406101D01*
X61786876Y-124437713D01*
X62005818Y-124765383D01*
X62088531Y-124820650D01*
X62099348Y-124831467D01*
X62154617Y-124914183D01*
X62482287Y-125133125D01*
X62485347Y-125133734D01*
X62056521Y-125562560D01*
X60920000Y-125562560D01*
X60672235Y-125611843D01*
X60462191Y-125752191D01*
X60321843Y-125962235D01*
X60272560Y-126210000D01*
X60272560Y-128010000D01*
X60321843Y-128257765D01*
X60462191Y-128467809D01*
X60672235Y-128608157D01*
X60920000Y-128657440D01*
X62420000Y-128657440D01*
X62667765Y-128608157D01*
X62877809Y-128467809D01*
X63018157Y-128257765D01*
X63067440Y-128010000D01*
X63067440Y-127359444D01*
X63079452Y-127341467D01*
X65230320Y-125190600D01*
X66802435Y-125190600D01*
X66900000Y-125210007D01*
X66997565Y-125190600D01*
X66997566Y-125190600D01*
X67286513Y-125133125D01*
X67614183Y-124914183D01*
X67669452Y-124831467D01*
X69179478Y-123321442D01*
X69173142Y-129315000D01*
X65593687Y-129315000D01*
X65674147Y-129234540D01*
X65885000Y-128725494D01*
X65885000Y-128174506D01*
X65674147Y-127665460D01*
X65284540Y-127275853D01*
X64775494Y-127065000D01*
X64224506Y-127065000D01*
X63715460Y-127275853D01*
X63325853Y-127665460D01*
X63115000Y-128174506D01*
X63115000Y-128725494D01*
X63325853Y-129234540D01*
X63406313Y-129315000D01*
X32196585Y-129315000D01*
X32190274Y-127109382D01*
X33390223Y-127109382D01*
X33635368Y-127500888D01*
X34679360Y-127927609D01*
X35807181Y-127922330D01*
X36824632Y-127500888D01*
X37069777Y-127109382D01*
X35230000Y-125269605D01*
X33390223Y-127109382D01*
X32190274Y-127109382D01*
X32182919Y-124539360D01*
X32392391Y-124539360D01*
X32397670Y-125667181D01*
X32819112Y-126684632D01*
X33210618Y-126929777D01*
X35050395Y-125090000D01*
X35409605Y-125090000D01*
X37249382Y-126929777D01*
X37640888Y-126684632D01*
X38067609Y-125640640D01*
X38062330Y-124512819D01*
X37640888Y-123495368D01*
X37249382Y-123250223D01*
X35409605Y-125090000D01*
X35050395Y-125090000D01*
X33210618Y-123250223D01*
X32819112Y-123495368D01*
X32392391Y-124539360D01*
X32182919Y-124539360D01*
X32178716Y-123070618D01*
X33390223Y-123070618D01*
X35230000Y-124910395D01*
X37069777Y-123070618D01*
X36824632Y-122679112D01*
X35780640Y-122252391D01*
X34652819Y-122257670D01*
X33635368Y-122679112D01*
X33390223Y-123070618D01*
X32178716Y-123070618D01*
X32127214Y-105074670D01*
X33222543Y-104467176D01*
X33245789Y-104467301D01*
G36*
X67893201Y-100444121D02*
X67893200Y-121805880D01*
X66489681Y-123209400D01*
X64917566Y-123209400D01*
X64820000Y-123189993D01*
X64819999Y-123189993D01*
X64724027Y-123209083D01*
X64722434Y-123209400D01*
X64092440Y-123209400D01*
X64092440Y-122890000D01*
X64072549Y-122790000D01*
X64092440Y-122690000D01*
X64092440Y-122619347D01*
X64113794Y-122615100D01*
X64113799Y-122615100D01*
X64347183Y-122568677D01*
X64611839Y-122391839D01*
X64656476Y-122325035D01*
X65310040Y-121671472D01*
X65376839Y-121626839D01*
X65421472Y-121560041D01*
X65421475Y-121560038D01*
X65553676Y-121362184D01*
X65553677Y-121362183D01*
X65600100Y-121128799D01*
X65600100Y-121128795D01*
X65615773Y-121050001D01*
X65600100Y-120971207D01*
X65600100Y-117568594D01*
X65615773Y-117489800D01*
X65600100Y-117411006D01*
X65600100Y-117411001D01*
X65553677Y-117177617D01*
X65376839Y-116912961D01*
X65310038Y-116868326D01*
X62272777Y-113831066D01*
X62228140Y-113764262D01*
X61963484Y-113587424D01*
X61730100Y-113541001D01*
X61730095Y-113541001D01*
X61651301Y-113525328D01*
X61572507Y-113541001D01*
X38742513Y-113541001D01*
X35717702Y-110516191D01*
X35717702Y-105086395D01*
X35733375Y-105007601D01*
X35717702Y-104928807D01*
X35717702Y-104928803D01*
X35671279Y-104695419D01*
X35622379Y-104622235D01*
X35539077Y-104497564D01*
X35539074Y-104497561D01*
X35527028Y-104479533D01*
X36919319Y-104486998D01*
X36967971Y-104477592D01*
X37009320Y-104450283D01*
X37037070Y-104409229D01*
X37046988Y-104358260D01*
X37044761Y-104195680D01*
X42046362Y-109197282D01*
X42101629Y-109279995D01*
X42429299Y-109498937D01*
X42718246Y-109556412D01*
X42815811Y-109575819D01*
X42913376Y-109556412D01*
X49494293Y-109556412D01*
X49719348Y-109781467D01*
X49774617Y-109864183D01*
X49857332Y-109919452D01*
X52119340Y-112181460D01*
X52174607Y-112264173D01*
X52502277Y-112483115D01*
X52888790Y-112559997D01*
X52986356Y-112540590D01*
X54331980Y-112540590D01*
X54525700Y-112734310D01*
X55039156Y-112946990D01*
X55594918Y-112946990D01*
X56108374Y-112734310D01*
X56501357Y-112341327D01*
X56714037Y-111827871D01*
X56714037Y-111272109D01*
X56501357Y-110758653D01*
X56427295Y-110684591D01*
X56653054Y-110591079D01*
X56660302Y-110598327D01*
X56893691Y-110695000D01*
X57484250Y-110695000D01*
X57643000Y-110536250D01*
X57643000Y-109287000D01*
X57897000Y-109287000D01*
X57897000Y-110536250D01*
X58055750Y-110695000D01*
X58646309Y-110695000D01*
X58879698Y-110598327D01*
X59058327Y-110419699D01*
X59155000Y-110186310D01*
X59155000Y-109445750D01*
X58996250Y-109287000D01*
X57897000Y-109287000D01*
X57643000Y-109287000D01*
X56786250Y-109287000D01*
X56776250Y-109277000D01*
X55677000Y-109277000D01*
X55677000Y-109297000D01*
X55423000Y-109297000D01*
X55423000Y-109277000D01*
X54323750Y-109277000D01*
X54165000Y-109435750D01*
X54165000Y-110176310D01*
X54261673Y-110409699D01*
X54371672Y-110519698D01*
X54331980Y-110559390D01*
X53299110Y-110559390D01*
X53193746Y-110454026D01*
X53298157Y-110297765D01*
X53347440Y-110050000D01*
X53347440Y-108250000D01*
X53322316Y-108123690D01*
X54165000Y-108123690D01*
X54165000Y-108864250D01*
X54323750Y-109023000D01*
X55423000Y-109023000D01*
X55423000Y-107773750D01*
X55264250Y-107615000D01*
X54673691Y-107615000D01*
X54440302Y-107711673D01*
X54261673Y-107890301D01*
X54165000Y-108123690D01*
X53322316Y-108123690D01*
X53298157Y-108002235D01*
X53157809Y-107792191D01*
X52947765Y-107651843D01*
X52700000Y-107602560D01*
X51993360Y-107602560D01*
X52209012Y-107386908D01*
X52300000Y-107405007D01*
X52397566Y-107385600D01*
X52686513Y-107328125D01*
X52777335Y-107267440D01*
X53025000Y-107267440D01*
X53272765Y-107218157D01*
X53482809Y-107077809D01*
X53623157Y-106867765D01*
X53672440Y-106620000D01*
X53672440Y-106170000D01*
X53652549Y-106070000D01*
X53672440Y-105970000D01*
X53672440Y-105520000D01*
X53652549Y-105420000D01*
X53672440Y-105320000D01*
X53672440Y-104870000D01*
X53658502Y-104799926D01*
X53660000Y-104796309D01*
X53660000Y-104716250D01*
X53637353Y-104693603D01*
X53623157Y-104622235D01*
X53482809Y-104412191D01*
X53363544Y-104332500D01*
X53501250Y-104332500D01*
X53660000Y-104173750D01*
X53660000Y-104093691D01*
X53563327Y-103860302D01*
X53384699Y-103681673D01*
X53151310Y-103585000D01*
X52585750Y-103585000D01*
X52427000Y-103743750D01*
X52427000Y-104222560D01*
X52173000Y-104222560D01*
X52173000Y-103743750D01*
X52014250Y-103585000D01*
X51448690Y-103585000D01*
X51215301Y-103681673D01*
X51036673Y-103860302D01*
X50940000Y-104093691D01*
X50940000Y-104173750D01*
X51098750Y-104332500D01*
X51236456Y-104332500D01*
X51117191Y-104412191D01*
X50976843Y-104622235D01*
X50962647Y-104693603D01*
X50940000Y-104716250D01*
X50940000Y-104796309D01*
X50941498Y-104799926D01*
X50927560Y-104870000D01*
X50927560Y-105320000D01*
X50947451Y-105420000D01*
X50927560Y-105520000D01*
X50927560Y-105866520D01*
X49262120Y-107531961D01*
X49197390Y-107575212D01*
X46446299Y-107575212D01*
X51175761Y-102845750D01*
X54365000Y-102845750D01*
X54365000Y-103086310D01*
X54461673Y-103319699D01*
X54640302Y-103498327D01*
X54873691Y-103595000D01*
X55014250Y-103595000D01*
X55173000Y-103436250D01*
X55173000Y-102687000D01*
X54523750Y-102687000D01*
X54365000Y-102845750D01*
X51175761Y-102845750D01*
X51987821Y-102033690D01*
X54365000Y-102033690D01*
X54365000Y-102274250D01*
X54523750Y-102433000D01*
X55173000Y-102433000D01*
X55173000Y-101683750D01*
X55014250Y-101525000D01*
X54873691Y-101525000D01*
X54640302Y-101621673D01*
X54461673Y-101800301D01*
X54365000Y-102033690D01*
X51987821Y-102033690D01*
X52711412Y-101310100D01*
X55948589Y-101310100D01*
X56192352Y-101553863D01*
X56152235Y-101561843D01*
X56000953Y-101662927D01*
X55959698Y-101621673D01*
X55726309Y-101525000D01*
X55585750Y-101525000D01*
X55427000Y-101683750D01*
X55427000Y-102433000D01*
X55447000Y-102433000D01*
X55447000Y-102687000D01*
X55427000Y-102687000D01*
X55427000Y-103436250D01*
X55585750Y-103595000D01*
X55726309Y-103595000D01*
X55899901Y-103523096D01*
X55899901Y-103587498D01*
X55727235Y-103621843D01*
X55517191Y-103762191D01*
X55376843Y-103972235D01*
X55327560Y-104220000D01*
X55327560Y-104670000D01*
X55347451Y-104770000D01*
X55327560Y-104870000D01*
X55327560Y-105320000D01*
X55347451Y-105420000D01*
X55327560Y-105520000D01*
X55327560Y-105970000D01*
X55347451Y-106070000D01*
X55327560Y-106170000D01*
X55327560Y-106620000D01*
X55376843Y-106867765D01*
X55517191Y-107077809D01*
X55727235Y-107218157D01*
X55781924Y-107229035D01*
X55985818Y-107534183D01*
X56068531Y-107589450D01*
X56090548Y-107611467D01*
X56092909Y-107615000D01*
X55835750Y-107615000D01*
X55677000Y-107773750D01*
X55677000Y-109023000D01*
X56533750Y-109023000D01*
X56543750Y-109033000D01*
X57643000Y-109033000D01*
X57643000Y-109013000D01*
X57897000Y-109013000D01*
X57897000Y-109033000D01*
X58996250Y-109033000D01*
X59155000Y-108874250D01*
X59155000Y-108133690D01*
X59087446Y-107970600D01*
X60049663Y-107970600D01*
X60021843Y-108012235D01*
X59972560Y-108260000D01*
X59972560Y-110060000D01*
X60021843Y-110307765D01*
X60162191Y-110517809D01*
X60372235Y-110658157D01*
X60620000Y-110707440D01*
X62120000Y-110707440D01*
X62367765Y-110658157D01*
X62577809Y-110517809D01*
X62718157Y-110307765D01*
X62767440Y-110060000D01*
X62767440Y-108260000D01*
X62718157Y-108012235D01*
X62690337Y-107970600D01*
X63652435Y-107970600D01*
X63750000Y-107990007D01*
X63847565Y-107970600D01*
X63847566Y-107970600D01*
X64136513Y-107913125D01*
X64464183Y-107694183D01*
X64519452Y-107611467D01*
X66531470Y-105599450D01*
X66614183Y-105544183D01*
X66833125Y-105216513D01*
X66890600Y-104927566D01*
X66890600Y-104927565D01*
X66910007Y-104830001D01*
X66890600Y-104732436D01*
X66890600Y-99441520D01*
X67893201Y-100444121D01*
X67893201Y-100444121D01*
G37*
X67893201Y-100444121D02*
X67893200Y-121805880D01*
X66489681Y-123209400D01*
X64917566Y-123209400D01*
X64820000Y-123189993D01*
X64819999Y-123189993D01*
X64724027Y-123209083D01*
X64722434Y-123209400D01*
X64092440Y-123209400D01*
X64092440Y-122890000D01*
X64072549Y-122790000D01*
X64092440Y-122690000D01*
X64092440Y-122619347D01*
X64113794Y-122615100D01*
X64113799Y-122615100D01*
X64347183Y-122568677D01*
X64611839Y-122391839D01*
X64656476Y-122325035D01*
X65310040Y-121671472D01*
X65376839Y-121626839D01*
X65421472Y-121560041D01*
X65421475Y-121560038D01*
X65553676Y-121362184D01*
X65553677Y-121362183D01*
X65600100Y-121128799D01*
X65600100Y-121128795D01*
X65615773Y-121050001D01*
X65600100Y-120971207D01*
X65600100Y-117568594D01*
X65615773Y-117489800D01*
X65600100Y-117411006D01*
X65600100Y-117411001D01*
X65553677Y-117177617D01*
X65376839Y-116912961D01*
X65310038Y-116868326D01*
X62272777Y-113831066D01*
X62228140Y-113764262D01*
X61963484Y-113587424D01*
X61730100Y-113541001D01*
X61730095Y-113541001D01*
X61651301Y-113525328D01*
X61572507Y-113541001D01*
X38742513Y-113541001D01*
X35717702Y-110516191D01*
X35717702Y-105086395D01*
X35733375Y-105007601D01*
X35717702Y-104928807D01*
X35717702Y-104928803D01*
X35671279Y-104695419D01*
X35622379Y-104622235D01*
X35539077Y-104497564D01*
X35539074Y-104497561D01*
X35527028Y-104479533D01*
X36919319Y-104486998D01*
X36967971Y-104477592D01*
X37009320Y-104450283D01*
X37037070Y-104409229D01*
X37046988Y-104358260D01*
X37044761Y-104195680D01*
X42046362Y-109197282D01*
X42101629Y-109279995D01*
X42429299Y-109498937D01*
X42718246Y-109556412D01*
X42815811Y-109575819D01*
X42913376Y-109556412D01*
X49494293Y-109556412D01*
X49719348Y-109781467D01*
X49774617Y-109864183D01*
X49857332Y-109919452D01*
X52119340Y-112181460D01*
X52174607Y-112264173D01*
X52502277Y-112483115D01*
X52888790Y-112559997D01*
X52986356Y-112540590D01*
X54331980Y-112540590D01*
X54525700Y-112734310D01*
X55039156Y-112946990D01*
X55594918Y-112946990D01*
X56108374Y-112734310D01*
X56501357Y-112341327D01*
X56714037Y-111827871D01*
X56714037Y-111272109D01*
X56501357Y-110758653D01*
X56427295Y-110684591D01*
X56653054Y-110591079D01*
X56660302Y-110598327D01*
X56893691Y-110695000D01*
X57484250Y-110695000D01*
X57643000Y-110536250D01*
X57643000Y-109287000D01*
X57897000Y-109287000D01*
X57897000Y-110536250D01*
X58055750Y-110695000D01*
X58646309Y-110695000D01*
X58879698Y-110598327D01*
X59058327Y-110419699D01*
X59155000Y-110186310D01*
X59155000Y-109445750D01*
X58996250Y-109287000D01*
X57897000Y-109287000D01*
X57643000Y-109287000D01*
X56786250Y-109287000D01*
X56776250Y-109277000D01*
X55677000Y-109277000D01*
X55677000Y-109297000D01*
X55423000Y-109297000D01*
X55423000Y-109277000D01*
X54323750Y-109277000D01*
X54165000Y-109435750D01*
X54165000Y-110176310D01*
X54261673Y-110409699D01*
X54371672Y-110519698D01*
X54331980Y-110559390D01*
X53299110Y-110559390D01*
X53193746Y-110454026D01*
X53298157Y-110297765D01*
X53347440Y-110050000D01*
X53347440Y-108250000D01*
X53322316Y-108123690D01*
X54165000Y-108123690D01*
X54165000Y-108864250D01*
X54323750Y-109023000D01*
X55423000Y-109023000D01*
X55423000Y-107773750D01*
X55264250Y-107615000D01*
X54673691Y-107615000D01*
X54440302Y-107711673D01*
X54261673Y-107890301D01*
X54165000Y-108123690D01*
X53322316Y-108123690D01*
X53298157Y-108002235D01*
X53157809Y-107792191D01*
X52947765Y-107651843D01*
X52700000Y-107602560D01*
X51993360Y-107602560D01*
X52209012Y-107386908D01*
X52300000Y-107405007D01*
X52397566Y-107385600D01*
X52686513Y-107328125D01*
X52777335Y-107267440D01*
X53025000Y-107267440D01*
X53272765Y-107218157D01*
X53482809Y-107077809D01*
X53623157Y-106867765D01*
X53672440Y-106620000D01*
X53672440Y-106170000D01*
X53652549Y-106070000D01*
X53672440Y-105970000D01*
X53672440Y-105520000D01*
X53652549Y-105420000D01*
X53672440Y-105320000D01*
X53672440Y-104870000D01*
X53658502Y-104799926D01*
X53660000Y-104796309D01*
X53660000Y-104716250D01*
X53637353Y-104693603D01*
X53623157Y-104622235D01*
X53482809Y-104412191D01*
X53363544Y-104332500D01*
X53501250Y-104332500D01*
X53660000Y-104173750D01*
X53660000Y-104093691D01*
X53563327Y-103860302D01*
X53384699Y-103681673D01*
X53151310Y-103585000D01*
X52585750Y-103585000D01*
X52427000Y-103743750D01*
X52427000Y-104222560D01*
X52173000Y-104222560D01*
X52173000Y-103743750D01*
X52014250Y-103585000D01*
X51448690Y-103585000D01*
X51215301Y-103681673D01*
X51036673Y-103860302D01*
X50940000Y-104093691D01*
X50940000Y-104173750D01*
X51098750Y-104332500D01*
X51236456Y-104332500D01*
X51117191Y-104412191D01*
X50976843Y-104622235D01*
X50962647Y-104693603D01*
X50940000Y-104716250D01*
X50940000Y-104796309D01*
X50941498Y-104799926D01*
X50927560Y-104870000D01*
X50927560Y-105320000D01*
X50947451Y-105420000D01*
X50927560Y-105520000D01*
X50927560Y-105866520D01*
X49262120Y-107531961D01*
X49197390Y-107575212D01*
X46446299Y-107575212D01*
X51175761Y-102845750D01*
X54365000Y-102845750D01*
X54365000Y-103086310D01*
X54461673Y-103319699D01*
X54640302Y-103498327D01*
X54873691Y-103595000D01*
X55014250Y-103595000D01*
X55173000Y-103436250D01*
X55173000Y-102687000D01*
X54523750Y-102687000D01*
X54365000Y-102845750D01*
X51175761Y-102845750D01*
X51987821Y-102033690D01*
X54365000Y-102033690D01*
X54365000Y-102274250D01*
X54523750Y-102433000D01*
X55173000Y-102433000D01*
X55173000Y-101683750D01*
X55014250Y-101525000D01*
X54873691Y-101525000D01*
X54640302Y-101621673D01*
X54461673Y-101800301D01*
X54365000Y-102033690D01*
X51987821Y-102033690D01*
X52711412Y-101310100D01*
X55948589Y-101310100D01*
X56192352Y-101553863D01*
X56152235Y-101561843D01*
X56000953Y-101662927D01*
X55959698Y-101621673D01*
X55726309Y-101525000D01*
X55585750Y-101525000D01*
X55427000Y-101683750D01*
X55427000Y-102433000D01*
X55447000Y-102433000D01*
X55447000Y-102687000D01*
X55427000Y-102687000D01*
X55427000Y-103436250D01*
X55585750Y-103595000D01*
X55726309Y-103595000D01*
X55899901Y-103523096D01*
X55899901Y-103587498D01*
X55727235Y-103621843D01*
X55517191Y-103762191D01*
X55376843Y-103972235D01*
X55327560Y-104220000D01*
X55327560Y-104670000D01*
X55347451Y-104770000D01*
X55327560Y-104870000D01*
X55327560Y-105320000D01*
X55347451Y-105420000D01*
X55327560Y-105520000D01*
X55327560Y-105970000D01*
X55347451Y-106070000D01*
X55327560Y-106170000D01*
X55327560Y-106620000D01*
X55376843Y-106867765D01*
X55517191Y-107077809D01*
X55727235Y-107218157D01*
X55781924Y-107229035D01*
X55985818Y-107534183D01*
X56068531Y-107589450D01*
X56090548Y-107611467D01*
X56092909Y-107615000D01*
X55835750Y-107615000D01*
X55677000Y-107773750D01*
X55677000Y-109023000D01*
X56533750Y-109023000D01*
X56543750Y-109033000D01*
X57643000Y-109033000D01*
X57643000Y-109013000D01*
X57897000Y-109013000D01*
X57897000Y-109033000D01*
X58996250Y-109033000D01*
X59155000Y-108874250D01*
X59155000Y-108133690D01*
X59087446Y-107970600D01*
X60049663Y-107970600D01*
X60021843Y-108012235D01*
X59972560Y-108260000D01*
X59972560Y-110060000D01*
X60021843Y-110307765D01*
X60162191Y-110517809D01*
X60372235Y-110658157D01*
X60620000Y-110707440D01*
X62120000Y-110707440D01*
X62367765Y-110658157D01*
X62577809Y-110517809D01*
X62718157Y-110307765D01*
X62767440Y-110060000D01*
X62767440Y-108260000D01*
X62718157Y-108012235D01*
X62690337Y-107970600D01*
X63652435Y-107970600D01*
X63750000Y-107990007D01*
X63847565Y-107970600D01*
X63847566Y-107970600D01*
X64136513Y-107913125D01*
X64464183Y-107694183D01*
X64519452Y-107611467D01*
X66531470Y-105599450D01*
X66614183Y-105544183D01*
X66833125Y-105216513D01*
X66890600Y-104927566D01*
X66890600Y-104927565D01*
X66910007Y-104830001D01*
X66890600Y-104732436D01*
X66890600Y-99441520D01*
X67893201Y-100444121D01*
G36*
X42102181Y-89509794D02*
X42001673Y-89610301D01*
X41905000Y-89843690D01*
X41905000Y-90084250D01*
X42063750Y-90243000D01*
X42713000Y-90243000D01*
X42713000Y-90223000D01*
X42967000Y-90223000D01*
X42967000Y-90243000D01*
X42987000Y-90243000D01*
X42987000Y-90497000D01*
X42967000Y-90497000D01*
X42967000Y-91246250D01*
X43125750Y-91405000D01*
X43266309Y-91405000D01*
X43439900Y-91333096D01*
X43439901Y-91517498D01*
X43267235Y-91551843D01*
X43057191Y-91692191D01*
X42916843Y-91902235D01*
X42867560Y-92150000D01*
X42867560Y-92600000D01*
X42887451Y-92700000D01*
X42867560Y-92800000D01*
X42867560Y-93250000D01*
X42887451Y-93350000D01*
X42867560Y-93450000D01*
X42867560Y-93900000D01*
X42887451Y-94000000D01*
X42867560Y-94100000D01*
X42867560Y-94550000D01*
X42916843Y-94797765D01*
X43057191Y-95007809D01*
X43267235Y-95148157D01*
X43406690Y-95175896D01*
X43525817Y-95354183D01*
X43592998Y-95399072D01*
X43592998Y-95483748D01*
X43434250Y-95325000D01*
X42843691Y-95325000D01*
X42610302Y-95421673D01*
X42455165Y-95576809D01*
X42448327Y-95560301D01*
X42269698Y-95381673D01*
X42036309Y-95285000D01*
X41445750Y-95285000D01*
X41287000Y-95443750D01*
X41287000Y-96693000D01*
X42386250Y-96693000D01*
X42420000Y-96659250D01*
X42493750Y-96733000D01*
X43593000Y-96733000D01*
X43593000Y-96713000D01*
X43847000Y-96713000D01*
X43847000Y-96733000D01*
X44946250Y-96733000D01*
X45105000Y-96574250D01*
X45105000Y-95940600D01*
X45311617Y-95940600D01*
X45495698Y-98209400D01*
X44918625Y-98209400D01*
X45008327Y-98119699D01*
X45105000Y-97886310D01*
X45105000Y-97145750D01*
X44946250Y-96987000D01*
X43847000Y-96987000D01*
X43847000Y-97007000D01*
X43593000Y-97007000D01*
X43593000Y-96987000D01*
X42493750Y-96987000D01*
X42460000Y-97020750D01*
X42386250Y-96947000D01*
X41287000Y-96947000D01*
X41287000Y-96967000D01*
X41033000Y-96967000D01*
X41033000Y-96947000D01*
X39933750Y-96947000D01*
X39775000Y-97105750D01*
X39775000Y-97784080D01*
X38957440Y-96966521D01*
X38957440Y-95920000D01*
X38932316Y-95793690D01*
X39775000Y-95793690D01*
X39775000Y-96534250D01*
X39933750Y-96693000D01*
X41033000Y-96693000D01*
X41033000Y-95443750D01*
X40874250Y-95285000D01*
X40283691Y-95285000D01*
X40050302Y-95381673D01*
X39871673Y-95560301D01*
X39775000Y-95793690D01*
X38932316Y-95793690D01*
X38908157Y-95672235D01*
X38767809Y-95462191D01*
X38654464Y-95386456D01*
X38725320Y-95315600D01*
X39742434Y-95315600D01*
X39840000Y-95335007D01*
X39937566Y-95315600D01*
X40226513Y-95258125D01*
X40317335Y-95197440D01*
X40565000Y-95197440D01*
X40812765Y-95148157D01*
X41022809Y-95007809D01*
X41163157Y-94797765D01*
X41212440Y-94550000D01*
X41212440Y-94100000D01*
X41192549Y-94000000D01*
X41212440Y-93900000D01*
X41212440Y-93450000D01*
X41192549Y-93350000D01*
X41212440Y-93250000D01*
X41212440Y-92800000D01*
X41198502Y-92729926D01*
X41200000Y-92726309D01*
X41200000Y-92646250D01*
X41177353Y-92623603D01*
X41163157Y-92552235D01*
X41022809Y-92342191D01*
X40903544Y-92262500D01*
X41041250Y-92262500D01*
X41200000Y-92103750D01*
X41200000Y-92023691D01*
X41103327Y-91790302D01*
X40924699Y-91611673D01*
X40691310Y-91515000D01*
X40125750Y-91515000D01*
X39967000Y-91673750D01*
X39967000Y-92152560D01*
X39713000Y-92152560D01*
X39713000Y-91673750D01*
X39554250Y-91515000D01*
X38988690Y-91515000D01*
X38755301Y-91611673D01*
X38576673Y-91790302D01*
X38480000Y-92023691D01*
X38480000Y-92103750D01*
X38638750Y-92262500D01*
X38776456Y-92262500D01*
X38657191Y-92342191D01*
X38516843Y-92552235D01*
X38502647Y-92623603D01*
X38480000Y-92646250D01*
X38480000Y-92726309D01*
X38481498Y-92729926D01*
X38467560Y-92800000D01*
X38467560Y-93250000D01*
X38484348Y-93334400D01*
X38412564Y-93334400D01*
X38314999Y-93314993D01*
X38217434Y-93334400D01*
X37928487Y-93391875D01*
X37600817Y-93610817D01*
X37545550Y-93693531D01*
X36931201Y-94307880D01*
X36931201Y-91950563D01*
X38257160Y-90655750D01*
X41905000Y-90655750D01*
X41905000Y-90896310D01*
X42001673Y-91129699D01*
X42180302Y-91308327D01*
X42413691Y-91405000D01*
X42554250Y-91405000D01*
X42713000Y-91246250D01*
X42713000Y-90497000D01*
X42063750Y-90497000D01*
X41905000Y-90655750D01*
X38257160Y-90655750D01*
X39773909Y-89174630D01*
X42102181Y-89509794D01*
X42102181Y-89509794D01*
G37*
X42102181Y-89509794D02*
X42001673Y-89610301D01*
X41905000Y-89843690D01*
X41905000Y-90084250D01*
X42063750Y-90243000D01*
X42713000Y-90243000D01*
X42713000Y-90223000D01*
X42967000Y-90223000D01*
X42967000Y-90243000D01*
X42987000Y-90243000D01*
X42987000Y-90497000D01*
X42967000Y-90497000D01*
X42967000Y-91246250D01*
X43125750Y-91405000D01*
X43266309Y-91405000D01*
X43439900Y-91333096D01*
X43439901Y-91517498D01*
X43267235Y-91551843D01*
X43057191Y-91692191D01*
X42916843Y-91902235D01*
X42867560Y-92150000D01*
X42867560Y-92600000D01*
X42887451Y-92700000D01*
X42867560Y-92800000D01*
X42867560Y-93250000D01*
X42887451Y-93350000D01*
X42867560Y-93450000D01*
X42867560Y-93900000D01*
X42887451Y-94000000D01*
X42867560Y-94100000D01*
X42867560Y-94550000D01*
X42916843Y-94797765D01*
X43057191Y-95007809D01*
X43267235Y-95148157D01*
X43406690Y-95175896D01*
X43525817Y-95354183D01*
X43592998Y-95399072D01*
X43592998Y-95483748D01*
X43434250Y-95325000D01*
X42843691Y-95325000D01*
X42610302Y-95421673D01*
X42455165Y-95576809D01*
X42448327Y-95560301D01*
X42269698Y-95381673D01*
X42036309Y-95285000D01*
X41445750Y-95285000D01*
X41287000Y-95443750D01*
X41287000Y-96693000D01*
X42386250Y-96693000D01*
X42420000Y-96659250D01*
X42493750Y-96733000D01*
X43593000Y-96733000D01*
X43593000Y-96713000D01*
X43847000Y-96713000D01*
X43847000Y-96733000D01*
X44946250Y-96733000D01*
X45105000Y-96574250D01*
X45105000Y-95940600D01*
X45311617Y-95940600D01*
X45495698Y-98209400D01*
X44918625Y-98209400D01*
X45008327Y-98119699D01*
X45105000Y-97886310D01*
X45105000Y-97145750D01*
X44946250Y-96987000D01*
X43847000Y-96987000D01*
X43847000Y-97007000D01*
X43593000Y-97007000D01*
X43593000Y-96987000D01*
X42493750Y-96987000D01*
X42460000Y-97020750D01*
X42386250Y-96947000D01*
X41287000Y-96947000D01*
X41287000Y-96967000D01*
X41033000Y-96967000D01*
X41033000Y-96947000D01*
X39933750Y-96947000D01*
X39775000Y-97105750D01*
X39775000Y-97784080D01*
X38957440Y-96966521D01*
X38957440Y-95920000D01*
X38932316Y-95793690D01*
X39775000Y-95793690D01*
X39775000Y-96534250D01*
X39933750Y-96693000D01*
X41033000Y-96693000D01*
X41033000Y-95443750D01*
X40874250Y-95285000D01*
X40283691Y-95285000D01*
X40050302Y-95381673D01*
X39871673Y-95560301D01*
X39775000Y-95793690D01*
X38932316Y-95793690D01*
X38908157Y-95672235D01*
X38767809Y-95462191D01*
X38654464Y-95386456D01*
X38725320Y-95315600D01*
X39742434Y-95315600D01*
X39840000Y-95335007D01*
X39937566Y-95315600D01*
X40226513Y-95258125D01*
X40317335Y-95197440D01*
X40565000Y-95197440D01*
X40812765Y-95148157D01*
X41022809Y-95007809D01*
X41163157Y-94797765D01*
X41212440Y-94550000D01*
X41212440Y-94100000D01*
X41192549Y-94000000D01*
X41212440Y-93900000D01*
X41212440Y-93450000D01*
X41192549Y-93350000D01*
X41212440Y-93250000D01*
X41212440Y-92800000D01*
X41198502Y-92729926D01*
X41200000Y-92726309D01*
X41200000Y-92646250D01*
X41177353Y-92623603D01*
X41163157Y-92552235D01*
X41022809Y-92342191D01*
X40903544Y-92262500D01*
X41041250Y-92262500D01*
X41200000Y-92103750D01*
X41200000Y-92023691D01*
X41103327Y-91790302D01*
X40924699Y-91611673D01*
X40691310Y-91515000D01*
X40125750Y-91515000D01*
X39967000Y-91673750D01*
X39967000Y-92152560D01*
X39713000Y-92152560D01*
X39713000Y-91673750D01*
X39554250Y-91515000D01*
X38988690Y-91515000D01*
X38755301Y-91611673D01*
X38576673Y-91790302D01*
X38480000Y-92023691D01*
X38480000Y-92103750D01*
X38638750Y-92262500D01*
X38776456Y-92262500D01*
X38657191Y-92342191D01*
X38516843Y-92552235D01*
X38502647Y-92623603D01*
X38480000Y-92646250D01*
X38480000Y-92726309D01*
X38481498Y-92729926D01*
X38467560Y-92800000D01*
X38467560Y-93250000D01*
X38484348Y-93334400D01*
X38412564Y-93334400D01*
X38314999Y-93314993D01*
X38217434Y-93334400D01*
X37928487Y-93391875D01*
X37600817Y-93610817D01*
X37545550Y-93693531D01*
X36931201Y-94307880D01*
X36931201Y-91950563D01*
X38257160Y-90655750D01*
X41905000Y-90655750D01*
X41905000Y-90896310D01*
X42001673Y-91129699D01*
X42180302Y-91308327D01*
X42413691Y-91405000D01*
X42554250Y-91405000D01*
X42713000Y-91246250D01*
X42713000Y-90497000D01*
X42063750Y-90497000D01*
X41905000Y-90655750D01*
X38257160Y-90655750D01*
X39773909Y-89174630D01*
X42102181Y-89509794D01*
G36*
X62313734Y-75467016D02*
X62245000Y-75535750D01*
X62245000Y-75776310D01*
X62341673Y-76009699D01*
X62520302Y-76188327D01*
X62753691Y-76285000D01*
X62894250Y-76285000D01*
X63021836Y-76157414D01*
X63052998Y-76187797D01*
X63052998Y-76285000D01*
X63152693Y-76285000D01*
X63496497Y-76620209D01*
X63492560Y-76640000D01*
X63492560Y-77240000D01*
X63541843Y-77487765D01*
X63642927Y-77639047D01*
X63601673Y-77680302D01*
X63505000Y-77913691D01*
X63505000Y-78054250D01*
X63663750Y-78213000D01*
X64413000Y-78213000D01*
X64413000Y-78193000D01*
X64635764Y-78193000D01*
X64687000Y-78244236D01*
X64687000Y-78467000D01*
X64667000Y-78467000D01*
X64667000Y-79116250D01*
X64725750Y-79175000D01*
X64717000Y-79183750D01*
X64717000Y-79833000D01*
X65466250Y-79833000D01*
X65570000Y-79729250D01*
X65570000Y-79799250D01*
X65728750Y-79958000D01*
X66878000Y-79958000D01*
X66878000Y-79938000D01*
X66899359Y-79938000D01*
X67152000Y-80184325D01*
X67152000Y-80212000D01*
X67132000Y-80212000D01*
X67132000Y-80232000D01*
X66878000Y-80232000D01*
X66878000Y-80212000D01*
X65728750Y-80212000D01*
X65625000Y-80315750D01*
X65625000Y-80245750D01*
X65466250Y-80087000D01*
X64717000Y-80087000D01*
X64717000Y-80107000D01*
X64463000Y-80107000D01*
X64463000Y-80087000D01*
X63713750Y-80087000D01*
X63555000Y-80245750D01*
X63555000Y-80386309D01*
X63651673Y-80619698D01*
X63692927Y-80660953D01*
X63591843Y-80812235D01*
X63542560Y-81060000D01*
X63542560Y-81660000D01*
X63591843Y-81907765D01*
X63701000Y-82071129D01*
X63701001Y-82822440D01*
X63701000Y-82822445D01*
X63701001Y-83688870D01*
X63591843Y-83852235D01*
X63542560Y-84100000D01*
X63542560Y-84700000D01*
X63591843Y-84947765D01*
X63692927Y-85099047D01*
X63651673Y-85140302D01*
X63555000Y-85373691D01*
X63555000Y-85514250D01*
X63713750Y-85673000D01*
X64463000Y-85673000D01*
X64463000Y-85653000D01*
X64717000Y-85653000D01*
X64717000Y-85673000D01*
X65466250Y-85673000D01*
X65625000Y-85514250D01*
X65625000Y-85373691D01*
X65528327Y-85140302D01*
X65487073Y-85099047D01*
X65588157Y-84947765D01*
X65637440Y-84700000D01*
X65637440Y-84687002D01*
X65786348Y-84687002D01*
X65627600Y-84845750D01*
X65627600Y-85791309D01*
X65724273Y-86024698D01*
X65902901Y-86203327D01*
X66136290Y-86300000D01*
X67067050Y-86300000D01*
X67225800Y-86141250D01*
X67225800Y-84687000D01*
X67205800Y-84687000D01*
X67205800Y-84433000D01*
X67225800Y-84433000D01*
X67225800Y-82978750D01*
X67067050Y-82820000D01*
X66136290Y-82820000D01*
X65902901Y-82916673D01*
X65724273Y-83095302D01*
X65627600Y-83328691D01*
X65627600Y-84050530D01*
X65588157Y-83852235D01*
X65479000Y-83688871D01*
X65479000Y-82249000D01*
X65876184Y-82249000D01*
X65957235Y-82303157D01*
X66205000Y-82352440D01*
X67805000Y-82352440D01*
X67863724Y-82340759D01*
X68311000Y-82788036D01*
X68311000Y-82820000D01*
X67638550Y-82820000D01*
X67479800Y-82978750D01*
X67479800Y-84433000D01*
X67499800Y-84433000D01*
X67499800Y-84687000D01*
X67479800Y-84687000D01*
X67479800Y-86141250D01*
X67638550Y-86300000D01*
X68353259Y-86300000D01*
X68362582Y-86346870D01*
X68559068Y-86640933D01*
X68633294Y-86690529D01*
X69217582Y-87274818D01*
X69212231Y-92336849D01*
X68333772Y-93215309D01*
X68153418Y-93335818D01*
X68032911Y-93516169D01*
X65900000Y-95649081D01*
X64569452Y-94318533D01*
X64514183Y-94235817D01*
X64186513Y-94016875D01*
X63897566Y-93959400D01*
X63897565Y-93959400D01*
X63800000Y-93939993D01*
X63702435Y-93959400D01*
X61585427Y-93959400D01*
X61553442Y-88174506D01*
X63615000Y-88174506D01*
X63615000Y-88725494D01*
X63825853Y-89234540D01*
X64215460Y-89624147D01*
X64724506Y-89835000D01*
X65275494Y-89835000D01*
X65784540Y-89624147D01*
X66174147Y-89234540D01*
X66385000Y-88725494D01*
X66385000Y-88174506D01*
X66174147Y-87665460D01*
X65784540Y-87275853D01*
X65275494Y-87065000D01*
X64724506Y-87065000D01*
X64215460Y-87275853D01*
X63825853Y-87665460D01*
X63615000Y-88174506D01*
X61553442Y-88174506D01*
X61541892Y-86085750D01*
X63555000Y-86085750D01*
X63555000Y-86226309D01*
X63651673Y-86459698D01*
X63830301Y-86638327D01*
X64063690Y-86735000D01*
X64304250Y-86735000D01*
X64463000Y-86576250D01*
X64463000Y-85927000D01*
X64717000Y-85927000D01*
X64717000Y-86576250D01*
X64875750Y-86735000D01*
X65116310Y-86735000D01*
X65349699Y-86638327D01*
X65528327Y-86459698D01*
X65625000Y-86226309D01*
X65625000Y-86085750D01*
X65466250Y-85927000D01*
X64717000Y-85927000D01*
X64463000Y-85927000D01*
X63713750Y-85927000D01*
X63555000Y-86085750D01*
X61541892Y-86085750D01*
X61500644Y-78625750D01*
X63505000Y-78625750D01*
X63505000Y-78766309D01*
X63601673Y-78999698D01*
X63776974Y-79175000D01*
X63651673Y-79300302D01*
X63555000Y-79533691D01*
X63555000Y-79674250D01*
X63713750Y-79833000D01*
X64463000Y-79833000D01*
X64463000Y-79183750D01*
X64404250Y-79125000D01*
X64413000Y-79116250D01*
X64413000Y-78467000D01*
X63663750Y-78467000D01*
X63505000Y-78625750D01*
X61500644Y-78625750D01*
X61478676Y-74652834D01*
X62313734Y-75467016D01*
X62313734Y-75467016D01*
G37*
X62313734Y-75467016D02*
X62245000Y-75535750D01*
X62245000Y-75776310D01*
X62341673Y-76009699D01*
X62520302Y-76188327D01*
X62753691Y-76285000D01*
X62894250Y-76285000D01*
X63021836Y-76157414D01*
X63052998Y-76187797D01*
X63052998Y-76285000D01*
X63152693Y-76285000D01*
X63496497Y-76620209D01*
X63492560Y-76640000D01*
X63492560Y-77240000D01*
X63541843Y-77487765D01*
X63642927Y-77639047D01*
X63601673Y-77680302D01*
X63505000Y-77913691D01*
X63505000Y-78054250D01*
X63663750Y-78213000D01*
X64413000Y-78213000D01*
X64413000Y-78193000D01*
X64635764Y-78193000D01*
X64687000Y-78244236D01*
X64687000Y-78467000D01*
X64667000Y-78467000D01*
X64667000Y-79116250D01*
X64725750Y-79175000D01*
X64717000Y-79183750D01*
X64717000Y-79833000D01*
X65466250Y-79833000D01*
X65570000Y-79729250D01*
X65570000Y-79799250D01*
X65728750Y-79958000D01*
X66878000Y-79958000D01*
X66878000Y-79938000D01*
X66899359Y-79938000D01*
X67152000Y-80184325D01*
X67152000Y-80212000D01*
X67132000Y-80212000D01*
X67132000Y-80232000D01*
X66878000Y-80232000D01*
X66878000Y-80212000D01*
X65728750Y-80212000D01*
X65625000Y-80315750D01*
X65625000Y-80245750D01*
X65466250Y-80087000D01*
X64717000Y-80087000D01*
X64717000Y-80107000D01*
X64463000Y-80107000D01*
X64463000Y-80087000D01*
X63713750Y-80087000D01*
X63555000Y-80245750D01*
X63555000Y-80386309D01*
X63651673Y-80619698D01*
X63692927Y-80660953D01*
X63591843Y-80812235D01*
X63542560Y-81060000D01*
X63542560Y-81660000D01*
X63591843Y-81907765D01*
X63701000Y-82071129D01*
X63701001Y-82822440D01*
X63701000Y-82822445D01*
X63701001Y-83688870D01*
X63591843Y-83852235D01*
X63542560Y-84100000D01*
X63542560Y-84700000D01*
X63591843Y-84947765D01*
X63692927Y-85099047D01*
X63651673Y-85140302D01*
X63555000Y-85373691D01*
X63555000Y-85514250D01*
X63713750Y-85673000D01*
X64463000Y-85673000D01*
X64463000Y-85653000D01*
X64717000Y-85653000D01*
X64717000Y-85673000D01*
X65466250Y-85673000D01*
X65625000Y-85514250D01*
X65625000Y-85373691D01*
X65528327Y-85140302D01*
X65487073Y-85099047D01*
X65588157Y-84947765D01*
X65637440Y-84700000D01*
X65637440Y-84687002D01*
X65786348Y-84687002D01*
X65627600Y-84845750D01*
X65627600Y-85791309D01*
X65724273Y-86024698D01*
X65902901Y-86203327D01*
X66136290Y-86300000D01*
X67067050Y-86300000D01*
X67225800Y-86141250D01*
X67225800Y-84687000D01*
X67205800Y-84687000D01*
X67205800Y-84433000D01*
X67225800Y-84433000D01*
X67225800Y-82978750D01*
X67067050Y-82820000D01*
X66136290Y-82820000D01*
X65902901Y-82916673D01*
X65724273Y-83095302D01*
X65627600Y-83328691D01*
X65627600Y-84050530D01*
X65588157Y-83852235D01*
X65479000Y-83688871D01*
X65479000Y-82249000D01*
X65876184Y-82249000D01*
X65957235Y-82303157D01*
X66205000Y-82352440D01*
X67805000Y-82352440D01*
X67863724Y-82340759D01*
X68311000Y-82788036D01*
X68311000Y-82820000D01*
X67638550Y-82820000D01*
X67479800Y-82978750D01*
X67479800Y-84433000D01*
X67499800Y-84433000D01*
X67499800Y-84687000D01*
X67479800Y-84687000D01*
X67479800Y-86141250D01*
X67638550Y-86300000D01*
X68353259Y-86300000D01*
X68362582Y-86346870D01*
X68559068Y-86640933D01*
X68633294Y-86690529D01*
X69217582Y-87274818D01*
X69212231Y-92336849D01*
X68333772Y-93215309D01*
X68153418Y-93335818D01*
X68032911Y-93516169D01*
X65900000Y-95649081D01*
X64569452Y-94318533D01*
X64514183Y-94235817D01*
X64186513Y-94016875D01*
X63897566Y-93959400D01*
X63897565Y-93959400D01*
X63800000Y-93939993D01*
X63702435Y-93959400D01*
X61585427Y-93959400D01*
X61553442Y-88174506D01*
X63615000Y-88174506D01*
X63615000Y-88725494D01*
X63825853Y-89234540D01*
X64215460Y-89624147D01*
X64724506Y-89835000D01*
X65275494Y-89835000D01*
X65784540Y-89624147D01*
X66174147Y-89234540D01*
X66385000Y-88725494D01*
X66385000Y-88174506D01*
X66174147Y-87665460D01*
X65784540Y-87275853D01*
X65275494Y-87065000D01*
X64724506Y-87065000D01*
X64215460Y-87275853D01*
X63825853Y-87665460D01*
X63615000Y-88174506D01*
X61553442Y-88174506D01*
X61541892Y-86085750D01*
X63555000Y-86085750D01*
X63555000Y-86226309D01*
X63651673Y-86459698D01*
X63830301Y-86638327D01*
X64063690Y-86735000D01*
X64304250Y-86735000D01*
X64463000Y-86576250D01*
X64463000Y-85927000D01*
X64717000Y-85927000D01*
X64717000Y-86576250D01*
X64875750Y-86735000D01*
X65116310Y-86735000D01*
X65349699Y-86638327D01*
X65528327Y-86459698D01*
X65625000Y-86226309D01*
X65625000Y-86085750D01*
X65466250Y-85927000D01*
X64717000Y-85927000D01*
X64463000Y-85927000D01*
X63713750Y-85927000D01*
X63555000Y-86085750D01*
X61541892Y-86085750D01*
X61500644Y-78625750D01*
X63505000Y-78625750D01*
X63505000Y-78766309D01*
X63601673Y-78999698D01*
X63776974Y-79175000D01*
X63651673Y-79300302D01*
X63555000Y-79533691D01*
X63555000Y-79674250D01*
X63713750Y-79833000D01*
X64463000Y-79833000D01*
X64463000Y-79183750D01*
X64404250Y-79125000D01*
X64413000Y-79116250D01*
X64413000Y-78467000D01*
X63663750Y-78467000D01*
X63505000Y-78625750D01*
X61500644Y-78625750D01*
X61478676Y-74652834D01*
X62313734Y-75467016D01*
G36*
X65839049Y-55783182D02*
X65801875Y-55771635D01*
X65423542Y-55806362D01*
X65235302Y-55884333D01*
X65220579Y-56080974D01*
X65700000Y-56560395D01*
X65714143Y-56546253D01*
X65828350Y-56660460D01*
X65826386Y-56821504D01*
X65714143Y-56933748D01*
X65700000Y-56919605D01*
X65685858Y-56933748D01*
X65506253Y-56754143D01*
X65520395Y-56740000D01*
X65364725Y-56584330D01*
X65353638Y-56463542D01*
X65275667Y-56275302D01*
X65079026Y-56260579D01*
X65060000Y-56279605D01*
X65040974Y-56260579D01*
X64844333Y-56275302D01*
X64745222Y-56594383D01*
X64599605Y-56740000D01*
X64613748Y-56754143D01*
X64434143Y-56933748D01*
X64420000Y-56919605D01*
X64405858Y-56933748D01*
X64226253Y-56754143D01*
X64240395Y-56740000D01*
X64226253Y-56725858D01*
X64405858Y-56546253D01*
X64420000Y-56560395D01*
X64899421Y-56080974D01*
X64884698Y-55884333D01*
X64521875Y-55771635D01*
X64143542Y-55806362D01*
X63955302Y-55884333D01*
X63940579Y-56080971D01*
X63823047Y-55963439D01*
X63773530Y-56012956D01*
X63690964Y-55930390D01*
X63339961Y-55785000D01*
X62960039Y-55785000D01*
X62609036Y-55930390D01*
X62520000Y-56019426D01*
X62430964Y-55930390D01*
X62079961Y-55785000D01*
X61700039Y-55785000D01*
X61349036Y-55930390D01*
X61261470Y-56017956D01*
X61206953Y-55963439D01*
X61089421Y-56080971D01*
X61074698Y-55884333D01*
X60711875Y-55771635D01*
X60333542Y-55806362D01*
X60145302Y-55884333D01*
X60130579Y-56080974D01*
X60610000Y-56560395D01*
X60624143Y-56546253D01*
X60803748Y-56725858D01*
X60789605Y-56740000D01*
X60803748Y-56754143D01*
X60624143Y-56933748D01*
X60610000Y-56919605D01*
X60595858Y-56933748D01*
X60416253Y-56754143D01*
X60430395Y-56740000D01*
X60296746Y-56606351D01*
X60283638Y-56463542D01*
X60205667Y-56275302D01*
X60009026Y-56260579D01*
X59980000Y-56289605D01*
X59950974Y-56260579D01*
X59754333Y-56275302D01*
X59646211Y-56623394D01*
X59529605Y-56740000D01*
X59543748Y-56754143D01*
X59364143Y-56933748D01*
X59350000Y-56919605D01*
X59335858Y-56933748D01*
X59156253Y-56754143D01*
X59170395Y-56740000D01*
X59156253Y-56725858D01*
X59335858Y-56546253D01*
X59350000Y-56560395D01*
X59829421Y-56080974D01*
X59814698Y-55884333D01*
X59451875Y-55771635D01*
X59073542Y-55806362D01*
X58885302Y-55884333D01*
X58870579Y-56080971D01*
X58753047Y-55963439D01*
X58698530Y-56017956D01*
X58610964Y-55930390D01*
X58259961Y-55785000D01*
X57880039Y-55785000D01*
X57529036Y-55930390D01*
X57435000Y-56024426D01*
X57340964Y-55930390D01*
X56989961Y-55785000D01*
X56610039Y-55785000D01*
X56259036Y-55930390D01*
X56176470Y-56012956D01*
X56126953Y-55963439D01*
X56009421Y-56080971D01*
X55994698Y-55884333D01*
X55631875Y-55771635D01*
X55253542Y-55806362D01*
X55065302Y-55884333D01*
X55050579Y-56080974D01*
X55530000Y-56560395D01*
X55544143Y-56546253D01*
X55723748Y-56725858D01*
X55709605Y-56740000D01*
X55723748Y-56754143D01*
X55544143Y-56933748D01*
X55530000Y-56919605D01*
X55515858Y-56933748D01*
X55336253Y-56754143D01*
X55350395Y-56740000D01*
X55216746Y-56606351D01*
X55203638Y-56463542D01*
X55125667Y-56275302D01*
X54929026Y-56260579D01*
X54900000Y-56289605D01*
X54870974Y-56260579D01*
X54674333Y-56275302D01*
X54566211Y-56623394D01*
X54449605Y-56740000D01*
X54463748Y-56754143D01*
X54284143Y-56933748D01*
X54270000Y-56919605D01*
X54255858Y-56933748D01*
X54076253Y-56754143D01*
X54090395Y-56740000D01*
X54076253Y-56725858D01*
X54255858Y-56546253D01*
X54270000Y-56560395D01*
X54749421Y-56080974D01*
X54734698Y-55884333D01*
X54371875Y-55771635D01*
X53993542Y-55806362D01*
X53805302Y-55884333D01*
X53790579Y-56080971D01*
X53673047Y-55963439D01*
X53623530Y-56012956D01*
X53540964Y-55930390D01*
X53189961Y-55785000D01*
X52810039Y-55785000D01*
X52459036Y-55930390D01*
X52360000Y-56029426D01*
X52260964Y-55930390D01*
X51909961Y-55785000D01*
X51530039Y-55785000D01*
X51179036Y-55930390D01*
X51096470Y-56012956D01*
X51046953Y-55963439D01*
X50929421Y-56080971D01*
X50914698Y-55884333D01*
X50551875Y-55771635D01*
X50173542Y-55806362D01*
X49985302Y-55884333D01*
X49970579Y-56080971D01*
X49853047Y-55963439D01*
X49803530Y-56012956D01*
X49720964Y-55930390D01*
X49369961Y-55785000D01*
X48990039Y-55785000D01*
X48639036Y-55930390D01*
X48550000Y-56019426D01*
X48460964Y-55930390D01*
X48109961Y-55785000D01*
X47730039Y-55785000D01*
X47379036Y-55930390D01*
X47285000Y-56024426D01*
X47190964Y-55930390D01*
X46839961Y-55785000D01*
X46460039Y-55785000D01*
X46109036Y-55930390D01*
X46026470Y-56012956D01*
X45976953Y-55963439D01*
X45859421Y-56080971D01*
X45844698Y-55884333D01*
X45481875Y-55771635D01*
X45103542Y-55806362D01*
X44915302Y-55884333D01*
X44900579Y-56080974D01*
X45380000Y-56560395D01*
X45394143Y-56546253D01*
X45573748Y-56725858D01*
X45559605Y-56740000D01*
X45573748Y-56754143D01*
X45394143Y-56933748D01*
X45380000Y-56919605D01*
X45365858Y-56933748D01*
X45186253Y-56754143D01*
X45200395Y-56740000D01*
X45055736Y-56595341D01*
X45043638Y-56463542D01*
X44965667Y-56275302D01*
X44769026Y-56260579D01*
X44745000Y-56284605D01*
X44720974Y-56260579D01*
X44524333Y-56275302D01*
X44420716Y-56608889D01*
X44289605Y-56740000D01*
X44303748Y-56754143D01*
X44124143Y-56933748D01*
X44110000Y-56919605D01*
X44095858Y-56933748D01*
X43916253Y-56754143D01*
X43930395Y-56740000D01*
X43916253Y-56725858D01*
X44095858Y-56546253D01*
X44110000Y-56560395D01*
X44589421Y-56080974D01*
X44574698Y-55884333D01*
X44211875Y-55771635D01*
X43833542Y-55806362D01*
X43645302Y-55884333D01*
X43630579Y-56080971D01*
X43513047Y-55963439D01*
X43458530Y-56017956D01*
X43370964Y-55930390D01*
X43019961Y-55785000D01*
X42640039Y-55785000D01*
X42289036Y-55930390D01*
X42195000Y-56024426D01*
X42100964Y-55930390D01*
X41749961Y-55785000D01*
X41370039Y-55785000D01*
X41019036Y-55930390D01*
X40936470Y-56012956D01*
X40886953Y-55963439D01*
X40769421Y-56080971D01*
X40754698Y-55884333D01*
X40391875Y-55771635D01*
X40013542Y-55806362D01*
X39825302Y-55884333D01*
X39810579Y-56080974D01*
X40290000Y-56560395D01*
X40304143Y-56546253D01*
X40483748Y-56725858D01*
X40469605Y-56740000D01*
X40483748Y-56754143D01*
X40304143Y-56933748D01*
X40290000Y-56919605D01*
X40275858Y-56933748D01*
X40096253Y-56754143D01*
X40110395Y-56740000D01*
X39630974Y-56260579D01*
X39434333Y-56275302D01*
X39321635Y-56638125D01*
X39356362Y-57016458D01*
X39434333Y-57204698D01*
X39630971Y-57219421D01*
X39513439Y-57336953D01*
X39557956Y-57381470D01*
X39480390Y-57459036D01*
X39335000Y-57810039D01*
X39335000Y-57825608D01*
X39297677Y-57834279D01*
X39252913Y-57868128D01*
X38477905Y-58787164D01*
X38122619Y-58640000D01*
X37617381Y-58640000D01*
X37150603Y-58833346D01*
X36793346Y-59190603D01*
X36600000Y-59657381D01*
X36600000Y-60162619D01*
X36793346Y-60629397D01*
X36864433Y-60700484D01*
X36436004Y-61208533D01*
X36115743Y-60435353D01*
X35745022Y-60214584D01*
X34049605Y-61910000D01*
X34063748Y-61924142D01*
X33884143Y-62103748D01*
X33870000Y-62089605D01*
X32174584Y-63785022D01*
X32395353Y-64155743D01*
X33367012Y-64549119D01*
X33620658Y-64547085D01*
X33602913Y-64568128D01*
X33578972Y-64611514D01*
X33573008Y-64651440D01*
X33853883Y-89424606D01*
X32598862Y-90679627D01*
X32532061Y-90724262D01*
X32487426Y-90791063D01*
X32487424Y-90791065D01*
X32355223Y-90988918D01*
X32293126Y-91301101D01*
X32308800Y-91379900D01*
X32308799Y-103120105D01*
X32293126Y-103198899D01*
X32308799Y-103277693D01*
X32308799Y-103277697D01*
X32355222Y-103511081D01*
X32532060Y-103775738D01*
X32598864Y-103820375D01*
X34033365Y-105254878D01*
X34071761Y-108641421D01*
X32074514Y-108952104D01*
X31289173Y-62575684D01*
X31624257Y-63384647D01*
X31994978Y-63605416D01*
X33690395Y-61910000D01*
X31994978Y-60214584D01*
X31624257Y-60435353D01*
X31267837Y-61315728D01*
X31246149Y-60034978D01*
X32174584Y-60034978D01*
X33870000Y-61730395D01*
X35565416Y-60034978D01*
X35344647Y-59664257D01*
X34372988Y-59270881D01*
X33324753Y-59279287D01*
X32395353Y-59664257D01*
X32174584Y-60034978D01*
X31246149Y-60034978D01*
X31129169Y-53127000D01*
X65871441Y-53127000D01*
X65839049Y-55783182D01*
X65839049Y-55783182D01*
G37*
X65839049Y-55783182D02*
X65801875Y-55771635D01*
X65423542Y-55806362D01*
X65235302Y-55884333D01*
X65220579Y-56080974D01*
X65700000Y-56560395D01*
X65714143Y-56546253D01*
X65828350Y-56660460D01*
X65826386Y-56821504D01*
X65714143Y-56933748D01*
X65700000Y-56919605D01*
X65685858Y-56933748D01*
X65506253Y-56754143D01*
X65520395Y-56740000D01*
X65364725Y-56584330D01*
X65353638Y-56463542D01*
X65275667Y-56275302D01*
X65079026Y-56260579D01*
X65060000Y-56279605D01*
X65040974Y-56260579D01*
X64844333Y-56275302D01*
X64745222Y-56594383D01*
X64599605Y-56740000D01*
X64613748Y-56754143D01*
X64434143Y-56933748D01*
X64420000Y-56919605D01*
X64405858Y-56933748D01*
X64226253Y-56754143D01*
X64240395Y-56740000D01*
X64226253Y-56725858D01*
X64405858Y-56546253D01*
X64420000Y-56560395D01*
X64899421Y-56080974D01*
X64884698Y-55884333D01*
X64521875Y-55771635D01*
X64143542Y-55806362D01*
X63955302Y-55884333D01*
X63940579Y-56080971D01*
X63823047Y-55963439D01*
X63773530Y-56012956D01*
X63690964Y-55930390D01*
X63339961Y-55785000D01*
X62960039Y-55785000D01*
X62609036Y-55930390D01*
X62520000Y-56019426D01*
X62430964Y-55930390D01*
X62079961Y-55785000D01*
X61700039Y-55785000D01*
X61349036Y-55930390D01*
X61261470Y-56017956D01*
X61206953Y-55963439D01*
X61089421Y-56080971D01*
X61074698Y-55884333D01*
X60711875Y-55771635D01*
X60333542Y-55806362D01*
X60145302Y-55884333D01*
X60130579Y-56080974D01*
X60610000Y-56560395D01*
X60624143Y-56546253D01*
X60803748Y-56725858D01*
X60789605Y-56740000D01*
X60803748Y-56754143D01*
X60624143Y-56933748D01*
X60610000Y-56919605D01*
X60595858Y-56933748D01*
X60416253Y-56754143D01*
X60430395Y-56740000D01*
X60296746Y-56606351D01*
X60283638Y-56463542D01*
X60205667Y-56275302D01*
X60009026Y-56260579D01*
X59980000Y-56289605D01*
X59950974Y-56260579D01*
X59754333Y-56275302D01*
X59646211Y-56623394D01*
X59529605Y-56740000D01*
X59543748Y-56754143D01*
X59364143Y-56933748D01*
X59350000Y-56919605D01*
X59335858Y-56933748D01*
X59156253Y-56754143D01*
X59170395Y-56740000D01*
X59156253Y-56725858D01*
X59335858Y-56546253D01*
X59350000Y-56560395D01*
X59829421Y-56080974D01*
X59814698Y-55884333D01*
X59451875Y-55771635D01*
X59073542Y-55806362D01*
X58885302Y-55884333D01*
X58870579Y-56080971D01*
X58753047Y-55963439D01*
X58698530Y-56017956D01*
X58610964Y-55930390D01*
X58259961Y-55785000D01*
X57880039Y-55785000D01*
X57529036Y-55930390D01*
X57435000Y-56024426D01*
X57340964Y-55930390D01*
X56989961Y-55785000D01*
X56610039Y-55785000D01*
X56259036Y-55930390D01*
X56176470Y-56012956D01*
X56126953Y-55963439D01*
X56009421Y-56080971D01*
X55994698Y-55884333D01*
X55631875Y-55771635D01*
X55253542Y-55806362D01*
X55065302Y-55884333D01*
X55050579Y-56080974D01*
X55530000Y-56560395D01*
X55544143Y-56546253D01*
X55723748Y-56725858D01*
X55709605Y-56740000D01*
X55723748Y-56754143D01*
X55544143Y-56933748D01*
X55530000Y-56919605D01*
X55515858Y-56933748D01*
X55336253Y-56754143D01*
X55350395Y-56740000D01*
X55216746Y-56606351D01*
X55203638Y-56463542D01*
X55125667Y-56275302D01*
X54929026Y-56260579D01*
X54900000Y-56289605D01*
X54870974Y-56260579D01*
X54674333Y-56275302D01*
X54566211Y-56623394D01*
X54449605Y-56740000D01*
X54463748Y-56754143D01*
X54284143Y-56933748D01*
X54270000Y-56919605D01*
X54255858Y-56933748D01*
X54076253Y-56754143D01*
X54090395Y-56740000D01*
X54076253Y-56725858D01*
X54255858Y-56546253D01*
X54270000Y-56560395D01*
X54749421Y-56080974D01*
X54734698Y-55884333D01*
X54371875Y-55771635D01*
X53993542Y-55806362D01*
X53805302Y-55884333D01*
X53790579Y-56080971D01*
X53673047Y-55963439D01*
X53623530Y-56012956D01*
X53540964Y-55930390D01*
X53189961Y-55785000D01*
X52810039Y-55785000D01*
X52459036Y-55930390D01*
X52360000Y-56029426D01*
X52260964Y-55930390D01*
X51909961Y-55785000D01*
X51530039Y-55785000D01*
X51179036Y-55930390D01*
X51096470Y-56012956D01*
X51046953Y-55963439D01*
X50929421Y-56080971D01*
X50914698Y-55884333D01*
X50551875Y-55771635D01*
X50173542Y-55806362D01*
X49985302Y-55884333D01*
X49970579Y-56080971D01*
X49853047Y-55963439D01*
X49803530Y-56012956D01*
X49720964Y-55930390D01*
X49369961Y-55785000D01*
X48990039Y-55785000D01*
X48639036Y-55930390D01*
X48550000Y-56019426D01*
X48460964Y-55930390D01*
X48109961Y-55785000D01*
X47730039Y-55785000D01*
X47379036Y-55930390D01*
X47285000Y-56024426D01*
X47190964Y-55930390D01*
X46839961Y-55785000D01*
X46460039Y-55785000D01*
X46109036Y-55930390D01*
X46026470Y-56012956D01*
X45976953Y-55963439D01*
X45859421Y-56080971D01*
X45844698Y-55884333D01*
X45481875Y-55771635D01*
X45103542Y-55806362D01*
X44915302Y-55884333D01*
X44900579Y-56080974D01*
X45380000Y-56560395D01*
X45394143Y-56546253D01*
X45573748Y-56725858D01*
X45559605Y-56740000D01*
X45573748Y-56754143D01*
X45394143Y-56933748D01*
X45380000Y-56919605D01*
X45365858Y-56933748D01*
X45186253Y-56754143D01*
X45200395Y-56740000D01*
X45055736Y-56595341D01*
X45043638Y-56463542D01*
X44965667Y-56275302D01*
X44769026Y-56260579D01*
X44745000Y-56284605D01*
X44720974Y-56260579D01*
X44524333Y-56275302D01*
X44420716Y-56608889D01*
X44289605Y-56740000D01*
X44303748Y-56754143D01*
X44124143Y-56933748D01*
X44110000Y-56919605D01*
X44095858Y-56933748D01*
X43916253Y-56754143D01*
X43930395Y-56740000D01*
X43916253Y-56725858D01*
X44095858Y-56546253D01*
X44110000Y-56560395D01*
X44589421Y-56080974D01*
X44574698Y-55884333D01*
X44211875Y-55771635D01*
X43833542Y-55806362D01*
X43645302Y-55884333D01*
X43630579Y-56080971D01*
X43513047Y-55963439D01*
X43458530Y-56017956D01*
X43370964Y-55930390D01*
X43019961Y-55785000D01*
X42640039Y-55785000D01*
X42289036Y-55930390D01*
X42195000Y-56024426D01*
X42100964Y-55930390D01*
X41749961Y-55785000D01*
X41370039Y-55785000D01*
X41019036Y-55930390D01*
X40936470Y-56012956D01*
X40886953Y-55963439D01*
X40769421Y-56080971D01*
X40754698Y-55884333D01*
X40391875Y-55771635D01*
X40013542Y-55806362D01*
X39825302Y-55884333D01*
X39810579Y-56080974D01*
X40290000Y-56560395D01*
X40304143Y-56546253D01*
X40483748Y-56725858D01*
X40469605Y-56740000D01*
X40483748Y-56754143D01*
X40304143Y-56933748D01*
X40290000Y-56919605D01*
X40275858Y-56933748D01*
X40096253Y-56754143D01*
X40110395Y-56740000D01*
X39630974Y-56260579D01*
X39434333Y-56275302D01*
X39321635Y-56638125D01*
X39356362Y-57016458D01*
X39434333Y-57204698D01*
X39630971Y-57219421D01*
X39513439Y-57336953D01*
X39557956Y-57381470D01*
X39480390Y-57459036D01*
X39335000Y-57810039D01*
X39335000Y-57825608D01*
X39297677Y-57834279D01*
X39252913Y-57868128D01*
X38477905Y-58787164D01*
X38122619Y-58640000D01*
X37617381Y-58640000D01*
X37150603Y-58833346D01*
X36793346Y-59190603D01*
X36600000Y-59657381D01*
X36600000Y-60162619D01*
X36793346Y-60629397D01*
X36864433Y-60700484D01*
X36436004Y-61208533D01*
X36115743Y-60435353D01*
X35745022Y-60214584D01*
X34049605Y-61910000D01*
X34063748Y-61924142D01*
X33884143Y-62103748D01*
X33870000Y-62089605D01*
X32174584Y-63785022D01*
X32395353Y-64155743D01*
X33367012Y-64549119D01*
X33620658Y-64547085D01*
X33602913Y-64568128D01*
X33578972Y-64611514D01*
X33573008Y-64651440D01*
X33853883Y-89424606D01*
X32598862Y-90679627D01*
X32532061Y-90724262D01*
X32487426Y-90791063D01*
X32487424Y-90791065D01*
X32355223Y-90988918D01*
X32293126Y-91301101D01*
X32308800Y-91379900D01*
X32308799Y-103120105D01*
X32293126Y-103198899D01*
X32308799Y-103277693D01*
X32308799Y-103277697D01*
X32355222Y-103511081D01*
X32532060Y-103775738D01*
X32598864Y-103820375D01*
X34033365Y-105254878D01*
X34071761Y-108641421D01*
X32074514Y-108952104D01*
X31289173Y-62575684D01*
X31624257Y-63384647D01*
X31994978Y-63605416D01*
X33690395Y-61910000D01*
X31994978Y-60214584D01*
X31624257Y-60435353D01*
X31267837Y-61315728D01*
X31246149Y-60034978D01*
X32174584Y-60034978D01*
X33870000Y-61730395D01*
X35565416Y-60034978D01*
X35344647Y-59664257D01*
X34372988Y-59270881D01*
X33324753Y-59279287D01*
X32395353Y-59664257D01*
X32174584Y-60034978D01*
X31246149Y-60034978D01*
X31129169Y-53127000D01*
X65871441Y-53127000D01*
X65839049Y-55783182D01*
G36*
X50643748Y-56725858D02*
X50629605Y-56740000D01*
X50643748Y-56754143D01*
X50464143Y-56933748D01*
X50450000Y-56919605D01*
X50435858Y-56933748D01*
X50256253Y-56754143D01*
X50270395Y-56740000D01*
X50256253Y-56725858D01*
X50435858Y-56546253D01*
X50450000Y-56560395D01*
X50464143Y-56546253D01*
X50643748Y-56725858D01*
X50643748Y-56725858D01*
G37*
X50643748Y-56725858D02*
X50629605Y-56740000D01*
X50643748Y-56754143D01*
X50464143Y-56933748D01*
X50450000Y-56919605D01*
X50435858Y-56933748D01*
X50256253Y-56754143D01*
X50270395Y-56740000D01*
X50256253Y-56725858D01*
X50435858Y-56546253D01*
X50450000Y-56560395D01*
X50464143Y-56546253D01*
X50643748Y-56725858D01*
G36*
X98370500Y-55817144D02*
X98370500Y-60360769D01*
X98125022Y-60214584D01*
X96429605Y-61910000D01*
X98125022Y-63605416D01*
X98370500Y-63459231D01*
X98370501Y-80950856D01*
X97279358Y-82042000D01*
X96978858Y-82042000D01*
X96418723Y-82274015D01*
X96206238Y-82486500D01*
X95710774Y-82486500D01*
X95885000Y-82065881D01*
X95885000Y-81510119D01*
X95672320Y-80996663D01*
X95279337Y-80603680D01*
X94765881Y-80391000D01*
X94210119Y-80391000D01*
X94127000Y-80425429D01*
X94127000Y-67000000D01*
X94117333Y-66951399D01*
X94089803Y-66910197D01*
X92089803Y-64910197D01*
X92048601Y-64882667D01*
X92000000Y-64873000D01*
X87052606Y-64873000D01*
X86210317Y-64030711D01*
X86550964Y-63889610D01*
X86650000Y-63790574D01*
X86749036Y-63889610D01*
X87100039Y-64035000D01*
X87479961Y-64035000D01*
X87830964Y-63889610D01*
X87913530Y-63807044D01*
X87963047Y-63856561D01*
X88080579Y-63739029D01*
X88095302Y-63935667D01*
X88458125Y-64048365D01*
X88836458Y-64013638D01*
X89024698Y-63935667D01*
X89039421Y-63739029D01*
X89156953Y-63856561D01*
X89206470Y-63807044D01*
X89289036Y-63889610D01*
X89640039Y-64035000D01*
X90019961Y-64035000D01*
X90370964Y-63889610D01*
X90639610Y-63620964D01*
X90785000Y-63269961D01*
X90785000Y-62890039D01*
X90709341Y-62707381D01*
X90980000Y-62707381D01*
X90980000Y-63212619D01*
X91173346Y-63679397D01*
X91530603Y-64036654D01*
X91997381Y-64230000D01*
X92502619Y-64230000D01*
X92969397Y-64036654D01*
X93221029Y-63785022D01*
X94554584Y-63785022D01*
X94775353Y-64155743D01*
X95747012Y-64549119D01*
X96795247Y-64540713D01*
X97724647Y-64155743D01*
X97945416Y-63785022D01*
X96250000Y-62089605D01*
X94554584Y-63785022D01*
X93221029Y-63785022D01*
X93326654Y-63679397D01*
X93520000Y-63212619D01*
X93520000Y-62707381D01*
X93326654Y-62240603D01*
X92969397Y-61883346D01*
X92502619Y-61690000D01*
X91997381Y-61690000D01*
X91530603Y-61883346D01*
X91173346Y-62240603D01*
X90980000Y-62707381D01*
X90709341Y-62707381D01*
X90639610Y-62539036D01*
X90562044Y-62461470D01*
X90606561Y-62416953D01*
X90489029Y-62299421D01*
X90685667Y-62284698D01*
X90798365Y-61921875D01*
X90763638Y-61543542D01*
X90707086Y-61407012D01*
X93610881Y-61407012D01*
X93619287Y-62455247D01*
X94004257Y-63384647D01*
X94374978Y-63605416D01*
X96070395Y-61910000D01*
X94374978Y-60214584D01*
X94004257Y-60435353D01*
X93610881Y-61407012D01*
X90707086Y-61407012D01*
X90685667Y-61355302D01*
X90489026Y-61340579D01*
X90009605Y-61820000D01*
X90023748Y-61834143D01*
X89844143Y-62013748D01*
X89830000Y-61999605D01*
X89815858Y-62013748D01*
X89636253Y-61834143D01*
X89650395Y-61820000D01*
X89636253Y-61805858D01*
X89815858Y-61626253D01*
X89830000Y-61640395D01*
X90309421Y-61160974D01*
X90294698Y-60964333D01*
X89931875Y-60851635D01*
X89553542Y-60886362D01*
X89365302Y-60964333D01*
X89350579Y-61160971D01*
X89233047Y-61043439D01*
X89183530Y-61092956D01*
X89100964Y-61010390D01*
X88749961Y-60865000D01*
X88370039Y-60865000D01*
X88019036Y-61010390D01*
X87936470Y-61092956D01*
X87886953Y-61043439D01*
X87769421Y-61160971D01*
X87754698Y-60964333D01*
X87391875Y-60851635D01*
X87013542Y-60886362D01*
X86825302Y-60964333D01*
X86810579Y-61160971D01*
X86693047Y-61043439D01*
X86638530Y-61097956D01*
X86550964Y-61010390D01*
X86199961Y-60865000D01*
X85820039Y-60865000D01*
X85469036Y-61010390D01*
X85375000Y-61104426D01*
X85280964Y-61010390D01*
X84929961Y-60865000D01*
X84550039Y-60865000D01*
X84199036Y-61010390D01*
X84116470Y-61092956D01*
X84066953Y-61043439D01*
X83949421Y-61160971D01*
X83934698Y-60964333D01*
X83571875Y-60851635D01*
X83193542Y-60886362D01*
X83103333Y-60923727D01*
X82400206Y-60220600D01*
X83518245Y-60220600D01*
X83615810Y-60240007D01*
X83713375Y-60220600D01*
X83713376Y-60220600D01*
X84002323Y-60163125D01*
X84329993Y-59944183D01*
X84385262Y-59861467D01*
X84566631Y-59680099D01*
X84728002Y-59841469D01*
X84783269Y-59924183D01*
X85110939Y-60143125D01*
X85161208Y-60153124D01*
X85497452Y-60220007D01*
X85595018Y-60200600D01*
X86078245Y-60200600D01*
X86175810Y-60220007D01*
X86273375Y-60200600D01*
X86273376Y-60200600D01*
X86562323Y-60143125D01*
X86889993Y-59924183D01*
X86945262Y-59841467D01*
X87111631Y-59675098D01*
X87288002Y-59851469D01*
X87343269Y-59934183D01*
X87670939Y-60153125D01*
X87959886Y-60210600D01*
X88057451Y-60230007D01*
X88155016Y-60210600D01*
X88964983Y-60210600D01*
X89062548Y-60230007D01*
X89160113Y-60210600D01*
X89160114Y-60210600D01*
X89449061Y-60153125D01*
X89625880Y-60034978D01*
X94554584Y-60034978D01*
X96250000Y-61730395D01*
X97945416Y-60034978D01*
X97724647Y-59664257D01*
X96752988Y-59270881D01*
X95704753Y-59279287D01*
X94775353Y-59664257D01*
X94554584Y-60034978D01*
X89625880Y-60034978D01*
X89776731Y-59934183D01*
X89832000Y-59851467D01*
X90461469Y-59221998D01*
X90544183Y-59166731D01*
X90725448Y-58895448D01*
X90996731Y-58714183D01*
X91052000Y-58631467D01*
X91391068Y-58292399D01*
X91473784Y-58237130D01*
X91692726Y-57909460D01*
X91750201Y-57620513D01*
X91769608Y-57522947D01*
X91750201Y-57425381D01*
X91750201Y-56391357D01*
X91769608Y-56293791D01*
X91692726Y-55907278D01*
X91676662Y-55883236D01*
X91473784Y-55579608D01*
X91391068Y-55524339D01*
X91045661Y-55178932D01*
X90990392Y-55096216D01*
X90662722Y-54877274D01*
X90373775Y-54819799D01*
X90373774Y-54819799D01*
X90276209Y-54800392D01*
X90178644Y-54819799D01*
X89481351Y-54819799D01*
X89383790Y-54800393D01*
X89286229Y-54819799D01*
X89286225Y-54819799D01*
X88997278Y-54877274D01*
X88669608Y-55096216D01*
X88614339Y-55178932D01*
X88248532Y-55544739D01*
X88165816Y-55600008D01*
X87946874Y-55927678D01*
X87940783Y-55958298D01*
X87911298Y-55987784D01*
X87886953Y-55963439D01*
X87769421Y-56080971D01*
X87754698Y-55884333D01*
X87391875Y-55771635D01*
X87072629Y-55800938D01*
X87084751Y-55739999D01*
X87056905Y-55600008D01*
X87002940Y-55328711D01*
X86769964Y-54980036D01*
X86681951Y-54921228D01*
X86522409Y-54761686D01*
X87142098Y-54141998D01*
X96695356Y-54141998D01*
X98370500Y-55817144D01*
X98370500Y-55817144D01*
G37*
X98370500Y-55817144D02*
X98370500Y-60360769D01*
X98125022Y-60214584D01*
X96429605Y-61910000D01*
X98125022Y-63605416D01*
X98370500Y-63459231D01*
X98370501Y-80950856D01*
X97279358Y-82042000D01*
X96978858Y-82042000D01*
X96418723Y-82274015D01*
X96206238Y-82486500D01*
X95710774Y-82486500D01*
X95885000Y-82065881D01*
X95885000Y-81510119D01*
X95672320Y-80996663D01*
X95279337Y-80603680D01*
X94765881Y-80391000D01*
X94210119Y-80391000D01*
X94127000Y-80425429D01*
X94127000Y-67000000D01*
X94117333Y-66951399D01*
X94089803Y-66910197D01*
X92089803Y-64910197D01*
X92048601Y-64882667D01*
X92000000Y-64873000D01*
X87052606Y-64873000D01*
X86210317Y-64030711D01*
X86550964Y-63889610D01*
X86650000Y-63790574D01*
X86749036Y-63889610D01*
X87100039Y-64035000D01*
X87479961Y-64035000D01*
X87830964Y-63889610D01*
X87913530Y-63807044D01*
X87963047Y-63856561D01*
X88080579Y-63739029D01*
X88095302Y-63935667D01*
X88458125Y-64048365D01*
X88836458Y-64013638D01*
X89024698Y-63935667D01*
X89039421Y-63739029D01*
X89156953Y-63856561D01*
X89206470Y-63807044D01*
X89289036Y-63889610D01*
X89640039Y-64035000D01*
X90019961Y-64035000D01*
X90370964Y-63889610D01*
X90639610Y-63620964D01*
X90785000Y-63269961D01*
X90785000Y-62890039D01*
X90709341Y-62707381D01*
X90980000Y-62707381D01*
X90980000Y-63212619D01*
X91173346Y-63679397D01*
X91530603Y-64036654D01*
X91997381Y-64230000D01*
X92502619Y-64230000D01*
X92969397Y-64036654D01*
X93221029Y-63785022D01*
X94554584Y-63785022D01*
X94775353Y-64155743D01*
X95747012Y-64549119D01*
X96795247Y-64540713D01*
X97724647Y-64155743D01*
X97945416Y-63785022D01*
X96250000Y-62089605D01*
X94554584Y-63785022D01*
X93221029Y-63785022D01*
X93326654Y-63679397D01*
X93520000Y-63212619D01*
X93520000Y-62707381D01*
X93326654Y-62240603D01*
X92969397Y-61883346D01*
X92502619Y-61690000D01*
X91997381Y-61690000D01*
X91530603Y-61883346D01*
X91173346Y-62240603D01*
X90980000Y-62707381D01*
X90709341Y-62707381D01*
X90639610Y-62539036D01*
X90562044Y-62461470D01*
X90606561Y-62416953D01*
X90489029Y-62299421D01*
X90685667Y-62284698D01*
X90798365Y-61921875D01*
X90763638Y-61543542D01*
X90707086Y-61407012D01*
X93610881Y-61407012D01*
X93619287Y-62455247D01*
X94004257Y-63384647D01*
X94374978Y-63605416D01*
X96070395Y-61910000D01*
X94374978Y-60214584D01*
X94004257Y-60435353D01*
X93610881Y-61407012D01*
X90707086Y-61407012D01*
X90685667Y-61355302D01*
X90489026Y-61340579D01*
X90009605Y-61820000D01*
X90023748Y-61834143D01*
X89844143Y-62013748D01*
X89830000Y-61999605D01*
X89815858Y-62013748D01*
X89636253Y-61834143D01*
X89650395Y-61820000D01*
X89636253Y-61805858D01*
X89815858Y-61626253D01*
X89830000Y-61640395D01*
X90309421Y-61160974D01*
X90294698Y-60964333D01*
X89931875Y-60851635D01*
X89553542Y-60886362D01*
X89365302Y-60964333D01*
X89350579Y-61160971D01*
X89233047Y-61043439D01*
X89183530Y-61092956D01*
X89100964Y-61010390D01*
X88749961Y-60865000D01*
X88370039Y-60865000D01*
X88019036Y-61010390D01*
X87936470Y-61092956D01*
X87886953Y-61043439D01*
X87769421Y-61160971D01*
X87754698Y-60964333D01*
X87391875Y-60851635D01*
X87013542Y-60886362D01*
X86825302Y-60964333D01*
X86810579Y-61160971D01*
X86693047Y-61043439D01*
X86638530Y-61097956D01*
X86550964Y-61010390D01*
X86199961Y-60865000D01*
X85820039Y-60865000D01*
X85469036Y-61010390D01*
X85375000Y-61104426D01*
X85280964Y-61010390D01*
X84929961Y-60865000D01*
X84550039Y-60865000D01*
X84199036Y-61010390D01*
X84116470Y-61092956D01*
X84066953Y-61043439D01*
X83949421Y-61160971D01*
X83934698Y-60964333D01*
X83571875Y-60851635D01*
X83193542Y-60886362D01*
X83103333Y-60923727D01*
X82400206Y-60220600D01*
X83518245Y-60220600D01*
X83615810Y-60240007D01*
X83713375Y-60220600D01*
X83713376Y-60220600D01*
X84002323Y-60163125D01*
X84329993Y-59944183D01*
X84385262Y-59861467D01*
X84566631Y-59680099D01*
X84728002Y-59841469D01*
X84783269Y-59924183D01*
X85110939Y-60143125D01*
X85161208Y-60153124D01*
X85497452Y-60220007D01*
X85595018Y-60200600D01*
X86078245Y-60200600D01*
X86175810Y-60220007D01*
X86273375Y-60200600D01*
X86273376Y-60200600D01*
X86562323Y-60143125D01*
X86889993Y-59924183D01*
X86945262Y-59841467D01*
X87111631Y-59675098D01*
X87288002Y-59851469D01*
X87343269Y-59934183D01*
X87670939Y-60153125D01*
X87959886Y-60210600D01*
X88057451Y-60230007D01*
X88155016Y-60210600D01*
X88964983Y-60210600D01*
X89062548Y-60230007D01*
X89160113Y-60210600D01*
X89160114Y-60210600D01*
X89449061Y-60153125D01*
X89625880Y-60034978D01*
X94554584Y-60034978D01*
X96250000Y-61730395D01*
X97945416Y-60034978D01*
X97724647Y-59664257D01*
X96752988Y-59270881D01*
X95704753Y-59279287D01*
X94775353Y-59664257D01*
X94554584Y-60034978D01*
X89625880Y-60034978D01*
X89776731Y-59934183D01*
X89832000Y-59851467D01*
X90461469Y-59221998D01*
X90544183Y-59166731D01*
X90725448Y-58895448D01*
X90996731Y-58714183D01*
X91052000Y-58631467D01*
X91391068Y-58292399D01*
X91473784Y-58237130D01*
X91692726Y-57909460D01*
X91750201Y-57620513D01*
X91769608Y-57522947D01*
X91750201Y-57425381D01*
X91750201Y-56391357D01*
X91769608Y-56293791D01*
X91692726Y-55907278D01*
X91676662Y-55883236D01*
X91473784Y-55579608D01*
X91391068Y-55524339D01*
X91045661Y-55178932D01*
X90990392Y-55096216D01*
X90662722Y-54877274D01*
X90373775Y-54819799D01*
X90373774Y-54819799D01*
X90276209Y-54800392D01*
X90178644Y-54819799D01*
X89481351Y-54819799D01*
X89383790Y-54800393D01*
X89286229Y-54819799D01*
X89286225Y-54819799D01*
X88997278Y-54877274D01*
X88669608Y-55096216D01*
X88614339Y-55178932D01*
X88248532Y-55544739D01*
X88165816Y-55600008D01*
X87946874Y-55927678D01*
X87940783Y-55958298D01*
X87911298Y-55987784D01*
X87886953Y-55963439D01*
X87769421Y-56080971D01*
X87754698Y-55884333D01*
X87391875Y-55771635D01*
X87072629Y-55800938D01*
X87084751Y-55739999D01*
X87056905Y-55600008D01*
X87002940Y-55328711D01*
X86769964Y-54980036D01*
X86681951Y-54921228D01*
X86522409Y-54761686D01*
X87142098Y-54141998D01*
X96695356Y-54141998D01*
X98370500Y-55817144D01*
G36*
X88753748Y-63065858D02*
X88739605Y-63080000D01*
X88753748Y-63094143D01*
X88574143Y-63273748D01*
X88560000Y-63259605D01*
X88545858Y-63273748D01*
X88366253Y-63094143D01*
X88380395Y-63080000D01*
X88366253Y-63065858D01*
X88545858Y-62886253D01*
X88560000Y-62900395D01*
X88574143Y-62886253D01*
X88753748Y-63065858D01*
X88753748Y-63065858D01*
G37*
X88753748Y-63065858D02*
X88739605Y-63080000D01*
X88753748Y-63094143D01*
X88574143Y-63273748D01*
X88560000Y-63259605D01*
X88545858Y-63273748D01*
X88366253Y-63094143D01*
X88380395Y-63080000D01*
X88366253Y-63065858D01*
X88545858Y-62886253D01*
X88560000Y-62900395D01*
X88574143Y-62886253D01*
X88753748Y-63065858D01*
G36*
X87483748Y-61805858D02*
X87469605Y-61820000D01*
X87483748Y-61834143D01*
X87304143Y-62013748D01*
X87290000Y-61999605D01*
X87275858Y-62013748D01*
X87096253Y-61834143D01*
X87110395Y-61820000D01*
X87096253Y-61805858D01*
X87275858Y-61626253D01*
X87290000Y-61640395D01*
X87304143Y-61626253D01*
X87483748Y-61805858D01*
X87483748Y-61805858D01*
G37*
X87483748Y-61805858D02*
X87469605Y-61820000D01*
X87483748Y-61834143D01*
X87304143Y-62013748D01*
X87290000Y-61999605D01*
X87275858Y-62013748D01*
X87096253Y-61834143D01*
X87110395Y-61820000D01*
X87096253Y-61805858D01*
X87275858Y-61626253D01*
X87290000Y-61640395D01*
X87304143Y-61626253D01*
X87483748Y-61805858D01*
G36*
X75186953Y-58776561D02*
X75231470Y-58732044D01*
X75309036Y-58809610D01*
X75660039Y-58955000D01*
X76039961Y-58955000D01*
X76390964Y-58809610D01*
X76485000Y-58715574D01*
X76579036Y-58809610D01*
X76930039Y-58955000D01*
X77309961Y-58955000D01*
X77660964Y-58809610D01*
X77760000Y-58710574D01*
X77859036Y-58809610D01*
X78210039Y-58955000D01*
X78589961Y-58955000D01*
X78765704Y-58882205D01*
X78955817Y-59166731D01*
X79038533Y-59222000D01*
X79678002Y-59861469D01*
X79685707Y-59873000D01*
X74127000Y-59873000D01*
X74127000Y-58856194D01*
X74488125Y-58968365D01*
X74866458Y-58933638D01*
X75054698Y-58855667D01*
X75069421Y-58659029D01*
X75186953Y-58776561D01*
X75186953Y-58776561D01*
G37*
X75186953Y-58776561D02*
X75231470Y-58732044D01*
X75309036Y-58809610D01*
X75660039Y-58955000D01*
X76039961Y-58955000D01*
X76390964Y-58809610D01*
X76485000Y-58715574D01*
X76579036Y-58809610D01*
X76930039Y-58955000D01*
X77309961Y-58955000D01*
X77660964Y-58809610D01*
X77760000Y-58710574D01*
X77859036Y-58809610D01*
X78210039Y-58955000D01*
X78589961Y-58955000D01*
X78765704Y-58882205D01*
X78955817Y-59166731D01*
X79038533Y-59222000D01*
X79678002Y-59861469D01*
X79685707Y-59873000D01*
X74127000Y-59873000D01*
X74127000Y-58856194D01*
X74488125Y-58968365D01*
X74866458Y-58933638D01*
X75054698Y-58855667D01*
X75069421Y-58659029D01*
X75186953Y-58776561D01*
G36*
X74783748Y-57985858D02*
X74769605Y-58000000D01*
X74783748Y-58014143D01*
X74604143Y-58193748D01*
X74590000Y-58179605D01*
X74575858Y-58193748D01*
X74396253Y-58014143D01*
X74410395Y-58000000D01*
X74396253Y-57985858D01*
X74575858Y-57806253D01*
X74590000Y-57820395D01*
X74604143Y-57806253D01*
X74783748Y-57985858D01*
X74783748Y-57985858D01*
G37*
X74783748Y-57985858D02*
X74769605Y-58000000D01*
X74783748Y-58014143D01*
X74604143Y-58193748D01*
X74590000Y-58179605D01*
X74575858Y-58193748D01*
X74396253Y-58014143D01*
X74410395Y-58000000D01*
X74396253Y-57985858D01*
X74575858Y-57806253D01*
X74590000Y-57820395D01*
X74604143Y-57806253D01*
X74783748Y-57985858D01*
G36*
X88753748Y-57985858D02*
X88739605Y-58000000D01*
X88753748Y-58014143D01*
X88574143Y-58193748D01*
X88560000Y-58179605D01*
X88545858Y-58193748D01*
X88366253Y-58014143D01*
X88380395Y-58000000D01*
X88366253Y-57985858D01*
X88545858Y-57806253D01*
X88560000Y-57820395D01*
X88574143Y-57806253D01*
X88753748Y-57985858D01*
X88753748Y-57985858D01*
G37*
X88753748Y-57985858D02*
X88739605Y-58000000D01*
X88753748Y-58014143D01*
X88574143Y-58193748D01*
X88560000Y-58179605D01*
X88545858Y-58193748D01*
X88366253Y-58014143D01*
X88380395Y-58000000D01*
X88366253Y-57985858D01*
X88545858Y-57806253D01*
X88560000Y-57820395D01*
X88574143Y-57806253D01*
X88753748Y-57985858D01*
G36*
X86082739Y-57864849D02*
X86036876Y-57933487D01*
X86033269Y-57951621D01*
X85893500Y-58091390D01*
X85816253Y-58014143D01*
X85830395Y-58000000D01*
X85816253Y-57985858D01*
X85995858Y-57806253D01*
X86010000Y-57820395D01*
X86024143Y-57806253D01*
X86082739Y-57864849D01*
X86082739Y-57864849D01*
G37*
X86082739Y-57864849D02*
X86036876Y-57933487D01*
X86033269Y-57951621D01*
X85893500Y-58091390D01*
X85816253Y-58014143D01*
X85830395Y-58000000D01*
X85816253Y-57985858D01*
X85995858Y-57806253D01*
X86010000Y-57820395D01*
X86024143Y-57806253D01*
X86082739Y-57864849D01*
G36*
X84191859Y-54038951D02*
X84191856Y-54038953D01*
X82781860Y-55448950D01*
X82691725Y-55509176D01*
X82481962Y-55823108D01*
X82389961Y-55785000D01*
X82010039Y-55785000D01*
X81659036Y-55930390D01*
X81581470Y-56007956D01*
X81536953Y-55963439D01*
X81419421Y-56080971D01*
X81404698Y-55884333D01*
X81041875Y-55771635D01*
X80663542Y-55806362D01*
X80475302Y-55884333D01*
X80460579Y-56080974D01*
X80940000Y-56560395D01*
X80954143Y-56546253D01*
X81133748Y-56725858D01*
X81119605Y-56740000D01*
X81133748Y-56754143D01*
X80954143Y-56933748D01*
X80940000Y-56919605D01*
X80925858Y-56933748D01*
X80746253Y-56754143D01*
X80760395Y-56740000D01*
X80615736Y-56595341D01*
X80603638Y-56463542D01*
X80525667Y-56275302D01*
X80329026Y-56260579D01*
X80305000Y-56284605D01*
X80280974Y-56260579D01*
X80084333Y-56275302D01*
X79980716Y-56608889D01*
X79849605Y-56740000D01*
X79863748Y-56754143D01*
X79684143Y-56933748D01*
X79670000Y-56919605D01*
X79655858Y-56933748D01*
X79476253Y-56754143D01*
X79490395Y-56740000D01*
X79476253Y-56725858D01*
X79655858Y-56546253D01*
X79670000Y-56560395D01*
X80149421Y-56080974D01*
X80134698Y-55884333D01*
X79771875Y-55771635D01*
X79393542Y-55806362D01*
X79205302Y-55884333D01*
X79190579Y-56080971D01*
X79073047Y-55963439D01*
X79023530Y-56012956D01*
X78940964Y-55930390D01*
X78589961Y-55785000D01*
X78210039Y-55785000D01*
X77859036Y-55930390D01*
X77760000Y-56029426D01*
X77660964Y-55930390D01*
X77309961Y-55785000D01*
X76930039Y-55785000D01*
X76579036Y-55930390D01*
X76496470Y-56012956D01*
X76446953Y-55963439D01*
X76329421Y-56080971D01*
X76314698Y-55884333D01*
X75951875Y-55771635D01*
X75573542Y-55806362D01*
X75385302Y-55884333D01*
X75370579Y-56080974D01*
X75850000Y-56560395D01*
X75864143Y-56546253D01*
X76043748Y-56725858D01*
X76029605Y-56740000D01*
X76043748Y-56754143D01*
X75864143Y-56933748D01*
X75850000Y-56919605D01*
X75835858Y-56933748D01*
X75656253Y-56754143D01*
X75670395Y-56740000D01*
X75536746Y-56606351D01*
X75523638Y-56463542D01*
X75445667Y-56275302D01*
X75249026Y-56260579D01*
X75220000Y-56289605D01*
X75190974Y-56260579D01*
X74994333Y-56275302D01*
X74886211Y-56623394D01*
X74769605Y-56740000D01*
X74783748Y-56754143D01*
X74604143Y-56933748D01*
X74590000Y-56919605D01*
X74575858Y-56933748D01*
X74396253Y-56754143D01*
X74410395Y-56740000D01*
X74396253Y-56725858D01*
X74575858Y-56546253D01*
X74590000Y-56560395D01*
X75069421Y-56080974D01*
X75054698Y-55884333D01*
X74691875Y-55771635D01*
X74313542Y-55806362D01*
X74127000Y-55883630D01*
X74127000Y-53127000D01*
X85103809Y-53127000D01*
X84191859Y-54038951D01*
X84191859Y-54038951D01*
G37*
X84191859Y-54038951D02*
X84191856Y-54038953D01*
X82781860Y-55448950D01*
X82691725Y-55509176D01*
X82481962Y-55823108D01*
X82389961Y-55785000D01*
X82010039Y-55785000D01*
X81659036Y-55930390D01*
X81581470Y-56007956D01*
X81536953Y-55963439D01*
X81419421Y-56080971D01*
X81404698Y-55884333D01*
X81041875Y-55771635D01*
X80663542Y-55806362D01*
X80475302Y-55884333D01*
X80460579Y-56080974D01*
X80940000Y-56560395D01*
X80954143Y-56546253D01*
X81133748Y-56725858D01*
X81119605Y-56740000D01*
X81133748Y-56754143D01*
X80954143Y-56933748D01*
X80940000Y-56919605D01*
X80925858Y-56933748D01*
X80746253Y-56754143D01*
X80760395Y-56740000D01*
X80615736Y-56595341D01*
X80603638Y-56463542D01*
X80525667Y-56275302D01*
X80329026Y-56260579D01*
X80305000Y-56284605D01*
X80280974Y-56260579D01*
X80084333Y-56275302D01*
X79980716Y-56608889D01*
X79849605Y-56740000D01*
X79863748Y-56754143D01*
X79684143Y-56933748D01*
X79670000Y-56919605D01*
X79655858Y-56933748D01*
X79476253Y-56754143D01*
X79490395Y-56740000D01*
X79476253Y-56725858D01*
X79655858Y-56546253D01*
X79670000Y-56560395D01*
X80149421Y-56080974D01*
X80134698Y-55884333D01*
X79771875Y-55771635D01*
X79393542Y-55806362D01*
X79205302Y-55884333D01*
X79190579Y-56080971D01*
X79073047Y-55963439D01*
X79023530Y-56012956D01*
X78940964Y-55930390D01*
X78589961Y-55785000D01*
X78210039Y-55785000D01*
X77859036Y-55930390D01*
X77760000Y-56029426D01*
X77660964Y-55930390D01*
X77309961Y-55785000D01*
X76930039Y-55785000D01*
X76579036Y-55930390D01*
X76496470Y-56012956D01*
X76446953Y-55963439D01*
X76329421Y-56080971D01*
X76314698Y-55884333D01*
X75951875Y-55771635D01*
X75573542Y-55806362D01*
X75385302Y-55884333D01*
X75370579Y-56080974D01*
X75850000Y-56560395D01*
X75864143Y-56546253D01*
X76043748Y-56725858D01*
X76029605Y-56740000D01*
X76043748Y-56754143D01*
X75864143Y-56933748D01*
X75850000Y-56919605D01*
X75835858Y-56933748D01*
X75656253Y-56754143D01*
X75670395Y-56740000D01*
X75536746Y-56606351D01*
X75523638Y-56463542D01*
X75445667Y-56275302D01*
X75249026Y-56260579D01*
X75220000Y-56289605D01*
X75190974Y-56260579D01*
X74994333Y-56275302D01*
X74886211Y-56623394D01*
X74769605Y-56740000D01*
X74783748Y-56754143D01*
X74604143Y-56933748D01*
X74590000Y-56919605D01*
X74575858Y-56933748D01*
X74396253Y-56754143D01*
X74410395Y-56740000D01*
X74396253Y-56725858D01*
X74575858Y-56546253D01*
X74590000Y-56560395D01*
X75069421Y-56080974D01*
X75054698Y-55884333D01*
X74691875Y-55771635D01*
X74313542Y-55806362D01*
X74127000Y-55883630D01*
X74127000Y-53127000D01*
X85103809Y-53127000D01*
X84191859Y-54038951D01*
G36*
X84933748Y-56725858D02*
X84919605Y-56740000D01*
X84933748Y-56754143D01*
X84754143Y-56933748D01*
X84740000Y-56919605D01*
X84725858Y-56933748D01*
X84549500Y-56757390D01*
X84549500Y-56750895D01*
X84560395Y-56740000D01*
X84552245Y-56731850D01*
X84731850Y-56552245D01*
X84740000Y-56560395D01*
X84754143Y-56546253D01*
X84933748Y-56725858D01*
X84933748Y-56725858D01*
G37*
X84933748Y-56725858D02*
X84919605Y-56740000D01*
X84933748Y-56754143D01*
X84754143Y-56933748D01*
X84740000Y-56919605D01*
X84725858Y-56933748D01*
X84549500Y-56757390D01*
X84549500Y-56750895D01*
X84560395Y-56740000D01*
X84552245Y-56731850D01*
X84731850Y-56552245D01*
X84740000Y-56560395D01*
X84754143Y-56546253D01*
X84933748Y-56725858D01*
G36*
X87483748Y-56725858D02*
X87469605Y-56740000D01*
X87483748Y-56754143D01*
X87304143Y-56933748D01*
X87290000Y-56919605D01*
X87275858Y-56933748D01*
X87096253Y-56754143D01*
X87110395Y-56740000D01*
X87096253Y-56725858D01*
X87275858Y-56546253D01*
X87290000Y-56560395D01*
X87304143Y-56546253D01*
X87483748Y-56725858D01*
X87483748Y-56725858D01*
G37*
X87483748Y-56725858D02*
X87469605Y-56740000D01*
X87483748Y-56754143D01*
X87304143Y-56933748D01*
X87290000Y-56919605D01*
X87275858Y-56933748D01*
X87096253Y-56754143D01*
X87110395Y-56740000D01*
X87096253Y-56725858D01*
X87275858Y-56546253D01*
X87290000Y-56560395D01*
X87304143Y-56546253D01*
X87483748Y-56725858D01*
M02*
