%TF.GenerationSoftware,KiCad,Pcbnew,(5.0.0-rc2-dev-581-g09a6bada0)*%
%TF.CreationDate,2018-07-03T10:36:25-06:00*%
%TF.ProjectId,Sensor_FMC_LPC_Breakout_V02,53656E736F725F464D435F4C50435F42,01*%
%TF.SameCoordinates,Original*%
%TF.FileFunction,Legend,Top*%
%TF.FilePolarity,Positive*%
%FSLAX46Y46*%
G04 Gerber Fmt 4.6, Leading zero omitted, Abs format (unit mm)*
G04 Created by KiCad (PCBNEW (5.0.0-rc2-dev-581-g09a6bada0)) date 07/03/18 10:36:25*
%MOMM*%
%LPD*%
G01*
G04 APERTURE LIST*
%ADD10C,0.254000*%
%ADD11C,0.200000*%
%ADD12C,0.100000*%
%ADD13C,0.120000*%
%ADD14C,0.150000*%
%ADD15C,0.076200*%
G04 APERTURE END LIST*
D10*
X32040285Y-54259238D02*
X32185428Y-54307619D01*
X32427333Y-54307619D01*
X32524095Y-54259238D01*
X32572476Y-54210857D01*
X32620857Y-54114095D01*
X32620857Y-54017333D01*
X32572476Y-53920571D01*
X32524095Y-53872190D01*
X32427333Y-53823809D01*
X32233809Y-53775428D01*
X32137047Y-53727047D01*
X32088666Y-53678666D01*
X32040285Y-53581904D01*
X32040285Y-53485142D01*
X32088666Y-53388380D01*
X32137047Y-53340000D01*
X32233809Y-53291619D01*
X32475714Y-53291619D01*
X32620857Y-53340000D01*
X33443333Y-54259238D02*
X33346571Y-54307619D01*
X33153047Y-54307619D01*
X33056285Y-54259238D01*
X33007904Y-54162476D01*
X33007904Y-53775428D01*
X33056285Y-53678666D01*
X33153047Y-53630285D01*
X33346571Y-53630285D01*
X33443333Y-53678666D01*
X33491714Y-53775428D01*
X33491714Y-53872190D01*
X33007904Y-53968952D01*
X33927142Y-53630285D02*
X33927142Y-54307619D01*
X33927142Y-53727047D02*
X33975523Y-53678666D01*
X34072285Y-53630285D01*
X34217428Y-53630285D01*
X34314190Y-53678666D01*
X34362571Y-53775428D01*
X34362571Y-54307619D01*
X34798000Y-54259238D02*
X34894761Y-54307619D01*
X35088285Y-54307619D01*
X35185047Y-54259238D01*
X35233428Y-54162476D01*
X35233428Y-54114095D01*
X35185047Y-54017333D01*
X35088285Y-53968952D01*
X34943142Y-53968952D01*
X34846380Y-53920571D01*
X34798000Y-53823809D01*
X34798000Y-53775428D01*
X34846380Y-53678666D01*
X34943142Y-53630285D01*
X35088285Y-53630285D01*
X35185047Y-53678666D01*
X35814000Y-54307619D02*
X35717238Y-54259238D01*
X35668857Y-54210857D01*
X35620476Y-54114095D01*
X35620476Y-53823809D01*
X35668857Y-53727047D01*
X35717238Y-53678666D01*
X35814000Y-53630285D01*
X35959142Y-53630285D01*
X36055904Y-53678666D01*
X36104285Y-53727047D01*
X36152666Y-53823809D01*
X36152666Y-54114095D01*
X36104285Y-54210857D01*
X36055904Y-54259238D01*
X35959142Y-54307619D01*
X35814000Y-54307619D01*
X36588095Y-54307619D02*
X36588095Y-53630285D01*
X36588095Y-53823809D02*
X36636476Y-53727047D01*
X36684857Y-53678666D01*
X36781619Y-53630285D01*
X36878380Y-53630285D01*
X38329809Y-53775428D02*
X37991142Y-53775428D01*
X37991142Y-54307619D02*
X37991142Y-53291619D01*
X38474952Y-53291619D01*
X38862000Y-54307619D02*
X38862000Y-53291619D01*
X39200666Y-54017333D01*
X39539333Y-53291619D01*
X39539333Y-54307619D01*
X40603714Y-54210857D02*
X40555333Y-54259238D01*
X40410190Y-54307619D01*
X40313428Y-54307619D01*
X40168285Y-54259238D01*
X40071523Y-54162476D01*
X40023142Y-54065714D01*
X39974761Y-53872190D01*
X39974761Y-53727047D01*
X40023142Y-53533523D01*
X40071523Y-53436761D01*
X40168285Y-53340000D01*
X40313428Y-53291619D01*
X40410190Y-53291619D01*
X40555333Y-53340000D01*
X40603714Y-53388380D01*
X42297047Y-54307619D02*
X41813238Y-54307619D01*
X41813238Y-53291619D01*
X42635714Y-54307619D02*
X42635714Y-53291619D01*
X43022761Y-53291619D01*
X43119523Y-53340000D01*
X43167904Y-53388380D01*
X43216285Y-53485142D01*
X43216285Y-53630285D01*
X43167904Y-53727047D01*
X43119523Y-53775428D01*
X43022761Y-53823809D01*
X42635714Y-53823809D01*
X44232285Y-54210857D02*
X44183904Y-54259238D01*
X44038761Y-54307619D01*
X43942000Y-54307619D01*
X43796857Y-54259238D01*
X43700095Y-54162476D01*
X43651714Y-54065714D01*
X43603333Y-53872190D01*
X43603333Y-53727047D01*
X43651714Y-53533523D01*
X43700095Y-53436761D01*
X43796857Y-53340000D01*
X43942000Y-53291619D01*
X44038761Y-53291619D01*
X44183904Y-53340000D01*
X44232285Y-53388380D01*
X45780476Y-53775428D02*
X45925619Y-53823809D01*
X45974000Y-53872190D01*
X46022380Y-53968952D01*
X46022380Y-54114095D01*
X45974000Y-54210857D01*
X45925619Y-54259238D01*
X45828857Y-54307619D01*
X45441809Y-54307619D01*
X45441809Y-53291619D01*
X45780476Y-53291619D01*
X45877238Y-53340000D01*
X45925619Y-53388380D01*
X45974000Y-53485142D01*
X45974000Y-53581904D01*
X45925619Y-53678666D01*
X45877238Y-53727047D01*
X45780476Y-53775428D01*
X45441809Y-53775428D01*
X46457809Y-54307619D02*
X46457809Y-53630285D01*
X46457809Y-53823809D02*
X46506190Y-53727047D01*
X46554571Y-53678666D01*
X46651333Y-53630285D01*
X46748095Y-53630285D01*
X47473809Y-54259238D02*
X47377047Y-54307619D01*
X47183523Y-54307619D01*
X47086761Y-54259238D01*
X47038380Y-54162476D01*
X47038380Y-53775428D01*
X47086761Y-53678666D01*
X47183523Y-53630285D01*
X47377047Y-53630285D01*
X47473809Y-53678666D01*
X47522190Y-53775428D01*
X47522190Y-53872190D01*
X47038380Y-53968952D01*
X48393047Y-54307619D02*
X48393047Y-53775428D01*
X48344666Y-53678666D01*
X48247904Y-53630285D01*
X48054380Y-53630285D01*
X47957619Y-53678666D01*
X48393047Y-54259238D02*
X48296285Y-54307619D01*
X48054380Y-54307619D01*
X47957619Y-54259238D01*
X47909238Y-54162476D01*
X47909238Y-54065714D01*
X47957619Y-53968952D01*
X48054380Y-53920571D01*
X48296285Y-53920571D01*
X48393047Y-53872190D01*
X48876857Y-54307619D02*
X48876857Y-53291619D01*
X48973619Y-53920571D02*
X49263904Y-54307619D01*
X49263904Y-53630285D02*
X48876857Y-54017333D01*
X49844476Y-54307619D02*
X49747714Y-54259238D01*
X49699333Y-54210857D01*
X49650952Y-54114095D01*
X49650952Y-53823809D01*
X49699333Y-53727047D01*
X49747714Y-53678666D01*
X49844476Y-53630285D01*
X49989619Y-53630285D01*
X50086380Y-53678666D01*
X50134761Y-53727047D01*
X50183142Y-53823809D01*
X50183142Y-54114095D01*
X50134761Y-54210857D01*
X50086380Y-54259238D01*
X49989619Y-54307619D01*
X49844476Y-54307619D01*
X51054000Y-53630285D02*
X51054000Y-54307619D01*
X50618571Y-53630285D02*
X50618571Y-54162476D01*
X50666952Y-54259238D01*
X50763714Y-54307619D01*
X50908857Y-54307619D01*
X51005619Y-54259238D01*
X51054000Y-54210857D01*
X51392666Y-53630285D02*
X51779714Y-53630285D01*
X51537809Y-53291619D02*
X51537809Y-54162476D01*
X51586190Y-54259238D01*
X51682952Y-54307619D01*
X51779714Y-54307619D01*
X53231142Y-53775428D02*
X53376285Y-53823809D01*
X53424666Y-53872190D01*
X53473047Y-53968952D01*
X53473047Y-54114095D01*
X53424666Y-54210857D01*
X53376285Y-54259238D01*
X53279523Y-54307619D01*
X52892476Y-54307619D01*
X52892476Y-53291619D01*
X53231142Y-53291619D01*
X53327904Y-53340000D01*
X53376285Y-53388380D01*
X53424666Y-53485142D01*
X53424666Y-53581904D01*
X53376285Y-53678666D01*
X53327904Y-53727047D01*
X53231142Y-53775428D01*
X52892476Y-53775428D01*
X54053619Y-54307619D02*
X53956857Y-54259238D01*
X53908476Y-54210857D01*
X53860095Y-54114095D01*
X53860095Y-53823809D01*
X53908476Y-53727047D01*
X53956857Y-53678666D01*
X54053619Y-53630285D01*
X54198761Y-53630285D01*
X54295523Y-53678666D01*
X54343904Y-53727047D01*
X54392285Y-53823809D01*
X54392285Y-54114095D01*
X54343904Y-54210857D01*
X54295523Y-54259238D01*
X54198761Y-54307619D01*
X54053619Y-54307619D01*
X55263142Y-54307619D02*
X55263142Y-53775428D01*
X55214761Y-53678666D01*
X55118000Y-53630285D01*
X54924476Y-53630285D01*
X54827714Y-53678666D01*
X55263142Y-54259238D02*
X55166380Y-54307619D01*
X54924476Y-54307619D01*
X54827714Y-54259238D01*
X54779333Y-54162476D01*
X54779333Y-54065714D01*
X54827714Y-53968952D01*
X54924476Y-53920571D01*
X55166380Y-53920571D01*
X55263142Y-53872190D01*
X55746952Y-54307619D02*
X55746952Y-53630285D01*
X55746952Y-53823809D02*
X55795333Y-53727047D01*
X55843714Y-53678666D01*
X55940476Y-53630285D01*
X56037238Y-53630285D01*
X56811333Y-54307619D02*
X56811333Y-53291619D01*
X56811333Y-54259238D02*
X56714571Y-54307619D01*
X56521047Y-54307619D01*
X56424285Y-54259238D01*
X56375904Y-54210857D01*
X56327523Y-54114095D01*
X56327523Y-53823809D01*
X56375904Y-53727047D01*
X56424285Y-53678666D01*
X56521047Y-53630285D01*
X56714571Y-53630285D01*
X56811333Y-53678666D01*
X57924095Y-53291619D02*
X58262761Y-54307619D01*
X58601428Y-53291619D01*
X58940095Y-54210857D02*
X58988476Y-54259238D01*
X58940095Y-54307619D01*
X58891714Y-54259238D01*
X58940095Y-54210857D01*
X58940095Y-54307619D01*
X59617428Y-53291619D02*
X59714190Y-53291619D01*
X59810952Y-53340000D01*
X59859333Y-53388380D01*
X59907714Y-53485142D01*
X59956095Y-53678666D01*
X59956095Y-53920571D01*
X59907714Y-54114095D01*
X59859333Y-54210857D01*
X59810952Y-54259238D01*
X59714190Y-54307619D01*
X59617428Y-54307619D01*
X59520666Y-54259238D01*
X59472285Y-54210857D01*
X59423904Y-54114095D01*
X59375523Y-53920571D01*
X59375523Y-53678666D01*
X59423904Y-53485142D01*
X59472285Y-53388380D01*
X59520666Y-53340000D01*
X59617428Y-53291619D01*
X60343142Y-53388380D02*
X60391523Y-53340000D01*
X60488285Y-53291619D01*
X60730190Y-53291619D01*
X60826952Y-53340000D01*
X60875333Y-53388380D01*
X60923714Y-53485142D01*
X60923714Y-53581904D01*
X60875333Y-53727047D01*
X60294761Y-54307619D01*
X60923714Y-54307619D01*
D11*
X52433333Y-109452380D02*
X52766666Y-110452380D01*
X53100000Y-109452380D01*
X53433333Y-110452380D02*
X53433333Y-109452380D01*
X53671428Y-109452380D01*
X53814285Y-109500000D01*
X53909523Y-109595238D01*
X53957142Y-109690476D01*
X54004761Y-109880952D01*
X54004761Y-110023809D01*
X53957142Y-110214285D01*
X53909523Y-110309523D01*
X53814285Y-110404761D01*
X53671428Y-110452380D01*
X53433333Y-110452380D01*
X54433333Y-110452380D02*
X54433333Y-109452380D01*
X54671428Y-109452380D01*
X54814285Y-109500000D01*
X54909523Y-109595238D01*
X54957142Y-109690476D01*
X55004761Y-109880952D01*
X55004761Y-110023809D01*
X54957142Y-110214285D01*
X54909523Y-110309523D01*
X54814285Y-110404761D01*
X54671428Y-110452380D01*
X54433333Y-110452380D01*
X55195238Y-110547619D02*
X55957142Y-110547619D01*
X56100000Y-109452380D02*
X56719047Y-109452380D01*
X56385714Y-109833333D01*
X56528571Y-109833333D01*
X56623809Y-109880952D01*
X56671428Y-109928571D01*
X56719047Y-110023809D01*
X56719047Y-110261904D01*
X56671428Y-110357142D01*
X56623809Y-110404761D01*
X56528571Y-110452380D01*
X56242857Y-110452380D01*
X56147619Y-110404761D01*
X56100000Y-110357142D01*
X57052380Y-109452380D02*
X57671428Y-109452380D01*
X57338095Y-109833333D01*
X57480952Y-109833333D01*
X57576190Y-109880952D01*
X57623809Y-109928571D01*
X57671428Y-110023809D01*
X57671428Y-110261904D01*
X57623809Y-110357142D01*
X57576190Y-110404761D01*
X57480952Y-110452380D01*
X57195238Y-110452380D01*
X57100000Y-110404761D01*
X57052380Y-110357142D01*
X55133333Y-103302380D02*
X55466666Y-104302380D01*
X55800000Y-103302380D01*
X56133333Y-104302380D02*
X56133333Y-103302380D01*
X56371428Y-103302380D01*
X56514285Y-103350000D01*
X56609523Y-103445238D01*
X56657142Y-103540476D01*
X56704761Y-103730952D01*
X56704761Y-103873809D01*
X56657142Y-104064285D01*
X56609523Y-104159523D01*
X56514285Y-104254761D01*
X56371428Y-104302380D01*
X56133333Y-104302380D01*
X57133333Y-104302380D02*
X57133333Y-103302380D01*
X57371428Y-103302380D01*
X57514285Y-103350000D01*
X57609523Y-103445238D01*
X57657142Y-103540476D01*
X57704761Y-103730952D01*
X57704761Y-103873809D01*
X57657142Y-104064285D01*
X57609523Y-104159523D01*
X57514285Y-104254761D01*
X57371428Y-104302380D01*
X57133333Y-104302380D01*
X57895238Y-104397619D02*
X58657142Y-104397619D01*
X59419047Y-104302380D02*
X58847619Y-104302380D01*
X59133333Y-104302380D02*
X59133333Y-103302380D01*
X59038095Y-103445238D01*
X58942857Y-103540476D01*
X58847619Y-103588095D01*
X59990476Y-103730952D02*
X59895238Y-103683333D01*
X59847619Y-103635714D01*
X59800000Y-103540476D01*
X59800000Y-103492857D01*
X59847619Y-103397619D01*
X59895238Y-103350000D01*
X59990476Y-103302380D01*
X60180952Y-103302380D01*
X60276190Y-103350000D01*
X60323809Y-103397619D01*
X60371428Y-103492857D01*
X60371428Y-103540476D01*
X60323809Y-103635714D01*
X60276190Y-103683333D01*
X60180952Y-103730952D01*
X59990476Y-103730952D01*
X59895238Y-103778571D01*
X59847619Y-103826190D01*
X59800000Y-103921428D01*
X59800000Y-104111904D01*
X59847619Y-104207142D01*
X59895238Y-104254761D01*
X59990476Y-104302380D01*
X60180952Y-104302380D01*
X60276190Y-104254761D01*
X60323809Y-104207142D01*
X60371428Y-104111904D01*
X60371428Y-103921428D01*
X60323809Y-103826190D01*
X60276190Y-103778571D01*
X60180952Y-103730952D01*
X49140476Y-113902380D02*
X49473809Y-114902380D01*
X49807142Y-113902380D01*
X50140476Y-114902380D02*
X50140476Y-113902380D01*
X50378571Y-113902380D01*
X50521428Y-113950000D01*
X50616666Y-114045238D01*
X50664285Y-114140476D01*
X50711904Y-114330952D01*
X50711904Y-114473809D01*
X50664285Y-114664285D01*
X50616666Y-114759523D01*
X50521428Y-114854761D01*
X50378571Y-114902380D01*
X50140476Y-114902380D01*
X51140476Y-114902380D02*
X51140476Y-113902380D01*
X51378571Y-113902380D01*
X51521428Y-113950000D01*
X51616666Y-114045238D01*
X51664285Y-114140476D01*
X51711904Y-114330952D01*
X51711904Y-114473809D01*
X51664285Y-114664285D01*
X51616666Y-114759523D01*
X51521428Y-114854761D01*
X51378571Y-114902380D01*
X51140476Y-114902380D01*
X51902380Y-114997619D02*
X52664285Y-114997619D01*
X52902380Y-114235714D02*
X52902380Y-115235714D01*
X52902380Y-114283333D02*
X52997619Y-114235714D01*
X53188095Y-114235714D01*
X53283333Y-114283333D01*
X53330952Y-114330952D01*
X53378571Y-114426190D01*
X53378571Y-114711904D01*
X53330952Y-114807142D01*
X53283333Y-114854761D01*
X53188095Y-114902380D01*
X52997619Y-114902380D01*
X52902380Y-114854761D01*
X53807142Y-114902380D02*
X53807142Y-114235714D01*
X53807142Y-113902380D02*
X53759523Y-113950000D01*
X53807142Y-113997619D01*
X53854761Y-113950000D01*
X53807142Y-113902380D01*
X53807142Y-113997619D01*
X54188095Y-114902380D02*
X54711904Y-114235714D01*
X54188095Y-114235714D02*
X54711904Y-114902380D01*
D12*
X84963047Y-86618000D02*
X84915428Y-86594190D01*
X84844000Y-86594190D01*
X84772571Y-86618000D01*
X84724952Y-86665619D01*
X84701142Y-86713238D01*
X84677333Y-86808476D01*
X84677333Y-86879904D01*
X84701142Y-86975142D01*
X84724952Y-87022761D01*
X84772571Y-87070380D01*
X84844000Y-87094190D01*
X84891619Y-87094190D01*
X84963047Y-87070380D01*
X84986857Y-87046571D01*
X84986857Y-86879904D01*
X84891619Y-86879904D01*
X85201142Y-87094190D02*
X85201142Y-86594190D01*
X85486857Y-87094190D01*
X85486857Y-86594190D01*
X85724952Y-87094190D02*
X85724952Y-86594190D01*
X85844000Y-86594190D01*
X85915428Y-86618000D01*
X85963047Y-86665619D01*
X85986857Y-86713238D01*
X86010666Y-86808476D01*
X86010666Y-86879904D01*
X85986857Y-86975142D01*
X85963047Y-87022761D01*
X85915428Y-87070380D01*
X85844000Y-87094190D01*
X85724952Y-87094190D01*
X95865428Y-85578190D02*
X96032095Y-86078190D01*
X96198761Y-85578190D01*
X96365428Y-86078190D02*
X96365428Y-85578190D01*
X96484476Y-85578190D01*
X96555904Y-85602000D01*
X96603523Y-85649619D01*
X96627333Y-85697238D01*
X96651142Y-85792476D01*
X96651142Y-85863904D01*
X96627333Y-85959142D01*
X96603523Y-86006761D01*
X96555904Y-86054380D01*
X96484476Y-86078190D01*
X96365428Y-86078190D01*
X96865428Y-86078190D02*
X96865428Y-85578190D01*
X96984476Y-85578190D01*
X97055904Y-85602000D01*
X97103523Y-85649619D01*
X97127333Y-85697238D01*
X97151142Y-85792476D01*
X97151142Y-85863904D01*
X97127333Y-85959142D01*
X97103523Y-86006761D01*
X97055904Y-86054380D01*
X96984476Y-86078190D01*
X96865428Y-86078190D01*
X97246380Y-86125809D02*
X97627333Y-86125809D01*
X97722571Y-86054380D02*
X97794000Y-86078190D01*
X97913047Y-86078190D01*
X97960666Y-86054380D01*
X97984476Y-86030571D01*
X98008285Y-85982952D01*
X98008285Y-85935333D01*
X97984476Y-85887714D01*
X97960666Y-85863904D01*
X97913047Y-85840095D01*
X97817809Y-85816285D01*
X97770190Y-85792476D01*
X97746380Y-85768666D01*
X97722571Y-85721047D01*
X97722571Y-85673428D01*
X97746380Y-85625809D01*
X97770190Y-85602000D01*
X97817809Y-85578190D01*
X97936857Y-85578190D01*
X98008285Y-85602000D01*
X98103523Y-86125809D02*
X98484476Y-86125809D01*
X98889238Y-86030571D02*
X98865428Y-86054380D01*
X98794000Y-86078190D01*
X98746380Y-86078190D01*
X98674952Y-86054380D01*
X98627333Y-86006761D01*
X98603523Y-85959142D01*
X98579714Y-85863904D01*
X98579714Y-85792476D01*
X98603523Y-85697238D01*
X98627333Y-85649619D01*
X98674952Y-85602000D01*
X98746380Y-85578190D01*
X98794000Y-85578190D01*
X98865428Y-85602000D01*
X98889238Y-85625809D01*
X99032095Y-85578190D02*
X99317809Y-85578190D01*
X99174952Y-86078190D02*
X99174952Y-85578190D01*
X99770190Y-86078190D02*
X99603523Y-85840095D01*
X99484476Y-86078190D02*
X99484476Y-85578190D01*
X99674952Y-85578190D01*
X99722571Y-85602000D01*
X99746380Y-85625809D01*
X99770190Y-85673428D01*
X99770190Y-85744857D01*
X99746380Y-85792476D01*
X99722571Y-85816285D01*
X99674952Y-85840095D01*
X99484476Y-85840095D01*
X100222571Y-86078190D02*
X99984476Y-86078190D01*
X99984476Y-85578190D01*
X98750476Y-83792190D02*
X98464761Y-83792190D01*
X98607619Y-83792190D02*
X98607619Y-83292190D01*
X98560000Y-83363619D01*
X98512380Y-83411238D01*
X98464761Y-83435047D01*
X98940952Y-83339809D02*
X98964761Y-83316000D01*
X99012380Y-83292190D01*
X99131428Y-83292190D01*
X99179047Y-83316000D01*
X99202857Y-83339809D01*
X99226666Y-83387428D01*
X99226666Y-83435047D01*
X99202857Y-83506476D01*
X98917142Y-83792190D01*
X99226666Y-83792190D01*
X99369523Y-83292190D02*
X99536190Y-83792190D01*
X99702857Y-83292190D01*
X90969523Y-80756190D02*
X90969523Y-80256190D01*
X91136190Y-80613333D01*
X91302857Y-80256190D01*
X91302857Y-80756190D01*
X91636190Y-80256190D02*
X91731428Y-80256190D01*
X91779047Y-80280000D01*
X91826666Y-80327619D01*
X91850476Y-80422857D01*
X91850476Y-80589523D01*
X91826666Y-80684761D01*
X91779047Y-80732380D01*
X91731428Y-80756190D01*
X91636190Y-80756190D01*
X91588571Y-80732380D01*
X91540952Y-80684761D01*
X91517142Y-80589523D01*
X91517142Y-80422857D01*
X91540952Y-80327619D01*
X91588571Y-80280000D01*
X91636190Y-80256190D01*
X92064761Y-80756190D02*
X92064761Y-80256190D01*
X92350476Y-80756190D01*
X92350476Y-80256190D01*
X92588571Y-80756190D02*
X92588571Y-80256190D01*
X92755238Y-80256190D02*
X93040952Y-80256190D01*
X92898095Y-80756190D02*
X92898095Y-80256190D01*
X93302857Y-80256190D02*
X93398095Y-80256190D01*
X93445714Y-80280000D01*
X93493333Y-80327619D01*
X93517142Y-80422857D01*
X93517142Y-80589523D01*
X93493333Y-80684761D01*
X93445714Y-80732380D01*
X93398095Y-80756190D01*
X93302857Y-80756190D01*
X93255238Y-80732380D01*
X93207619Y-80684761D01*
X93183809Y-80589523D01*
X93183809Y-80422857D01*
X93207619Y-80327619D01*
X93255238Y-80280000D01*
X93302857Y-80256190D01*
X94017142Y-80756190D02*
X93850476Y-80518095D01*
X93731428Y-80756190D02*
X93731428Y-80256190D01*
X93921904Y-80256190D01*
X93969523Y-80280000D01*
X93993333Y-80303809D01*
X94017142Y-80351428D01*
X94017142Y-80422857D01*
X93993333Y-80470476D01*
X93969523Y-80494285D01*
X93921904Y-80518095D01*
X93731428Y-80518095D01*
X94112380Y-80803809D02*
X94493333Y-80803809D01*
X94874285Y-80756190D02*
X94588571Y-80756190D01*
X94731428Y-80756190D02*
X94731428Y-80256190D01*
X94683809Y-80327619D01*
X94636190Y-80375238D01*
X94588571Y-80399047D01*
X84476666Y-78242380D02*
X84548095Y-78266190D01*
X84667142Y-78266190D01*
X84714761Y-78242380D01*
X84738571Y-78218571D01*
X84762380Y-78170952D01*
X84762380Y-78123333D01*
X84738571Y-78075714D01*
X84714761Y-78051904D01*
X84667142Y-78028095D01*
X84571904Y-78004285D01*
X84524285Y-77980476D01*
X84500476Y-77956666D01*
X84476666Y-77909047D01*
X84476666Y-77861428D01*
X84500476Y-77813809D01*
X84524285Y-77790000D01*
X84571904Y-77766190D01*
X84690952Y-77766190D01*
X84762380Y-77790000D01*
X84952857Y-78242380D02*
X85024285Y-78266190D01*
X85143333Y-78266190D01*
X85190952Y-78242380D01*
X85214761Y-78218571D01*
X85238571Y-78170952D01*
X85238571Y-78123333D01*
X85214761Y-78075714D01*
X85190952Y-78051904D01*
X85143333Y-78028095D01*
X85048095Y-78004285D01*
X85000476Y-77980476D01*
X84976666Y-77956666D01*
X84952857Y-77909047D01*
X84952857Y-77861428D01*
X84976666Y-77813809D01*
X85000476Y-77790000D01*
X85048095Y-77766190D01*
X85167142Y-77766190D01*
X85238571Y-77790000D01*
X85333809Y-78313809D02*
X85714761Y-78313809D01*
X85833809Y-78266190D02*
X85833809Y-77766190D01*
X86119523Y-78266190D01*
X86119523Y-77766190D01*
X83501428Y-80816190D02*
X83334761Y-80578095D01*
X83215714Y-80816190D02*
X83215714Y-80316190D01*
X83406190Y-80316190D01*
X83453809Y-80340000D01*
X83477619Y-80363809D01*
X83501428Y-80411428D01*
X83501428Y-80482857D01*
X83477619Y-80530476D01*
X83453809Y-80554285D01*
X83406190Y-80578095D01*
X83215714Y-80578095D01*
X83715714Y-80554285D02*
X83882380Y-80554285D01*
X83953809Y-80816190D02*
X83715714Y-80816190D01*
X83715714Y-80316190D01*
X83953809Y-80316190D01*
X84144285Y-80792380D02*
X84215714Y-80816190D01*
X84334761Y-80816190D01*
X84382380Y-80792380D01*
X84406190Y-80768571D01*
X84430000Y-80720952D01*
X84430000Y-80673333D01*
X84406190Y-80625714D01*
X84382380Y-80601904D01*
X84334761Y-80578095D01*
X84239523Y-80554285D01*
X84191904Y-80530476D01*
X84168095Y-80506666D01*
X84144285Y-80459047D01*
X84144285Y-80411428D01*
X84168095Y-80363809D01*
X84191904Y-80340000D01*
X84239523Y-80316190D01*
X84358571Y-80316190D01*
X84430000Y-80340000D01*
X84644285Y-80554285D02*
X84810952Y-80554285D01*
X84882380Y-80816190D02*
X84644285Y-80816190D01*
X84644285Y-80316190D01*
X84882380Y-80316190D01*
X85025238Y-80316190D02*
X85310952Y-80316190D01*
X85168095Y-80816190D02*
X85168095Y-80316190D01*
X85358571Y-80863809D02*
X85739523Y-80863809D01*
X85858571Y-80816190D02*
X85858571Y-80316190D01*
X86144285Y-80816190D01*
X86144285Y-80316190D01*
X90919523Y-78296190D02*
X90919523Y-77796190D01*
X91086190Y-78153333D01*
X91252857Y-77796190D01*
X91252857Y-78296190D01*
X91586190Y-77796190D02*
X91681428Y-77796190D01*
X91729047Y-77820000D01*
X91776666Y-77867619D01*
X91800476Y-77962857D01*
X91800476Y-78129523D01*
X91776666Y-78224761D01*
X91729047Y-78272380D01*
X91681428Y-78296190D01*
X91586190Y-78296190D01*
X91538571Y-78272380D01*
X91490952Y-78224761D01*
X91467142Y-78129523D01*
X91467142Y-77962857D01*
X91490952Y-77867619D01*
X91538571Y-77820000D01*
X91586190Y-77796190D01*
X92014761Y-78296190D02*
X92014761Y-77796190D01*
X92300476Y-78296190D01*
X92300476Y-77796190D01*
X92538571Y-78296190D02*
X92538571Y-77796190D01*
X92705238Y-77796190D02*
X92990952Y-77796190D01*
X92848095Y-78296190D02*
X92848095Y-77796190D01*
X93252857Y-77796190D02*
X93348095Y-77796190D01*
X93395714Y-77820000D01*
X93443333Y-77867619D01*
X93467142Y-77962857D01*
X93467142Y-78129523D01*
X93443333Y-78224761D01*
X93395714Y-78272380D01*
X93348095Y-78296190D01*
X93252857Y-78296190D01*
X93205238Y-78272380D01*
X93157619Y-78224761D01*
X93133809Y-78129523D01*
X93133809Y-77962857D01*
X93157619Y-77867619D01*
X93205238Y-77820000D01*
X93252857Y-77796190D01*
X93967142Y-78296190D02*
X93800476Y-78058095D01*
X93681428Y-78296190D02*
X93681428Y-77796190D01*
X93871904Y-77796190D01*
X93919523Y-77820000D01*
X93943333Y-77843809D01*
X93967142Y-77891428D01*
X93967142Y-77962857D01*
X93943333Y-78010476D01*
X93919523Y-78034285D01*
X93871904Y-78058095D01*
X93681428Y-78058095D01*
X94062380Y-78343809D02*
X94443333Y-78343809D01*
X94657619Y-77796190D02*
X94705238Y-77796190D01*
X94752857Y-77820000D01*
X94776666Y-77843809D01*
X94800476Y-77891428D01*
X94824285Y-77986666D01*
X94824285Y-78105714D01*
X94800476Y-78200952D01*
X94776666Y-78248571D01*
X94752857Y-78272380D01*
X94705238Y-78296190D01*
X94657619Y-78296190D01*
X94610000Y-78272380D01*
X94586190Y-78248571D01*
X94562380Y-78200952D01*
X94538571Y-78105714D01*
X94538571Y-77986666D01*
X94562380Y-77891428D01*
X94586190Y-77843809D01*
X94610000Y-77820000D01*
X94657619Y-77796190D01*
X84604761Y-70560380D02*
X84676190Y-70584190D01*
X84795238Y-70584190D01*
X84842857Y-70560380D01*
X84866666Y-70536571D01*
X84890476Y-70488952D01*
X84890476Y-70441333D01*
X84866666Y-70393714D01*
X84842857Y-70369904D01*
X84795238Y-70346095D01*
X84700000Y-70322285D01*
X84652380Y-70298476D01*
X84628571Y-70274666D01*
X84604761Y-70227047D01*
X84604761Y-70179428D01*
X84628571Y-70131809D01*
X84652380Y-70108000D01*
X84700000Y-70084190D01*
X84819047Y-70084190D01*
X84890476Y-70108000D01*
X85390476Y-70536571D02*
X85366666Y-70560380D01*
X85295238Y-70584190D01*
X85247619Y-70584190D01*
X85176190Y-70560380D01*
X85128571Y-70512761D01*
X85104761Y-70465142D01*
X85080952Y-70369904D01*
X85080952Y-70298476D01*
X85104761Y-70203238D01*
X85128571Y-70155619D01*
X85176190Y-70108000D01*
X85247619Y-70084190D01*
X85295238Y-70084190D01*
X85366666Y-70108000D01*
X85390476Y-70131809D01*
X85842857Y-70584190D02*
X85604761Y-70584190D01*
X85604761Y-70084190D01*
X86009523Y-70584190D02*
X86009523Y-70084190D01*
X86295238Y-70584190D02*
X86080952Y-70298476D01*
X86295238Y-70084190D02*
X86009523Y-70369904D01*
X84564285Y-73166190D02*
X84564285Y-72666190D01*
X84730952Y-73023333D01*
X84897619Y-72666190D01*
X84897619Y-73166190D01*
X85135714Y-73166190D02*
X85135714Y-72666190D01*
X85350000Y-73142380D02*
X85421428Y-73166190D01*
X85540476Y-73166190D01*
X85588095Y-73142380D01*
X85611904Y-73118571D01*
X85635714Y-73070952D01*
X85635714Y-73023333D01*
X85611904Y-72975714D01*
X85588095Y-72951904D01*
X85540476Y-72928095D01*
X85445238Y-72904285D01*
X85397619Y-72880476D01*
X85373809Y-72856666D01*
X85350000Y-72809047D01*
X85350000Y-72761428D01*
X85373809Y-72713809D01*
X85397619Y-72690000D01*
X85445238Y-72666190D01*
X85564285Y-72666190D01*
X85635714Y-72690000D01*
X85945238Y-72666190D02*
X86040476Y-72666190D01*
X86088095Y-72690000D01*
X86135714Y-72737619D01*
X86159523Y-72832857D01*
X86159523Y-72999523D01*
X86135714Y-73094761D01*
X86088095Y-73142380D01*
X86040476Y-73166190D01*
X85945238Y-73166190D01*
X85897619Y-73142380D01*
X85850000Y-73094761D01*
X85826190Y-72999523D01*
X85826190Y-72832857D01*
X85850000Y-72737619D01*
X85897619Y-72690000D01*
X85945238Y-72666190D01*
X90883333Y-75176190D02*
X91169047Y-75176190D01*
X91026190Y-75676190D02*
X91026190Y-75176190D01*
X91621428Y-75676190D02*
X91454761Y-75438095D01*
X91335714Y-75676190D02*
X91335714Y-75176190D01*
X91526190Y-75176190D01*
X91573809Y-75200000D01*
X91597619Y-75223809D01*
X91621428Y-75271428D01*
X91621428Y-75342857D01*
X91597619Y-75390476D01*
X91573809Y-75414285D01*
X91526190Y-75438095D01*
X91335714Y-75438095D01*
X91835714Y-75676190D02*
X91835714Y-75176190D01*
X92335714Y-75200000D02*
X92288095Y-75176190D01*
X92216666Y-75176190D01*
X92145238Y-75200000D01*
X92097619Y-75247619D01*
X92073809Y-75295238D01*
X92050000Y-75390476D01*
X92050000Y-75461904D01*
X92073809Y-75557142D01*
X92097619Y-75604761D01*
X92145238Y-75652380D01*
X92216666Y-75676190D01*
X92264285Y-75676190D01*
X92335714Y-75652380D01*
X92359523Y-75628571D01*
X92359523Y-75461904D01*
X92264285Y-75461904D01*
X92835714Y-75200000D02*
X92788095Y-75176190D01*
X92716666Y-75176190D01*
X92645238Y-75200000D01*
X92597619Y-75247619D01*
X92573809Y-75295238D01*
X92550000Y-75390476D01*
X92550000Y-75461904D01*
X92573809Y-75557142D01*
X92597619Y-75604761D01*
X92645238Y-75652380D01*
X92716666Y-75676190D01*
X92764285Y-75676190D01*
X92835714Y-75652380D01*
X92859523Y-75628571D01*
X92859523Y-75461904D01*
X92764285Y-75461904D01*
X93073809Y-75414285D02*
X93240476Y-75414285D01*
X93311904Y-75676190D02*
X93073809Y-75676190D01*
X93073809Y-75176190D01*
X93311904Y-75176190D01*
X93811904Y-75676190D02*
X93645238Y-75438095D01*
X93526190Y-75676190D02*
X93526190Y-75176190D01*
X93716666Y-75176190D01*
X93764285Y-75200000D01*
X93788095Y-75223809D01*
X93811904Y-75271428D01*
X93811904Y-75342857D01*
X93788095Y-75390476D01*
X93764285Y-75414285D01*
X93716666Y-75438095D01*
X93526190Y-75438095D01*
X93907142Y-75723809D02*
X94288095Y-75723809D01*
X94383333Y-75223809D02*
X94407142Y-75200000D01*
X94454761Y-75176190D01*
X94573809Y-75176190D01*
X94621428Y-75200000D01*
X94645238Y-75223809D01*
X94669047Y-75271428D01*
X94669047Y-75319047D01*
X94645238Y-75390476D01*
X94359523Y-75676190D01*
X94669047Y-75676190D01*
X84564285Y-75776190D02*
X84564285Y-75276190D01*
X84730952Y-75633333D01*
X84897619Y-75276190D01*
X84897619Y-75776190D01*
X85230952Y-75276190D02*
X85326190Y-75276190D01*
X85373809Y-75300000D01*
X85421428Y-75347619D01*
X85445238Y-75442857D01*
X85445238Y-75609523D01*
X85421428Y-75704761D01*
X85373809Y-75752380D01*
X85326190Y-75776190D01*
X85230952Y-75776190D01*
X85183333Y-75752380D01*
X85135714Y-75704761D01*
X85111904Y-75609523D01*
X85111904Y-75442857D01*
X85135714Y-75347619D01*
X85183333Y-75300000D01*
X85230952Y-75276190D01*
X85635714Y-75752380D02*
X85707142Y-75776190D01*
X85826190Y-75776190D01*
X85873809Y-75752380D01*
X85897619Y-75728571D01*
X85921428Y-75680952D01*
X85921428Y-75633333D01*
X85897619Y-75585714D01*
X85873809Y-75561904D01*
X85826190Y-75538095D01*
X85730952Y-75514285D01*
X85683333Y-75490476D01*
X85659523Y-75466666D01*
X85635714Y-75419047D01*
X85635714Y-75371428D01*
X85659523Y-75323809D01*
X85683333Y-75300000D01*
X85730952Y-75276190D01*
X85850000Y-75276190D01*
X85921428Y-75300000D01*
X86135714Y-75776190D02*
X86135714Y-75276190D01*
X90883333Y-72636190D02*
X91169047Y-72636190D01*
X91026190Y-73136190D02*
X91026190Y-72636190D01*
X91621428Y-73136190D02*
X91454761Y-72898095D01*
X91335714Y-73136190D02*
X91335714Y-72636190D01*
X91526190Y-72636190D01*
X91573809Y-72660000D01*
X91597619Y-72683809D01*
X91621428Y-72731428D01*
X91621428Y-72802857D01*
X91597619Y-72850476D01*
X91573809Y-72874285D01*
X91526190Y-72898095D01*
X91335714Y-72898095D01*
X91835714Y-73136190D02*
X91835714Y-72636190D01*
X92335714Y-72660000D02*
X92288095Y-72636190D01*
X92216666Y-72636190D01*
X92145238Y-72660000D01*
X92097619Y-72707619D01*
X92073809Y-72755238D01*
X92050000Y-72850476D01*
X92050000Y-72921904D01*
X92073809Y-73017142D01*
X92097619Y-73064761D01*
X92145238Y-73112380D01*
X92216666Y-73136190D01*
X92264285Y-73136190D01*
X92335714Y-73112380D01*
X92359523Y-73088571D01*
X92359523Y-72921904D01*
X92264285Y-72921904D01*
X92835714Y-72660000D02*
X92788095Y-72636190D01*
X92716666Y-72636190D01*
X92645238Y-72660000D01*
X92597619Y-72707619D01*
X92573809Y-72755238D01*
X92550000Y-72850476D01*
X92550000Y-72921904D01*
X92573809Y-73017142D01*
X92597619Y-73064761D01*
X92645238Y-73112380D01*
X92716666Y-73136190D01*
X92764285Y-73136190D01*
X92835714Y-73112380D01*
X92859523Y-73088571D01*
X92859523Y-72921904D01*
X92764285Y-72921904D01*
X93073809Y-72874285D02*
X93240476Y-72874285D01*
X93311904Y-73136190D02*
X93073809Y-73136190D01*
X93073809Y-72636190D01*
X93311904Y-72636190D01*
X93811904Y-73136190D02*
X93645238Y-72898095D01*
X93526190Y-73136190D02*
X93526190Y-72636190D01*
X93716666Y-72636190D01*
X93764285Y-72660000D01*
X93788095Y-72683809D01*
X93811904Y-72731428D01*
X93811904Y-72802857D01*
X93788095Y-72850476D01*
X93764285Y-72874285D01*
X93716666Y-72898095D01*
X93526190Y-72898095D01*
X93907142Y-73183809D02*
X94288095Y-73183809D01*
X94669047Y-73136190D02*
X94383333Y-73136190D01*
X94526190Y-73136190D02*
X94526190Y-72636190D01*
X94478571Y-72707619D01*
X94430952Y-72755238D01*
X94383333Y-72779047D01*
X90863333Y-70086190D02*
X91149047Y-70086190D01*
X91006190Y-70586190D02*
X91006190Y-70086190D01*
X91601428Y-70586190D02*
X91434761Y-70348095D01*
X91315714Y-70586190D02*
X91315714Y-70086190D01*
X91506190Y-70086190D01*
X91553809Y-70110000D01*
X91577619Y-70133809D01*
X91601428Y-70181428D01*
X91601428Y-70252857D01*
X91577619Y-70300476D01*
X91553809Y-70324285D01*
X91506190Y-70348095D01*
X91315714Y-70348095D01*
X91815714Y-70586190D02*
X91815714Y-70086190D01*
X92315714Y-70110000D02*
X92268095Y-70086190D01*
X92196666Y-70086190D01*
X92125238Y-70110000D01*
X92077619Y-70157619D01*
X92053809Y-70205238D01*
X92030000Y-70300476D01*
X92030000Y-70371904D01*
X92053809Y-70467142D01*
X92077619Y-70514761D01*
X92125238Y-70562380D01*
X92196666Y-70586190D01*
X92244285Y-70586190D01*
X92315714Y-70562380D01*
X92339523Y-70538571D01*
X92339523Y-70371904D01*
X92244285Y-70371904D01*
X92815714Y-70110000D02*
X92768095Y-70086190D01*
X92696666Y-70086190D01*
X92625238Y-70110000D01*
X92577619Y-70157619D01*
X92553809Y-70205238D01*
X92530000Y-70300476D01*
X92530000Y-70371904D01*
X92553809Y-70467142D01*
X92577619Y-70514761D01*
X92625238Y-70562380D01*
X92696666Y-70586190D01*
X92744285Y-70586190D01*
X92815714Y-70562380D01*
X92839523Y-70538571D01*
X92839523Y-70371904D01*
X92744285Y-70371904D01*
X93053809Y-70324285D02*
X93220476Y-70324285D01*
X93291904Y-70586190D02*
X93053809Y-70586190D01*
X93053809Y-70086190D01*
X93291904Y-70086190D01*
X93791904Y-70586190D02*
X93625238Y-70348095D01*
X93506190Y-70586190D02*
X93506190Y-70086190D01*
X93696666Y-70086190D01*
X93744285Y-70110000D01*
X93768095Y-70133809D01*
X93791904Y-70181428D01*
X93791904Y-70252857D01*
X93768095Y-70300476D01*
X93744285Y-70324285D01*
X93696666Y-70348095D01*
X93506190Y-70348095D01*
X93887142Y-70633809D02*
X94268095Y-70633809D01*
X94482380Y-70086190D02*
X94530000Y-70086190D01*
X94577619Y-70110000D01*
X94601428Y-70133809D01*
X94625238Y-70181428D01*
X94649047Y-70276666D01*
X94649047Y-70395714D01*
X94625238Y-70490952D01*
X94601428Y-70538571D01*
X94577619Y-70562380D01*
X94530000Y-70586190D01*
X94482380Y-70586190D01*
X94434761Y-70562380D01*
X94410952Y-70538571D01*
X94387142Y-70490952D01*
X94363333Y-70395714D01*
X94363333Y-70276666D01*
X94387142Y-70181428D01*
X94410952Y-70133809D01*
X94434761Y-70110000D01*
X94482380Y-70086190D01*
X36667619Y-76418285D02*
X36834285Y-76418285D01*
X36905714Y-76680190D02*
X36667619Y-76680190D01*
X36667619Y-76180190D01*
X36905714Y-76180190D01*
X37120000Y-76346857D02*
X37120000Y-76680190D01*
X37120000Y-76394476D02*
X37143809Y-76370666D01*
X37191428Y-76346857D01*
X37262857Y-76346857D01*
X37310476Y-76370666D01*
X37334285Y-76418285D01*
X37334285Y-76680190D01*
X37786666Y-76680190D02*
X37786666Y-76418285D01*
X37762857Y-76370666D01*
X37715238Y-76346857D01*
X37620000Y-76346857D01*
X37572380Y-76370666D01*
X37786666Y-76656380D02*
X37739047Y-76680190D01*
X37620000Y-76680190D01*
X37572380Y-76656380D01*
X37548571Y-76608761D01*
X37548571Y-76561142D01*
X37572380Y-76513523D01*
X37620000Y-76489714D01*
X37739047Y-76489714D01*
X37786666Y-76465904D01*
X38024761Y-76680190D02*
X38024761Y-76180190D01*
X38024761Y-76370666D02*
X38072380Y-76346857D01*
X38167619Y-76346857D01*
X38215238Y-76370666D01*
X38239047Y-76394476D01*
X38262857Y-76442095D01*
X38262857Y-76584952D01*
X38239047Y-76632571D01*
X38215238Y-76656380D01*
X38167619Y-76680190D01*
X38072380Y-76680190D01*
X38024761Y-76656380D01*
X38548571Y-76680190D02*
X38500952Y-76656380D01*
X38477142Y-76608761D01*
X38477142Y-76180190D01*
X38929523Y-76656380D02*
X38881904Y-76680190D01*
X38786666Y-76680190D01*
X38739047Y-76656380D01*
X38715238Y-76608761D01*
X38715238Y-76418285D01*
X38739047Y-76370666D01*
X38786666Y-76346857D01*
X38881904Y-76346857D01*
X38929523Y-76370666D01*
X38953333Y-76418285D01*
X38953333Y-76465904D01*
X38715238Y-76513523D01*
X39048571Y-76727809D02*
X39429523Y-76727809D01*
X39477142Y-76180190D02*
X39643809Y-76680190D01*
X39810476Y-76180190D01*
X39977142Y-76680190D02*
X39977142Y-76180190D01*
X40096190Y-76180190D01*
X40167619Y-76204000D01*
X40215238Y-76251619D01*
X40239047Y-76299238D01*
X40262857Y-76394476D01*
X40262857Y-76465904D01*
X40239047Y-76561142D01*
X40215238Y-76608761D01*
X40167619Y-76656380D01*
X40096190Y-76680190D01*
X39977142Y-76680190D01*
X40477142Y-76680190D02*
X40477142Y-76180190D01*
X40596190Y-76180190D01*
X40667619Y-76204000D01*
X40715238Y-76251619D01*
X40739047Y-76299238D01*
X40762857Y-76394476D01*
X40762857Y-76465904D01*
X40739047Y-76561142D01*
X40715238Y-76608761D01*
X40667619Y-76656380D01*
X40596190Y-76680190D01*
X40477142Y-76680190D01*
X40858095Y-76727809D02*
X41239047Y-76727809D01*
X41619999Y-76680190D02*
X41334285Y-76680190D01*
X41477142Y-76680190D02*
X41477142Y-76180190D01*
X41429523Y-76251619D01*
X41381904Y-76299238D01*
X41334285Y-76323047D01*
X41905714Y-76394476D02*
X41858095Y-76370666D01*
X41834285Y-76346857D01*
X41810476Y-76299238D01*
X41810476Y-76275428D01*
X41834285Y-76227809D01*
X41858095Y-76204000D01*
X41905714Y-76180190D01*
X42000952Y-76180190D01*
X42048571Y-76204000D01*
X42072380Y-76227809D01*
X42096190Y-76275428D01*
X42096190Y-76299238D01*
X42072380Y-76346857D01*
X42048571Y-76370666D01*
X42000952Y-76394476D01*
X41905714Y-76394476D01*
X41858095Y-76418285D01*
X41834285Y-76442095D01*
X41810476Y-76489714D01*
X41810476Y-76584952D01*
X41834285Y-76632571D01*
X41858095Y-76656380D01*
X41905714Y-76680190D01*
X42000952Y-76680190D01*
X42048571Y-76656380D01*
X42072380Y-76632571D01*
X42096190Y-76584952D01*
X42096190Y-76489714D01*
X42072380Y-76442095D01*
X42048571Y-76418285D01*
X42000952Y-76394476D01*
X36667619Y-78958285D02*
X36834285Y-78958285D01*
X36905714Y-79220190D02*
X36667619Y-79220190D01*
X36667619Y-78720190D01*
X36905714Y-78720190D01*
X37120000Y-78886857D02*
X37120000Y-79220190D01*
X37120000Y-78934476D02*
X37143809Y-78910666D01*
X37191428Y-78886857D01*
X37262857Y-78886857D01*
X37310476Y-78910666D01*
X37334285Y-78958285D01*
X37334285Y-79220190D01*
X37786666Y-79220190D02*
X37786666Y-78958285D01*
X37762857Y-78910666D01*
X37715238Y-78886857D01*
X37620000Y-78886857D01*
X37572380Y-78910666D01*
X37786666Y-79196380D02*
X37739047Y-79220190D01*
X37620000Y-79220190D01*
X37572380Y-79196380D01*
X37548571Y-79148761D01*
X37548571Y-79101142D01*
X37572380Y-79053523D01*
X37620000Y-79029714D01*
X37739047Y-79029714D01*
X37786666Y-79005904D01*
X38024761Y-79220190D02*
X38024761Y-78720190D01*
X38024761Y-78910666D02*
X38072380Y-78886857D01*
X38167619Y-78886857D01*
X38215238Y-78910666D01*
X38239047Y-78934476D01*
X38262857Y-78982095D01*
X38262857Y-79124952D01*
X38239047Y-79172571D01*
X38215238Y-79196380D01*
X38167619Y-79220190D01*
X38072380Y-79220190D01*
X38024761Y-79196380D01*
X38548571Y-79220190D02*
X38500952Y-79196380D01*
X38477142Y-79148761D01*
X38477142Y-78720190D01*
X38929523Y-79196380D02*
X38881904Y-79220190D01*
X38786666Y-79220190D01*
X38739047Y-79196380D01*
X38715238Y-79148761D01*
X38715238Y-78958285D01*
X38739047Y-78910666D01*
X38786666Y-78886857D01*
X38881904Y-78886857D01*
X38929523Y-78910666D01*
X38953333Y-78958285D01*
X38953333Y-79005904D01*
X38715238Y-79053523D01*
X39048571Y-79267809D02*
X39429523Y-79267809D01*
X39477142Y-78720190D02*
X39643809Y-79220190D01*
X39810476Y-78720190D01*
X39977142Y-79220190D02*
X39977142Y-78720190D01*
X40096190Y-78720190D01*
X40167619Y-78744000D01*
X40215238Y-78791619D01*
X40239047Y-78839238D01*
X40262857Y-78934476D01*
X40262857Y-79005904D01*
X40239047Y-79101142D01*
X40215238Y-79148761D01*
X40167619Y-79196380D01*
X40096190Y-79220190D01*
X39977142Y-79220190D01*
X40477142Y-79220190D02*
X40477142Y-78720190D01*
X40596190Y-78720190D01*
X40667619Y-78744000D01*
X40715238Y-78791619D01*
X40739047Y-78839238D01*
X40762857Y-78934476D01*
X40762857Y-79005904D01*
X40739047Y-79101142D01*
X40715238Y-79148761D01*
X40667619Y-79196380D01*
X40596190Y-79220190D01*
X40477142Y-79220190D01*
X40858095Y-79267809D02*
X41239047Y-79267809D01*
X41310476Y-78720190D02*
X41619999Y-78720190D01*
X41453333Y-78910666D01*
X41524761Y-78910666D01*
X41572380Y-78934476D01*
X41596190Y-78958285D01*
X41619999Y-79005904D01*
X41619999Y-79124952D01*
X41596190Y-79172571D01*
X41572380Y-79196380D01*
X41524761Y-79220190D01*
X41381904Y-79220190D01*
X41334285Y-79196380D01*
X41310476Y-79172571D01*
X41786666Y-78720190D02*
X42096190Y-78720190D01*
X41929523Y-78910666D01*
X42000952Y-78910666D01*
X42048571Y-78934476D01*
X42072380Y-78958285D01*
X42096190Y-79005904D01*
X42096190Y-79124952D01*
X42072380Y-79172571D01*
X42048571Y-79196380D01*
X42000952Y-79220190D01*
X41858095Y-79220190D01*
X41810476Y-79196380D01*
X41786666Y-79172571D01*
X35072190Y-82514285D02*
X35238857Y-82514285D01*
X35310285Y-82776190D02*
X35072190Y-82776190D01*
X35072190Y-82276190D01*
X35310285Y-82276190D01*
X35524571Y-82442857D02*
X35524571Y-82776190D01*
X35524571Y-82490476D02*
X35548380Y-82466666D01*
X35596000Y-82442857D01*
X35667428Y-82442857D01*
X35715047Y-82466666D01*
X35738857Y-82514285D01*
X35738857Y-82776190D01*
X36191238Y-82776190D02*
X36191238Y-82514285D01*
X36167428Y-82466666D01*
X36119809Y-82442857D01*
X36024571Y-82442857D01*
X35976952Y-82466666D01*
X36191238Y-82752380D02*
X36143619Y-82776190D01*
X36024571Y-82776190D01*
X35976952Y-82752380D01*
X35953142Y-82704761D01*
X35953142Y-82657142D01*
X35976952Y-82609523D01*
X36024571Y-82585714D01*
X36143619Y-82585714D01*
X36191238Y-82561904D01*
X36429333Y-82776190D02*
X36429333Y-82276190D01*
X36429333Y-82466666D02*
X36476952Y-82442857D01*
X36572190Y-82442857D01*
X36619809Y-82466666D01*
X36643619Y-82490476D01*
X36667428Y-82538095D01*
X36667428Y-82680952D01*
X36643619Y-82728571D01*
X36619809Y-82752380D01*
X36572190Y-82776190D01*
X36476952Y-82776190D01*
X36429333Y-82752380D01*
X36953142Y-82776190D02*
X36905523Y-82752380D01*
X36881714Y-82704761D01*
X36881714Y-82276190D01*
X37334095Y-82752380D02*
X37286476Y-82776190D01*
X37191238Y-82776190D01*
X37143619Y-82752380D01*
X37119809Y-82704761D01*
X37119809Y-82514285D01*
X37143619Y-82466666D01*
X37191238Y-82442857D01*
X37286476Y-82442857D01*
X37334095Y-82466666D01*
X37357904Y-82514285D01*
X37357904Y-82561904D01*
X37119809Y-82609523D01*
X37453142Y-82823809D02*
X37834095Y-82823809D01*
X37881714Y-82276190D02*
X38048380Y-82776190D01*
X38215047Y-82276190D01*
X38381714Y-82776190D02*
X38381714Y-82276190D01*
X38500761Y-82276190D01*
X38572190Y-82300000D01*
X38619809Y-82347619D01*
X38643619Y-82395238D01*
X38667428Y-82490476D01*
X38667428Y-82561904D01*
X38643619Y-82657142D01*
X38619809Y-82704761D01*
X38572190Y-82752380D01*
X38500761Y-82776190D01*
X38381714Y-82776190D01*
X38881714Y-82776190D02*
X38881714Y-82276190D01*
X39000761Y-82276190D01*
X39072190Y-82300000D01*
X39119809Y-82347619D01*
X39143619Y-82395238D01*
X39167428Y-82490476D01*
X39167428Y-82561904D01*
X39143619Y-82657142D01*
X39119809Y-82704761D01*
X39072190Y-82752380D01*
X39000761Y-82776190D01*
X38881714Y-82776190D01*
X39262666Y-82823809D02*
X39643619Y-82823809D01*
X39762666Y-82442857D02*
X39762666Y-82942857D01*
X39762666Y-82466666D02*
X39810285Y-82442857D01*
X39905523Y-82442857D01*
X39953142Y-82466666D01*
X39976952Y-82490476D01*
X40000761Y-82538095D01*
X40000761Y-82680952D01*
X39976952Y-82728571D01*
X39953142Y-82752380D01*
X39905523Y-82776190D01*
X39810285Y-82776190D01*
X39762666Y-82752380D01*
X40215047Y-82776190D02*
X40215047Y-82442857D01*
X40215047Y-82276190D02*
X40191238Y-82300000D01*
X40215047Y-82323809D01*
X40238857Y-82300000D01*
X40215047Y-82276190D01*
X40215047Y-82323809D01*
X40405523Y-82776190D02*
X40667428Y-82442857D01*
X40405523Y-82442857D02*
X40667428Y-82776190D01*
X39497142Y-74128571D02*
X39473333Y-74152380D01*
X39401904Y-74176190D01*
X39354285Y-74176190D01*
X39282857Y-74152380D01*
X39235238Y-74104761D01*
X39211428Y-74057142D01*
X39187619Y-73961904D01*
X39187619Y-73890476D01*
X39211428Y-73795238D01*
X39235238Y-73747619D01*
X39282857Y-73700000D01*
X39354285Y-73676190D01*
X39401904Y-73676190D01*
X39473333Y-73700000D01*
X39497142Y-73723809D01*
X39949523Y-74176190D02*
X39711428Y-74176190D01*
X39711428Y-73676190D01*
X40116190Y-74176190D02*
X40116190Y-73676190D01*
X40401904Y-74176190D02*
X40187619Y-73890476D01*
X40401904Y-73676190D02*
X40116190Y-73961904D01*
X40497142Y-74223809D02*
X40878095Y-74223809D01*
X40997142Y-74176190D02*
X40997142Y-73676190D01*
X41187619Y-73676190D01*
X41235238Y-73700000D01*
X41259047Y-73723809D01*
X41282857Y-73771428D01*
X41282857Y-73842857D01*
X41259047Y-73890476D01*
X41235238Y-73914285D01*
X41187619Y-73938095D01*
X40997142Y-73938095D01*
X41735238Y-74176190D02*
X41497142Y-74176190D01*
X41497142Y-73676190D01*
X42140000Y-74176190D02*
X41901904Y-74176190D01*
X41901904Y-73676190D01*
D11*
X101000000Y-115450000D02*
X101000000Y-129450000D01*
X96000000Y-115450000D02*
X96000000Y-119450000D01*
X96000000Y-99450000D02*
X96000000Y-103450000D01*
X101000000Y-89450000D02*
X101000000Y-103450000D01*
X66000000Y-129450000D02*
X101000000Y-129450000D01*
X101000000Y-89450000D02*
X66000000Y-89450000D01*
X95000000Y-103450000D02*
X101000000Y-103450000D01*
X95000000Y-115450000D02*
X101000000Y-115450000D01*
X76000000Y-119450000D02*
X66000000Y-119450000D01*
X76000000Y-99450000D02*
X66000000Y-99450000D01*
X82000000Y-93450000D02*
X82000000Y-99450000D01*
X82000000Y-99450000D02*
X76000000Y-99450000D01*
X76000000Y-99450000D02*
X76000000Y-119450000D01*
X76000000Y-119450000D02*
X82000000Y-119450000D01*
X82000000Y-119450000D02*
X82000000Y-125450000D01*
X82000000Y-125450000D02*
X90000000Y-125450000D01*
X90000000Y-125450000D02*
X90000000Y-119450000D01*
X90000000Y-119450000D02*
X96000000Y-119450000D01*
X96000000Y-99450000D02*
X90000000Y-99450000D01*
X90000000Y-99450000D02*
X90000000Y-93450000D01*
X90000000Y-93450000D02*
X82000000Y-93450000D01*
X89500000Y-98450000D02*
X89500000Y-103450000D01*
X89500000Y-103450000D02*
X95000000Y-103450000D01*
X95000000Y-115450000D02*
X89500000Y-115450000D01*
X89500000Y-115450000D02*
X89500000Y-120450000D01*
X89500000Y-120450000D02*
X82500000Y-120450000D01*
X82500000Y-120450000D02*
X82500000Y-115450000D01*
X82500000Y-115450000D02*
X77000000Y-115450000D01*
X77000000Y-115450000D02*
X77000000Y-103450000D01*
X77000000Y-103450000D02*
X82500000Y-103450000D01*
X82500000Y-103450000D02*
X82500000Y-98450000D01*
X82500000Y-98450000D02*
X89500000Y-98450000D01*
X66000000Y-89450000D02*
X66000000Y-129450000D01*
X64626000Y-100954000D02*
X64626000Y-101454000D01*
X63126000Y-99454000D02*
X64626000Y-100954000D01*
X62626000Y-99454000D02*
X63126000Y-99454000D01*
X64626000Y-119454000D02*
X64626000Y-102454000D01*
X61626000Y-99454000D02*
X44626000Y-99454000D01*
X44626000Y-99454000D02*
X44626000Y-119454000D01*
X44626000Y-119454000D02*
X64626000Y-119454000D01*
X64626000Y-102454000D02*
X64626000Y-101454000D01*
X62626000Y-99454000D02*
X61626000Y-99454000D01*
D12*
X42050000Y-106750000D02*
X42050000Y-106150000D01*
X39450000Y-105550000D02*
X39950000Y-105550000D01*
X39450000Y-105550000D02*
X38950000Y-105550000D01*
X39450000Y-107350000D02*
X39950000Y-107350000D01*
X39450000Y-107350000D02*
X38950000Y-107350000D01*
D13*
X66190000Y-104010000D02*
X66190000Y-104610000D01*
X65590000Y-104010000D02*
X65590000Y-104610000D01*
X50050000Y-121500000D02*
X49450000Y-121500000D01*
X50050000Y-120900000D02*
X49450000Y-120900000D01*
X66230000Y-109160000D02*
X66230000Y-109760000D01*
X65630000Y-109160000D02*
X65630000Y-109760000D01*
X43510000Y-119760000D02*
X42910000Y-119760000D01*
X43510000Y-119160000D02*
X42910000Y-119160000D01*
X67650000Y-101890000D02*
X68250000Y-101890000D01*
X67650000Y-102490000D02*
X68250000Y-102490000D01*
X53314000Y-125472000D02*
X52714000Y-125472000D01*
X53314000Y-124872000D02*
X52714000Y-124872000D01*
X45400000Y-120850000D02*
X46000000Y-120850000D01*
X45400000Y-121450000D02*
X46000000Y-121450000D01*
X65550000Y-101850000D02*
X65550000Y-101250000D01*
X66150000Y-101850000D02*
X66150000Y-101250000D01*
X70150000Y-107600000D02*
X70750000Y-107600000D01*
X70150000Y-108200000D02*
X70750000Y-108200000D01*
X43190000Y-121420000D02*
X42590000Y-121420000D01*
X43190000Y-120820000D02*
X42590000Y-120820000D01*
X67650000Y-103340000D02*
X68250000Y-103340000D01*
X67650000Y-103940000D02*
X68250000Y-103940000D01*
X43320000Y-115550000D02*
X43320000Y-116150000D01*
X43920000Y-115550000D02*
X43920000Y-116150000D01*
X42900000Y-107300000D02*
X42900000Y-107900000D01*
X43500000Y-107300000D02*
X43500000Y-107900000D01*
X43700000Y-111500000D02*
X43700000Y-112100000D01*
X43100000Y-111500000D02*
X43100000Y-112100000D01*
X60740000Y-122740000D02*
X61340000Y-122740000D01*
X60740000Y-123340000D02*
X61340000Y-123340000D01*
X42040000Y-115610000D02*
X42040000Y-116210000D01*
X41440000Y-115610000D02*
X41440000Y-116210000D01*
X42880000Y-105350000D02*
X42880000Y-104750000D01*
X43480000Y-105350000D02*
X43480000Y-104750000D01*
X55930000Y-121100000D02*
X56530000Y-121100000D01*
X55930000Y-120500000D02*
X56530000Y-120500000D01*
X60720000Y-120750000D02*
X61320000Y-120750000D01*
X60720000Y-121350000D02*
X61320000Y-121350000D01*
X53314000Y-123440000D02*
X52714000Y-123440000D01*
X53314000Y-122840000D02*
X52714000Y-122840000D01*
X42050000Y-111500000D02*
X42050000Y-112100000D01*
X41450000Y-111500000D02*
X41450000Y-112100000D01*
X60740000Y-124650000D02*
X61340000Y-124650000D01*
X60740000Y-125250000D02*
X61340000Y-125250000D01*
X53314000Y-121408000D02*
X52714000Y-121408000D01*
X53314000Y-120808000D02*
X52714000Y-120808000D01*
X43450000Y-101730000D02*
X43450000Y-102330000D01*
X42850000Y-101730000D02*
X42850000Y-102330000D01*
X42450000Y-114150000D02*
X41850000Y-114150000D01*
X42450000Y-113550000D02*
X41850000Y-113550000D01*
X51800000Y-106300000D02*
X51200000Y-106300000D01*
X51800000Y-106900000D02*
X51200000Y-106900000D01*
D12*
X50600000Y-124250000D02*
X50600000Y-124900000D01*
X47860000Y-124250000D02*
X47860000Y-124890000D01*
X70120000Y-110785000D02*
X70120000Y-111435000D01*
X67380000Y-110785000D02*
X67380000Y-111425000D01*
X56355000Y-124830000D02*
X56995000Y-124830000D01*
X56355000Y-122090000D02*
X57005000Y-122090000D01*
X41890000Y-99250000D02*
X41890000Y-98610000D01*
X39150000Y-99250000D02*
X39150000Y-98600000D01*
D14*
X53938095Y-105552380D02*
X53938095Y-106361904D01*
X53985714Y-106457142D01*
X54033333Y-106504761D01*
X54128571Y-106552380D01*
X54319047Y-106552380D01*
X54414285Y-106504761D01*
X54461904Y-106457142D01*
X54509523Y-106361904D01*
X54509523Y-105552380D01*
X55509523Y-106552380D02*
X54938095Y-106552380D01*
X55223809Y-106552380D02*
X55223809Y-105552380D01*
X55128571Y-105695238D01*
X55033333Y-105790476D01*
X54938095Y-105838095D01*
D15*
X61067714Y-109244714D02*
X60632285Y-109244714D01*
X60850000Y-109244714D02*
X60850000Y-108482714D01*
X60777428Y-108591571D01*
X60704857Y-108664142D01*
X60632285Y-108700428D01*
X60432285Y-109936714D02*
X60432285Y-110444714D01*
X60250857Y-109646428D02*
X60069428Y-110190714D01*
X60541142Y-110190714D01*
X60940285Y-110009285D02*
X60867714Y-109973000D01*
X60831428Y-109936714D01*
X60795142Y-109864142D01*
X60795142Y-109827857D01*
X60831428Y-109755285D01*
X60867714Y-109719000D01*
X60940285Y-109682714D01*
X61085428Y-109682714D01*
X61158000Y-109719000D01*
X61194285Y-109755285D01*
X61230571Y-109827857D01*
X61230571Y-109864142D01*
X61194285Y-109936714D01*
X61158000Y-109973000D01*
X61085428Y-110009285D01*
X60940285Y-110009285D01*
X60867714Y-110045571D01*
X60831428Y-110081857D01*
X60795142Y-110154428D01*
X60795142Y-110299571D01*
X60831428Y-110372142D01*
X60867714Y-110408428D01*
X60940285Y-110444714D01*
X61085428Y-110444714D01*
X61158000Y-110408428D01*
X61194285Y-110372142D01*
X61230571Y-110299571D01*
X61230571Y-110154428D01*
X61194285Y-110081857D01*
X61158000Y-110045571D01*
X61085428Y-110009285D01*
D14*
X36207142Y-107142857D02*
X36254761Y-107190476D01*
X36302380Y-107333333D01*
X36302380Y-107428571D01*
X36254761Y-107571428D01*
X36159523Y-107666666D01*
X36064285Y-107714285D01*
X35873809Y-107761904D01*
X35730952Y-107761904D01*
X35540476Y-107714285D01*
X35445238Y-107666666D01*
X35350000Y-107571428D01*
X35302380Y-107428571D01*
X35302380Y-107333333D01*
X35350000Y-107190476D01*
X35397619Y-107142857D01*
X35397619Y-106761904D02*
X35350000Y-106714285D01*
X35302380Y-106619047D01*
X35302380Y-106380952D01*
X35350000Y-106285714D01*
X35397619Y-106238095D01*
X35492857Y-106190476D01*
X35588095Y-106190476D01*
X35730952Y-106238095D01*
X36302380Y-106809523D01*
X36302380Y-106190476D01*
X35730952Y-105619047D02*
X35683333Y-105714285D01*
X35635714Y-105761904D01*
X35540476Y-105809523D01*
X35492857Y-105809523D01*
X35397619Y-105761904D01*
X35350000Y-105714285D01*
X35302380Y-105619047D01*
X35302380Y-105428571D01*
X35350000Y-105333333D01*
X35397619Y-105285714D01*
X35492857Y-105238095D01*
X35540476Y-105238095D01*
X35635714Y-105285714D01*
X35683333Y-105333333D01*
X35730952Y-105428571D01*
X35730952Y-105619047D01*
X35778571Y-105714285D01*
X35826190Y-105761904D01*
X35921428Y-105809523D01*
X36111904Y-105809523D01*
X36207142Y-105761904D01*
X36254761Y-105714285D01*
X36302380Y-105619047D01*
X36302380Y-105428571D01*
X36254761Y-105333333D01*
X36207142Y-105285714D01*
X36111904Y-105238095D01*
X35921428Y-105238095D01*
X35826190Y-105285714D01*
X35778571Y-105333333D01*
X35730952Y-105428571D01*
X67687142Y-105216666D02*
X67734761Y-105264285D01*
X67782380Y-105407142D01*
X67782380Y-105502380D01*
X67734761Y-105645238D01*
X67639523Y-105740476D01*
X67544285Y-105788095D01*
X67353809Y-105835714D01*
X67210952Y-105835714D01*
X67020476Y-105788095D01*
X66925238Y-105740476D01*
X66830000Y-105645238D01*
X66782380Y-105502380D01*
X66782380Y-105407142D01*
X66830000Y-105264285D01*
X66877619Y-105216666D01*
X67782380Y-104264285D02*
X67782380Y-104835714D01*
X67782380Y-104550000D02*
X66782380Y-104550000D01*
X66925238Y-104645238D01*
X67020476Y-104740476D01*
X67068095Y-104835714D01*
X48207142Y-121466666D02*
X48254761Y-121514285D01*
X48302380Y-121657142D01*
X48302380Y-121752380D01*
X48254761Y-121895238D01*
X48159523Y-121990476D01*
X48064285Y-122038095D01*
X47873809Y-122085714D01*
X47730952Y-122085714D01*
X47540476Y-122038095D01*
X47445238Y-121990476D01*
X47350000Y-121895238D01*
X47302380Y-121752380D01*
X47302380Y-121657142D01*
X47350000Y-121514285D01*
X47397619Y-121466666D01*
X47397619Y-121085714D02*
X47350000Y-121038095D01*
X47302380Y-120942857D01*
X47302380Y-120704761D01*
X47350000Y-120609523D01*
X47397619Y-120561904D01*
X47492857Y-120514285D01*
X47588095Y-120514285D01*
X47730952Y-120561904D01*
X48302380Y-121133333D01*
X48302380Y-120514285D01*
X65783333Y-107807142D02*
X65735714Y-107854761D01*
X65592857Y-107902380D01*
X65497619Y-107902380D01*
X65354761Y-107854761D01*
X65259523Y-107759523D01*
X65211904Y-107664285D01*
X65164285Y-107473809D01*
X65164285Y-107330952D01*
X65211904Y-107140476D01*
X65259523Y-107045238D01*
X65354761Y-106950000D01*
X65497619Y-106902380D01*
X65592857Y-106902380D01*
X65735714Y-106950000D01*
X65783333Y-106997619D01*
X66116666Y-106902380D02*
X66735714Y-106902380D01*
X66402380Y-107283333D01*
X66545238Y-107283333D01*
X66640476Y-107330952D01*
X66688095Y-107378571D01*
X66735714Y-107473809D01*
X66735714Y-107711904D01*
X66688095Y-107807142D01*
X66640476Y-107854761D01*
X66545238Y-107902380D01*
X66259523Y-107902380D01*
X66164285Y-107854761D01*
X66116666Y-107807142D01*
X40883333Y-119847142D02*
X40835714Y-119894761D01*
X40692857Y-119942380D01*
X40597619Y-119942380D01*
X40454761Y-119894761D01*
X40359523Y-119799523D01*
X40311904Y-119704285D01*
X40264285Y-119513809D01*
X40264285Y-119370952D01*
X40311904Y-119180476D01*
X40359523Y-119085238D01*
X40454761Y-118990000D01*
X40597619Y-118942380D01*
X40692857Y-118942380D01*
X40835714Y-118990000D01*
X40883333Y-119037619D01*
X41740476Y-119275714D02*
X41740476Y-119942380D01*
X41502380Y-118894761D02*
X41264285Y-119609047D01*
X41883333Y-119609047D01*
X70043333Y-102537142D02*
X69995714Y-102584761D01*
X69852857Y-102632380D01*
X69757619Y-102632380D01*
X69614761Y-102584761D01*
X69519523Y-102489523D01*
X69471904Y-102394285D01*
X69424285Y-102203809D01*
X69424285Y-102060952D01*
X69471904Y-101870476D01*
X69519523Y-101775238D01*
X69614761Y-101680000D01*
X69757619Y-101632380D01*
X69852857Y-101632380D01*
X69995714Y-101680000D01*
X70043333Y-101727619D01*
X70948095Y-101632380D02*
X70471904Y-101632380D01*
X70424285Y-102108571D01*
X70471904Y-102060952D01*
X70567142Y-102013333D01*
X70805238Y-102013333D01*
X70900476Y-102060952D01*
X70948095Y-102108571D01*
X70995714Y-102203809D01*
X70995714Y-102441904D01*
X70948095Y-102537142D01*
X70900476Y-102584761D01*
X70805238Y-102632380D01*
X70567142Y-102632380D01*
X70471904Y-102584761D01*
X70424285Y-102537142D01*
X52843333Y-126887142D02*
X52795714Y-126934761D01*
X52652857Y-126982380D01*
X52557619Y-126982380D01*
X52414761Y-126934761D01*
X52319523Y-126839523D01*
X52271904Y-126744285D01*
X52224285Y-126553809D01*
X52224285Y-126410952D01*
X52271904Y-126220476D01*
X52319523Y-126125238D01*
X52414761Y-126030000D01*
X52557619Y-125982380D01*
X52652857Y-125982380D01*
X52795714Y-126030000D01*
X52843333Y-126077619D01*
X53700476Y-125982380D02*
X53510000Y-125982380D01*
X53414761Y-126030000D01*
X53367142Y-126077619D01*
X53271904Y-126220476D01*
X53224285Y-126410952D01*
X53224285Y-126791904D01*
X53271904Y-126887142D01*
X53319523Y-126934761D01*
X53414761Y-126982380D01*
X53605238Y-126982380D01*
X53700476Y-126934761D01*
X53748095Y-126887142D01*
X53795714Y-126791904D01*
X53795714Y-126553809D01*
X53748095Y-126458571D01*
X53700476Y-126410952D01*
X53605238Y-126363333D01*
X53414761Y-126363333D01*
X53319523Y-126410952D01*
X53271904Y-126458571D01*
X53224285Y-126553809D01*
X45483333Y-122917142D02*
X45435714Y-122964761D01*
X45292857Y-123012380D01*
X45197619Y-123012380D01*
X45054761Y-122964761D01*
X44959523Y-122869523D01*
X44911904Y-122774285D01*
X44864285Y-122583809D01*
X44864285Y-122440952D01*
X44911904Y-122250476D01*
X44959523Y-122155238D01*
X45054761Y-122060000D01*
X45197619Y-122012380D01*
X45292857Y-122012380D01*
X45435714Y-122060000D01*
X45483333Y-122107619D01*
X45816666Y-122012380D02*
X46483333Y-122012380D01*
X46054761Y-123012380D01*
X67657142Y-100716666D02*
X67704761Y-100764285D01*
X67752380Y-100907142D01*
X67752380Y-101002380D01*
X67704761Y-101145238D01*
X67609523Y-101240476D01*
X67514285Y-101288095D01*
X67323809Y-101335714D01*
X67180952Y-101335714D01*
X66990476Y-101288095D01*
X66895238Y-101240476D01*
X66800000Y-101145238D01*
X66752380Y-101002380D01*
X66752380Y-100907142D01*
X66800000Y-100764285D01*
X66847619Y-100716666D01*
X67180952Y-100145238D02*
X67133333Y-100240476D01*
X67085714Y-100288095D01*
X66990476Y-100335714D01*
X66942857Y-100335714D01*
X66847619Y-100288095D01*
X66800000Y-100240476D01*
X66752380Y-100145238D01*
X66752380Y-99954761D01*
X66800000Y-99859523D01*
X66847619Y-99811904D01*
X66942857Y-99764285D01*
X66990476Y-99764285D01*
X67085714Y-99811904D01*
X67133333Y-99859523D01*
X67180952Y-99954761D01*
X67180952Y-100145238D01*
X67228571Y-100240476D01*
X67276190Y-100288095D01*
X67371428Y-100335714D01*
X67561904Y-100335714D01*
X67657142Y-100288095D01*
X67704761Y-100240476D01*
X67752380Y-100145238D01*
X67752380Y-99954761D01*
X67704761Y-99859523D01*
X67657142Y-99811904D01*
X67561904Y-99764285D01*
X67371428Y-99764285D01*
X67276190Y-99811904D01*
X67228571Y-99859523D01*
X67180952Y-99954761D01*
X70133333Y-106977142D02*
X70085714Y-107024761D01*
X69942857Y-107072380D01*
X69847619Y-107072380D01*
X69704761Y-107024761D01*
X69609523Y-106929523D01*
X69561904Y-106834285D01*
X69514285Y-106643809D01*
X69514285Y-106500952D01*
X69561904Y-106310476D01*
X69609523Y-106215238D01*
X69704761Y-106120000D01*
X69847619Y-106072380D01*
X69942857Y-106072380D01*
X70085714Y-106120000D01*
X70133333Y-106167619D01*
X70609523Y-107072380D02*
X70800000Y-107072380D01*
X70895238Y-107024761D01*
X70942857Y-106977142D01*
X71038095Y-106834285D01*
X71085714Y-106643809D01*
X71085714Y-106262857D01*
X71038095Y-106167619D01*
X70990476Y-106120000D01*
X70895238Y-106072380D01*
X70704761Y-106072380D01*
X70609523Y-106120000D01*
X70561904Y-106167619D01*
X70514285Y-106262857D01*
X70514285Y-106500952D01*
X70561904Y-106596190D01*
X70609523Y-106643809D01*
X70704761Y-106691428D01*
X70895238Y-106691428D01*
X70990476Y-106643809D01*
X71038095Y-106596190D01*
X71085714Y-106500952D01*
X42157142Y-122857142D02*
X42109523Y-122904761D01*
X41966666Y-122952380D01*
X41871428Y-122952380D01*
X41728571Y-122904761D01*
X41633333Y-122809523D01*
X41585714Y-122714285D01*
X41538095Y-122523809D01*
X41538095Y-122380952D01*
X41585714Y-122190476D01*
X41633333Y-122095238D01*
X41728571Y-122000000D01*
X41871428Y-121952380D01*
X41966666Y-121952380D01*
X42109523Y-122000000D01*
X42157142Y-122047619D01*
X43109523Y-122952380D02*
X42538095Y-122952380D01*
X42823809Y-122952380D02*
X42823809Y-121952380D01*
X42728571Y-122095238D01*
X42633333Y-122190476D01*
X42538095Y-122238095D01*
X43728571Y-121952380D02*
X43823809Y-121952380D01*
X43919047Y-122000000D01*
X43966666Y-122047619D01*
X44014285Y-122142857D01*
X44061904Y-122333333D01*
X44061904Y-122571428D01*
X44014285Y-122761904D01*
X43966666Y-122857142D01*
X43919047Y-122904761D01*
X43823809Y-122952380D01*
X43728571Y-122952380D01*
X43633333Y-122904761D01*
X43585714Y-122857142D01*
X43538095Y-122761904D01*
X43490476Y-122571428D01*
X43490476Y-122333333D01*
X43538095Y-122142857D01*
X43585714Y-122047619D01*
X43633333Y-122000000D01*
X43728571Y-121952380D01*
X69977142Y-104167142D02*
X69929523Y-104214761D01*
X69786666Y-104262380D01*
X69691428Y-104262380D01*
X69548571Y-104214761D01*
X69453333Y-104119523D01*
X69405714Y-104024285D01*
X69358095Y-103833809D01*
X69358095Y-103690952D01*
X69405714Y-103500476D01*
X69453333Y-103405238D01*
X69548571Y-103310000D01*
X69691428Y-103262380D01*
X69786666Y-103262380D01*
X69929523Y-103310000D01*
X69977142Y-103357619D01*
X70929523Y-104262380D02*
X70358095Y-104262380D01*
X70643809Y-104262380D02*
X70643809Y-103262380D01*
X70548571Y-103405238D01*
X70453333Y-103500476D01*
X70358095Y-103548095D01*
X71881904Y-104262380D02*
X71310476Y-104262380D01*
X71596190Y-104262380D02*
X71596190Y-103262380D01*
X71500952Y-103405238D01*
X71405714Y-103500476D01*
X71310476Y-103548095D01*
X42497142Y-118317142D02*
X42449523Y-118364761D01*
X42306666Y-118412380D01*
X42211428Y-118412380D01*
X42068571Y-118364761D01*
X41973333Y-118269523D01*
X41925714Y-118174285D01*
X41878095Y-117983809D01*
X41878095Y-117840952D01*
X41925714Y-117650476D01*
X41973333Y-117555238D01*
X42068571Y-117460000D01*
X42211428Y-117412380D01*
X42306666Y-117412380D01*
X42449523Y-117460000D01*
X42497142Y-117507619D01*
X43449523Y-118412380D02*
X42878095Y-118412380D01*
X43163809Y-118412380D02*
X43163809Y-117412380D01*
X43068571Y-117555238D01*
X42973333Y-117650476D01*
X42878095Y-117698095D01*
X43830476Y-117507619D02*
X43878095Y-117460000D01*
X43973333Y-117412380D01*
X44211428Y-117412380D01*
X44306666Y-117460000D01*
X44354285Y-117507619D01*
X44401904Y-117602857D01*
X44401904Y-117698095D01*
X44354285Y-117840952D01*
X43782857Y-118412380D01*
X44401904Y-118412380D01*
X40607142Y-108507142D02*
X40559523Y-108554761D01*
X40416666Y-108602380D01*
X40321428Y-108602380D01*
X40178571Y-108554761D01*
X40083333Y-108459523D01*
X40035714Y-108364285D01*
X39988095Y-108173809D01*
X39988095Y-108030952D01*
X40035714Y-107840476D01*
X40083333Y-107745238D01*
X40178571Y-107650000D01*
X40321428Y-107602380D01*
X40416666Y-107602380D01*
X40559523Y-107650000D01*
X40607142Y-107697619D01*
X41559523Y-108602380D02*
X40988095Y-108602380D01*
X41273809Y-108602380D02*
X41273809Y-107602380D01*
X41178571Y-107745238D01*
X41083333Y-107840476D01*
X40988095Y-107888095D01*
X42416666Y-107935714D02*
X42416666Y-108602380D01*
X42178571Y-107554761D02*
X41940476Y-108269047D01*
X42559523Y-108269047D01*
X42307142Y-110337142D02*
X42259523Y-110384761D01*
X42116666Y-110432380D01*
X42021428Y-110432380D01*
X41878571Y-110384761D01*
X41783333Y-110289523D01*
X41735714Y-110194285D01*
X41688095Y-110003809D01*
X41688095Y-109860952D01*
X41735714Y-109670476D01*
X41783333Y-109575238D01*
X41878571Y-109480000D01*
X42021428Y-109432380D01*
X42116666Y-109432380D01*
X42259523Y-109480000D01*
X42307142Y-109527619D01*
X43259523Y-110432380D02*
X42688095Y-110432380D01*
X42973809Y-110432380D02*
X42973809Y-109432380D01*
X42878571Y-109575238D01*
X42783333Y-109670476D01*
X42688095Y-109718095D01*
X43830952Y-109860952D02*
X43735714Y-109813333D01*
X43688095Y-109765714D01*
X43640476Y-109670476D01*
X43640476Y-109622857D01*
X43688095Y-109527619D01*
X43735714Y-109480000D01*
X43830952Y-109432380D01*
X44021428Y-109432380D01*
X44116666Y-109480000D01*
X44164285Y-109527619D01*
X44211904Y-109622857D01*
X44211904Y-109670476D01*
X44164285Y-109765714D01*
X44116666Y-109813333D01*
X44021428Y-109860952D01*
X43830952Y-109860952D01*
X43735714Y-109908571D01*
X43688095Y-109956190D01*
X43640476Y-110051428D01*
X43640476Y-110241904D01*
X43688095Y-110337142D01*
X43735714Y-110384761D01*
X43830952Y-110432380D01*
X44021428Y-110432380D01*
X44116666Y-110384761D01*
X44164285Y-110337142D01*
X44211904Y-110241904D01*
X44211904Y-110051428D01*
X44164285Y-109956190D01*
X44116666Y-109908571D01*
X44021428Y-109860952D01*
X62987142Y-123457142D02*
X62939523Y-123504761D01*
X62796666Y-123552380D01*
X62701428Y-123552380D01*
X62558571Y-123504761D01*
X62463333Y-123409523D01*
X62415714Y-123314285D01*
X62368095Y-123123809D01*
X62368095Y-122980952D01*
X62415714Y-122790476D01*
X62463333Y-122695238D01*
X62558571Y-122600000D01*
X62701428Y-122552380D01*
X62796666Y-122552380D01*
X62939523Y-122600000D01*
X62987142Y-122647619D01*
X63939523Y-123552380D02*
X63368095Y-123552380D01*
X63653809Y-123552380D02*
X63653809Y-122552380D01*
X63558571Y-122695238D01*
X63463333Y-122790476D01*
X63368095Y-122838095D01*
X64415714Y-123552380D02*
X64606190Y-123552380D01*
X64701428Y-123504761D01*
X64749047Y-123457142D01*
X64844285Y-123314285D01*
X64891904Y-123123809D01*
X64891904Y-122742857D01*
X64844285Y-122647619D01*
X64796666Y-122600000D01*
X64701428Y-122552380D01*
X64510952Y-122552380D01*
X64415714Y-122600000D01*
X64368095Y-122647619D01*
X64320476Y-122742857D01*
X64320476Y-122980952D01*
X64368095Y-123076190D01*
X64415714Y-123123809D01*
X64510952Y-123171428D01*
X64701428Y-123171428D01*
X64796666Y-123123809D01*
X64844285Y-123076190D01*
X64891904Y-122980952D01*
X38987142Y-117067142D02*
X38939523Y-117114761D01*
X38796666Y-117162380D01*
X38701428Y-117162380D01*
X38558571Y-117114761D01*
X38463333Y-117019523D01*
X38415714Y-116924285D01*
X38368095Y-116733809D01*
X38368095Y-116590952D01*
X38415714Y-116400476D01*
X38463333Y-116305238D01*
X38558571Y-116210000D01*
X38701428Y-116162380D01*
X38796666Y-116162380D01*
X38939523Y-116210000D01*
X38987142Y-116257619D01*
X39368095Y-116257619D02*
X39415714Y-116210000D01*
X39510952Y-116162380D01*
X39749047Y-116162380D01*
X39844285Y-116210000D01*
X39891904Y-116257619D01*
X39939523Y-116352857D01*
X39939523Y-116448095D01*
X39891904Y-116590952D01*
X39320476Y-117162380D01*
X39939523Y-117162380D01*
X40558571Y-116162380D02*
X40653809Y-116162380D01*
X40749047Y-116210000D01*
X40796666Y-116257619D01*
X40844285Y-116352857D01*
X40891904Y-116543333D01*
X40891904Y-116781428D01*
X40844285Y-116971904D01*
X40796666Y-117067142D01*
X40749047Y-117114761D01*
X40653809Y-117162380D01*
X40558571Y-117162380D01*
X40463333Y-117114761D01*
X40415714Y-117067142D01*
X40368095Y-116971904D01*
X40320476Y-116781428D01*
X40320476Y-116543333D01*
X40368095Y-116352857D01*
X40415714Y-116257619D01*
X40463333Y-116210000D01*
X40558571Y-116162380D01*
X40807142Y-104807142D02*
X40759523Y-104854761D01*
X40616666Y-104902380D01*
X40521428Y-104902380D01*
X40378571Y-104854761D01*
X40283333Y-104759523D01*
X40235714Y-104664285D01*
X40188095Y-104473809D01*
X40188095Y-104330952D01*
X40235714Y-104140476D01*
X40283333Y-104045238D01*
X40378571Y-103950000D01*
X40521428Y-103902380D01*
X40616666Y-103902380D01*
X40759523Y-103950000D01*
X40807142Y-103997619D01*
X41188095Y-103997619D02*
X41235714Y-103950000D01*
X41330952Y-103902380D01*
X41569047Y-103902380D01*
X41664285Y-103950000D01*
X41711904Y-103997619D01*
X41759523Y-104092857D01*
X41759523Y-104188095D01*
X41711904Y-104330952D01*
X41140476Y-104902380D01*
X41759523Y-104902380D01*
X42711904Y-104902380D02*
X42140476Y-104902380D01*
X42426190Y-104902380D02*
X42426190Y-103902380D01*
X42330952Y-104045238D01*
X42235714Y-104140476D01*
X42140476Y-104188095D01*
X58047142Y-121147142D02*
X57999523Y-121194761D01*
X57856666Y-121242380D01*
X57761428Y-121242380D01*
X57618571Y-121194761D01*
X57523333Y-121099523D01*
X57475714Y-121004285D01*
X57428095Y-120813809D01*
X57428095Y-120670952D01*
X57475714Y-120480476D01*
X57523333Y-120385238D01*
X57618571Y-120290000D01*
X57761428Y-120242380D01*
X57856666Y-120242380D01*
X57999523Y-120290000D01*
X58047142Y-120337619D01*
X58428095Y-120337619D02*
X58475714Y-120290000D01*
X58570952Y-120242380D01*
X58809047Y-120242380D01*
X58904285Y-120290000D01*
X58951904Y-120337619D01*
X58999523Y-120432857D01*
X58999523Y-120528095D01*
X58951904Y-120670952D01*
X58380476Y-121242380D01*
X58999523Y-121242380D01*
X59380476Y-120337619D02*
X59428095Y-120290000D01*
X59523333Y-120242380D01*
X59761428Y-120242380D01*
X59856666Y-120290000D01*
X59904285Y-120337619D01*
X59951904Y-120432857D01*
X59951904Y-120528095D01*
X59904285Y-120670952D01*
X59332857Y-121242380D01*
X59951904Y-121242380D01*
X62997142Y-121407142D02*
X62949523Y-121454761D01*
X62806666Y-121502380D01*
X62711428Y-121502380D01*
X62568571Y-121454761D01*
X62473333Y-121359523D01*
X62425714Y-121264285D01*
X62378095Y-121073809D01*
X62378095Y-120930952D01*
X62425714Y-120740476D01*
X62473333Y-120645238D01*
X62568571Y-120550000D01*
X62711428Y-120502380D01*
X62806666Y-120502380D01*
X62949523Y-120550000D01*
X62997142Y-120597619D01*
X63378095Y-120597619D02*
X63425714Y-120550000D01*
X63520952Y-120502380D01*
X63759047Y-120502380D01*
X63854285Y-120550000D01*
X63901904Y-120597619D01*
X63949523Y-120692857D01*
X63949523Y-120788095D01*
X63901904Y-120930952D01*
X63330476Y-121502380D01*
X63949523Y-121502380D01*
X64282857Y-120502380D02*
X64901904Y-120502380D01*
X64568571Y-120883333D01*
X64711428Y-120883333D01*
X64806666Y-120930952D01*
X64854285Y-120978571D01*
X64901904Y-121073809D01*
X64901904Y-121311904D01*
X64854285Y-121407142D01*
X64806666Y-121454761D01*
X64711428Y-121502380D01*
X64425714Y-121502380D01*
X64330476Y-121454761D01*
X64282857Y-121407142D01*
X52287142Y-124657142D02*
X52239523Y-124704761D01*
X52096666Y-124752380D01*
X52001428Y-124752380D01*
X51858571Y-124704761D01*
X51763333Y-124609523D01*
X51715714Y-124514285D01*
X51668095Y-124323809D01*
X51668095Y-124180952D01*
X51715714Y-123990476D01*
X51763333Y-123895238D01*
X51858571Y-123800000D01*
X52001428Y-123752380D01*
X52096666Y-123752380D01*
X52239523Y-123800000D01*
X52287142Y-123847619D01*
X52668095Y-123847619D02*
X52715714Y-123800000D01*
X52810952Y-123752380D01*
X53049047Y-123752380D01*
X53144285Y-123800000D01*
X53191904Y-123847619D01*
X53239523Y-123942857D01*
X53239523Y-124038095D01*
X53191904Y-124180952D01*
X52620476Y-124752380D01*
X53239523Y-124752380D01*
X54096666Y-124085714D02*
X54096666Y-124752380D01*
X53858571Y-123704761D02*
X53620476Y-124419047D01*
X54239523Y-124419047D01*
X40997142Y-112262857D02*
X41044761Y-112310476D01*
X41092380Y-112453333D01*
X41092380Y-112548571D01*
X41044761Y-112691428D01*
X40949523Y-112786666D01*
X40854285Y-112834285D01*
X40663809Y-112881904D01*
X40520952Y-112881904D01*
X40330476Y-112834285D01*
X40235238Y-112786666D01*
X40140000Y-112691428D01*
X40092380Y-112548571D01*
X40092380Y-112453333D01*
X40140000Y-112310476D01*
X40187619Y-112262857D01*
X40187619Y-111881904D02*
X40140000Y-111834285D01*
X40092380Y-111739047D01*
X40092380Y-111500952D01*
X40140000Y-111405714D01*
X40187619Y-111358095D01*
X40282857Y-111310476D01*
X40378095Y-111310476D01*
X40520952Y-111358095D01*
X41092380Y-111929523D01*
X41092380Y-111310476D01*
X40092380Y-110405714D02*
X40092380Y-110881904D01*
X40568571Y-110929523D01*
X40520952Y-110881904D01*
X40473333Y-110786666D01*
X40473333Y-110548571D01*
X40520952Y-110453333D01*
X40568571Y-110405714D01*
X40663809Y-110358095D01*
X40901904Y-110358095D01*
X40997142Y-110405714D01*
X41044761Y-110453333D01*
X41092380Y-110548571D01*
X41092380Y-110786666D01*
X41044761Y-110881904D01*
X40997142Y-110929523D01*
X62997142Y-125387142D02*
X62949523Y-125434761D01*
X62806666Y-125482380D01*
X62711428Y-125482380D01*
X62568571Y-125434761D01*
X62473333Y-125339523D01*
X62425714Y-125244285D01*
X62378095Y-125053809D01*
X62378095Y-124910952D01*
X62425714Y-124720476D01*
X62473333Y-124625238D01*
X62568571Y-124530000D01*
X62711428Y-124482380D01*
X62806666Y-124482380D01*
X62949523Y-124530000D01*
X62997142Y-124577619D01*
X63378095Y-124577619D02*
X63425714Y-124530000D01*
X63520952Y-124482380D01*
X63759047Y-124482380D01*
X63854285Y-124530000D01*
X63901904Y-124577619D01*
X63949523Y-124672857D01*
X63949523Y-124768095D01*
X63901904Y-124910952D01*
X63330476Y-125482380D01*
X63949523Y-125482380D01*
X64806666Y-124482380D02*
X64616190Y-124482380D01*
X64520952Y-124530000D01*
X64473333Y-124577619D01*
X64378095Y-124720476D01*
X64330476Y-124910952D01*
X64330476Y-125291904D01*
X64378095Y-125387142D01*
X64425714Y-125434761D01*
X64520952Y-125482380D01*
X64711428Y-125482380D01*
X64806666Y-125434761D01*
X64854285Y-125387142D01*
X64901904Y-125291904D01*
X64901904Y-125053809D01*
X64854285Y-124958571D01*
X64806666Y-124910952D01*
X64711428Y-124863333D01*
X64520952Y-124863333D01*
X64425714Y-124910952D01*
X64378095Y-124958571D01*
X64330476Y-125053809D01*
X52287142Y-122587142D02*
X52239523Y-122634761D01*
X52096666Y-122682380D01*
X52001428Y-122682380D01*
X51858571Y-122634761D01*
X51763333Y-122539523D01*
X51715714Y-122444285D01*
X51668095Y-122253809D01*
X51668095Y-122110952D01*
X51715714Y-121920476D01*
X51763333Y-121825238D01*
X51858571Y-121730000D01*
X52001428Y-121682380D01*
X52096666Y-121682380D01*
X52239523Y-121730000D01*
X52287142Y-121777619D01*
X52668095Y-121777619D02*
X52715714Y-121730000D01*
X52810952Y-121682380D01*
X53049047Y-121682380D01*
X53144285Y-121730000D01*
X53191904Y-121777619D01*
X53239523Y-121872857D01*
X53239523Y-121968095D01*
X53191904Y-122110952D01*
X52620476Y-122682380D01*
X53239523Y-122682380D01*
X53572857Y-121682380D02*
X54239523Y-121682380D01*
X53810952Y-122682380D01*
X40407142Y-102517142D02*
X40359523Y-102564761D01*
X40216666Y-102612380D01*
X40121428Y-102612380D01*
X39978571Y-102564761D01*
X39883333Y-102469523D01*
X39835714Y-102374285D01*
X39788095Y-102183809D01*
X39788095Y-102040952D01*
X39835714Y-101850476D01*
X39883333Y-101755238D01*
X39978571Y-101660000D01*
X40121428Y-101612380D01*
X40216666Y-101612380D01*
X40359523Y-101660000D01*
X40407142Y-101707619D01*
X40788095Y-101707619D02*
X40835714Y-101660000D01*
X40930952Y-101612380D01*
X41169047Y-101612380D01*
X41264285Y-101660000D01*
X41311904Y-101707619D01*
X41359523Y-101802857D01*
X41359523Y-101898095D01*
X41311904Y-102040952D01*
X40740476Y-102612380D01*
X41359523Y-102612380D01*
X41835714Y-102612380D02*
X42026190Y-102612380D01*
X42121428Y-102564761D01*
X42169047Y-102517142D01*
X42264285Y-102374285D01*
X42311904Y-102183809D01*
X42311904Y-101802857D01*
X42264285Y-101707619D01*
X42216666Y-101660000D01*
X42121428Y-101612380D01*
X41930952Y-101612380D01*
X41835714Y-101660000D01*
X41788095Y-101707619D01*
X41740476Y-101802857D01*
X41740476Y-102040952D01*
X41788095Y-102136190D01*
X41835714Y-102183809D01*
X41930952Y-102231428D01*
X42121428Y-102231428D01*
X42216666Y-102183809D01*
X42264285Y-102136190D01*
X42311904Y-102040952D01*
X41032380Y-113896666D02*
X40556190Y-114230000D01*
X41032380Y-114468095D02*
X40032380Y-114468095D01*
X40032380Y-114087142D01*
X40080000Y-113991904D01*
X40127619Y-113944285D01*
X40222857Y-113896666D01*
X40365714Y-113896666D01*
X40460952Y-113944285D01*
X40508571Y-113991904D01*
X40556190Y-114087142D01*
X40556190Y-114468095D01*
X41032380Y-112944285D02*
X41032380Y-113515714D01*
X41032380Y-113230000D02*
X40032380Y-113230000D01*
X40175238Y-113325238D01*
X40270476Y-113420476D01*
X40318095Y-113515714D01*
X50957142Y-108402380D02*
X50623809Y-107926190D01*
X50385714Y-108402380D02*
X50385714Y-107402380D01*
X50766666Y-107402380D01*
X50861904Y-107450000D01*
X50909523Y-107497619D01*
X50957142Y-107592857D01*
X50957142Y-107735714D01*
X50909523Y-107830952D01*
X50861904Y-107878571D01*
X50766666Y-107926190D01*
X50385714Y-107926190D01*
X51909523Y-108402380D02*
X51338095Y-108402380D01*
X51623809Y-108402380D02*
X51623809Y-107402380D01*
X51528571Y-107545238D01*
X51433333Y-107640476D01*
X51338095Y-107688095D01*
X52385714Y-108402380D02*
X52576190Y-108402380D01*
X52671428Y-108354761D01*
X52719047Y-108307142D01*
X52814285Y-108164285D01*
X52861904Y-107973809D01*
X52861904Y-107592857D01*
X52814285Y-107497619D01*
X52766666Y-107450000D01*
X52671428Y-107402380D01*
X52480952Y-107402380D01*
X52385714Y-107450000D01*
X52338095Y-107497619D01*
X52290476Y-107592857D01*
X52290476Y-107830952D01*
X52338095Y-107926190D01*
X52385714Y-107973809D01*
X52480952Y-108021428D01*
X52671428Y-108021428D01*
X52766666Y-107973809D01*
X52814285Y-107926190D01*
X52861904Y-107830952D01*
X33896666Y-122342380D02*
X33896666Y-121342380D01*
X34230000Y-122056666D01*
X34563333Y-121342380D01*
X34563333Y-122342380D01*
X35039523Y-122342380D02*
X35039523Y-121342380D01*
X35039523Y-121818571D02*
X35610952Y-121818571D01*
X35610952Y-122342380D02*
X35610952Y-121342380D01*
X36610952Y-122342380D02*
X36039523Y-122342380D01*
X36325238Y-122342380D02*
X36325238Y-121342380D01*
X36230000Y-121485238D01*
X36134761Y-121580476D01*
X36039523Y-121628095D01*
X46907142Y-125492857D02*
X46954761Y-125540476D01*
X47002380Y-125683333D01*
X47002380Y-125778571D01*
X46954761Y-125921428D01*
X46859523Y-126016666D01*
X46764285Y-126064285D01*
X46573809Y-126111904D01*
X46430952Y-126111904D01*
X46240476Y-126064285D01*
X46145238Y-126016666D01*
X46050000Y-125921428D01*
X46002380Y-125778571D01*
X46002380Y-125683333D01*
X46050000Y-125540476D01*
X46097619Y-125492857D01*
X47002380Y-124540476D02*
X47002380Y-125111904D01*
X47002380Y-124826190D02*
X46002380Y-124826190D01*
X46145238Y-124921428D01*
X46240476Y-125016666D01*
X46288095Y-125111904D01*
X46002380Y-124207142D02*
X46002380Y-123588095D01*
X46383333Y-123921428D01*
X46383333Y-123778571D01*
X46430952Y-123683333D01*
X46478571Y-123635714D01*
X46573809Y-123588095D01*
X46811904Y-123588095D01*
X46907142Y-123635714D01*
X46954761Y-123683333D01*
X47002380Y-123778571D01*
X47002380Y-124064285D01*
X46954761Y-124159523D01*
X46907142Y-124207142D01*
X71557142Y-111542857D02*
X71604761Y-111590476D01*
X71652380Y-111733333D01*
X71652380Y-111828571D01*
X71604761Y-111971428D01*
X71509523Y-112066666D01*
X71414285Y-112114285D01*
X71223809Y-112161904D01*
X71080952Y-112161904D01*
X70890476Y-112114285D01*
X70795238Y-112066666D01*
X70700000Y-111971428D01*
X70652380Y-111828571D01*
X70652380Y-111733333D01*
X70700000Y-111590476D01*
X70747619Y-111542857D01*
X71652380Y-110590476D02*
X71652380Y-111161904D01*
X71652380Y-110876190D02*
X70652380Y-110876190D01*
X70795238Y-110971428D01*
X70890476Y-111066666D01*
X70938095Y-111161904D01*
X70652380Y-109685714D02*
X70652380Y-110161904D01*
X71128571Y-110209523D01*
X71080952Y-110161904D01*
X71033333Y-110066666D01*
X71033333Y-109828571D01*
X71080952Y-109733333D01*
X71128571Y-109685714D01*
X71223809Y-109638095D01*
X71461904Y-109638095D01*
X71557142Y-109685714D01*
X71604761Y-109733333D01*
X71652380Y-109828571D01*
X71652380Y-110066666D01*
X71604761Y-110161904D01*
X71557142Y-110209523D01*
X56107142Y-126157142D02*
X56059523Y-126204761D01*
X55916666Y-126252380D01*
X55821428Y-126252380D01*
X55678571Y-126204761D01*
X55583333Y-126109523D01*
X55535714Y-126014285D01*
X55488095Y-125823809D01*
X55488095Y-125680952D01*
X55535714Y-125490476D01*
X55583333Y-125395238D01*
X55678571Y-125300000D01*
X55821428Y-125252380D01*
X55916666Y-125252380D01*
X56059523Y-125300000D01*
X56107142Y-125347619D01*
X57059523Y-126252380D02*
X56488095Y-126252380D01*
X56773809Y-126252380D02*
X56773809Y-125252380D01*
X56678571Y-125395238D01*
X56583333Y-125490476D01*
X56488095Y-125538095D01*
X57916666Y-125252380D02*
X57726190Y-125252380D01*
X57630952Y-125300000D01*
X57583333Y-125347619D01*
X57488095Y-125490476D01*
X57440476Y-125680952D01*
X57440476Y-126061904D01*
X57488095Y-126157142D01*
X57535714Y-126204761D01*
X57630952Y-126252380D01*
X57821428Y-126252380D01*
X57916666Y-126204761D01*
X57964285Y-126157142D01*
X58011904Y-126061904D01*
X58011904Y-125823809D01*
X57964285Y-125728571D01*
X57916666Y-125680952D01*
X57821428Y-125633333D01*
X57630952Y-125633333D01*
X57535714Y-125680952D01*
X57488095Y-125728571D01*
X57440476Y-125823809D01*
X38357142Y-99692857D02*
X38404761Y-99740476D01*
X38452380Y-99883333D01*
X38452380Y-99978571D01*
X38404761Y-100121428D01*
X38309523Y-100216666D01*
X38214285Y-100264285D01*
X38023809Y-100311904D01*
X37880952Y-100311904D01*
X37690476Y-100264285D01*
X37595238Y-100216666D01*
X37500000Y-100121428D01*
X37452380Y-99978571D01*
X37452380Y-99883333D01*
X37500000Y-99740476D01*
X37547619Y-99692857D01*
X38452380Y-98740476D02*
X38452380Y-99311904D01*
X38452380Y-99026190D02*
X37452380Y-99026190D01*
X37595238Y-99121428D01*
X37690476Y-99216666D01*
X37738095Y-99311904D01*
X37452380Y-98407142D02*
X37452380Y-97740476D01*
X38452380Y-98169047D01*
M02*
