%TF.GenerationSoftware,KiCad,Pcbnew,(5.0.0-rc2-dev-581-g09a6bada0)*%
%TF.CreationDate,2018-07-03T10:36:25-06:00*%
%TF.ProjectId,Sensor_FMC_LPC_Breakout_V02,53656E736F725F464D435F4C50435F42,01*%
%TF.SameCoordinates,Original*%
%TF.FileFunction,Soldermask,Top*%
%TF.FilePolarity,Negative*%
%FSLAX46Y46*%
G04 Gerber Fmt 4.6, Leading zero omitted, Abs format (unit mm)*
G04 Created by KiCad (PCBNEW (5.0.0-rc2-dev-581-g09a6bada0)) date 07/03/18 10:36:25*
%MOMM*%
%LPD*%
G01*
G04 APERTURE LIST*
%ADD10C,2.701600*%
%ADD11C,6.197600*%
%ADD12C,1.601600*%
%ADD13R,0.611600X1.951600*%
%ADD14R,1.951600X0.611600*%
%ADD15C,4.101600*%
%ADD16C,1.371600*%
%ADD17R,1.601600X1.901600*%
%ADD18R,0.901600X0.701600*%
%ADD19R,0.701600X0.901600*%
%ADD20C,0.801600*%
%ADD21C,4.501600*%
%ADD22R,3.151600X1.621600*%
%ADD23R,1.621600X3.151600*%
%ADD24C,1.498600*%
%ADD25C,1.625600*%
%ADD26C,0.787400*%
%ADD27C,1.117600*%
%ADD28C,1.879600*%
G04 APERTURE END LIST*
D10*
X91850000Y-117450000D03*
X91850000Y-101450000D03*
D11*
X97600000Y-95500000D03*
D12*
X85000000Y-88450000D03*
X64500000Y-128450000D03*
X65000000Y-88450000D03*
D11*
X97650000Y-123400000D03*
D13*
X49016000Y-118319000D03*
X57176000Y-100589000D03*
X56156000Y-100589000D03*
X55136000Y-100589000D03*
D14*
X63491000Y-115064000D03*
X63491000Y-114044000D03*
X63491000Y-113024000D03*
X63491000Y-112004000D03*
X63491000Y-110984000D03*
X63491000Y-109964000D03*
D12*
X46446000Y-101274000D03*
D14*
X63491000Y-103844000D03*
X63491000Y-104864000D03*
X63491000Y-105884000D03*
X63491000Y-106904000D03*
X63491000Y-107924000D03*
X63491000Y-108944000D03*
D12*
X62806000Y-117634000D03*
D13*
X58196000Y-100589000D03*
X59216000Y-100589000D03*
X60236000Y-100589000D03*
X54116000Y-100589000D03*
X53096000Y-100589000D03*
X52076000Y-100589000D03*
X51056000Y-100589000D03*
X50036000Y-100589000D03*
X49016000Y-100589000D03*
D14*
X45761000Y-103844000D03*
X45761000Y-104864000D03*
X45761000Y-105884000D03*
X45761000Y-106904000D03*
X45761000Y-107924000D03*
X45761000Y-108944000D03*
X45761000Y-109964000D03*
X45761000Y-110984000D03*
X45761000Y-112004000D03*
X45761000Y-113024000D03*
X45761000Y-114044000D03*
X45761000Y-115064000D03*
D13*
X50036000Y-118319000D03*
X51056000Y-118319000D03*
X52076000Y-118319000D03*
X53096000Y-118319000D03*
X54116000Y-118319000D03*
X55136000Y-118319000D03*
X56156000Y-118319000D03*
X57176000Y-118319000D03*
X58196000Y-118319000D03*
X59216000Y-118319000D03*
X60236000Y-118319000D03*
D15*
X96250000Y-61910000D03*
D16*
X37870000Y-59910000D03*
X92250000Y-62960000D03*
D15*
X33870000Y-61910000D03*
D17*
X41250000Y-106450000D03*
X37650000Y-106450000D03*
D18*
X65890000Y-103610000D03*
X65890000Y-105010000D03*
D19*
X50450000Y-121200000D03*
X49050000Y-121200000D03*
D18*
X65930000Y-108760000D03*
X65930000Y-110160000D03*
D19*
X43910000Y-119460000D03*
X42510000Y-119460000D03*
X67250000Y-102190000D03*
X68650000Y-102190000D03*
X53714000Y-125172000D03*
X52314000Y-125172000D03*
X45000000Y-121150000D03*
X46400000Y-121150000D03*
D18*
X65850000Y-102250000D03*
X65850000Y-100850000D03*
D19*
X69750000Y-107900000D03*
X71150000Y-107900000D03*
X43590000Y-121120000D03*
X42190000Y-121120000D03*
X67250000Y-103640000D03*
X68650000Y-103640000D03*
D18*
X43620000Y-116550000D03*
X43620000Y-115150000D03*
X43200000Y-108300000D03*
X43200000Y-106900000D03*
X43400000Y-111100000D03*
X43400000Y-112500000D03*
D19*
X60340000Y-123040000D03*
X61740000Y-123040000D03*
D18*
X41740000Y-115210000D03*
X41740000Y-116610000D03*
X43180000Y-105750000D03*
X43180000Y-104350000D03*
D19*
X56930000Y-120800000D03*
X55530000Y-120800000D03*
X60320000Y-121050000D03*
X61720000Y-121050000D03*
X53714000Y-123140000D03*
X52314000Y-123140000D03*
D18*
X41750000Y-111100000D03*
X41750000Y-112500000D03*
D19*
X60340000Y-124950000D03*
X61740000Y-124950000D03*
X53714000Y-121108000D03*
X52314000Y-121108000D03*
D18*
X43150000Y-101330000D03*
X43150000Y-102730000D03*
D19*
X42850000Y-113850000D03*
X41450000Y-113850000D03*
X50800000Y-106600000D03*
X52200000Y-106600000D03*
D20*
X36396726Y-123923274D03*
X35230000Y-123440000D03*
X34063274Y-123923274D03*
X33580000Y-125090000D03*
X34063274Y-126256726D03*
X35230000Y-126740000D03*
X36396726Y-126256726D03*
X36880000Y-125090000D03*
D21*
X35230000Y-125090000D03*
D22*
X49220000Y-125735000D03*
X49220000Y-123445000D03*
X68740000Y-112270000D03*
X68740000Y-109980000D03*
D23*
X55550000Y-123470000D03*
X57840000Y-123470000D03*
D22*
X40530000Y-100055000D03*
X40530000Y-97765000D03*
D24*
X59330000Y-111960000D03*
D25*
X51100000Y-112820000D03*
D24*
X38660000Y-64040000D03*
D25*
X39750000Y-90349998D03*
X37500000Y-109000000D03*
X71000000Y-68750000D03*
D24*
X66900000Y-121350000D03*
D25*
X41250000Y-103900000D03*
X60200000Y-105200000D03*
X50343241Y-115763212D03*
X56910000Y-115750000D03*
X35450000Y-102750000D03*
X55317037Y-111549990D03*
X94488000Y-81788000D03*
X94488000Y-85852000D03*
D26*
X43942000Y-82550000D03*
D27*
X42840000Y-76490000D03*
X41656000Y-82549998D03*
D26*
X42925988Y-83566000D03*
D27*
X42926000Y-78994000D03*
X87122000Y-72898000D03*
D26*
X64300000Y-59400000D03*
X56350000Y-67250000D03*
D27*
X42840000Y-73950000D03*
X87122000Y-75437986D03*
X87122000Y-77978000D03*
X87122000Y-70358000D03*
X87230000Y-80550000D03*
X89770000Y-75470000D03*
X89770000Y-72930000D03*
X89916000Y-80518000D03*
X89770000Y-70390000D03*
X89770000Y-78010000D03*
D26*
X49074112Y-60324112D03*
X48265888Y-59515888D03*
X71505888Y-59455888D03*
X67884112Y-60184112D03*
X67075888Y-59375888D03*
X72314112Y-60264112D03*
X71445888Y-55154112D03*
X72254112Y-54345888D03*
X60664112Y-60024112D03*
X59855888Y-59215888D03*
X56284112Y-60094112D03*
X55475888Y-59285888D03*
X52982112Y-60094112D03*
X52173888Y-59285888D03*
D28*
X97536000Y-83820000D03*
M02*
