M48
;DRILL file {KiCad (5.0.0-rc2-dev-581-g09a6bada0)} date 07/03/18 10:36:28
;FORMAT={-:-/ absolute / inch / decimal}
FMAT,2
INCH,TZ
T1C0.0130
T2C0.0157
T3C0.0200
T4C0.0320
T5C0.0350
T6C0.0512
T7C0.0551
T8C0.0866
T9C0.0906
T10C0.1063
T11C0.1400
%
G90
G05
M72
T1
X1.69Y-3.29
X1.73Y-3.25
X1.9002Y-2.3431
X1.9321Y-2.375
X2.0541Y-2.3341
X2.0859Y-2.3659
X2.1841Y-2.3341
X2.2159Y-2.3659
X2.2185Y-2.6476
X2.3565Y-2.3313
X2.3884Y-2.3632
X2.5315Y-2.3386
X2.6408Y-2.3376
X2.6726Y-2.3695
X2.8128Y-2.1714
X2.8152Y-2.3408
X2.8447Y-2.1396
X2.847Y-2.3726
T2
X1.322Y-4.9248
X1.3411Y-4.8789
X1.3411Y-4.9707
X1.387Y-4.8598
X1.387Y-4.9898
X1.4329Y-4.8789
X1.4329Y-4.9707
X1.452Y-4.9248
T3
X1.64Y-3.25
X1.6866Y-2.9114
X1.6866Y-3.0114
X1.69Y-3.11
X3.43Y-2.77
X3.43Y-2.87
X3.43Y-2.97
X3.43Y-3.07
X3.4343Y-3.1713
X3.5343Y-2.7713
X3.5343Y-2.8713
X3.5343Y-2.9713
X3.5343Y-3.0713
X3.54Y-3.17
T4
X1.3957Y-4.0453
X1.4764Y-4.2913
X1.565Y-3.5571
X1.624Y-4.0906
X1.982Y-4.5576
X2.0118Y-4.4417
X2.1778Y-4.3917
X2.2406Y-4.5571
X2.3701Y-4.1417
X2.7953Y-2.7067
X3.72Y-3.22
X3.72Y-3.38
T5
X1.522Y-2.5213
X2.3358Y-4.4079
X2.6339Y-4.7776
X3.84Y-3.3
T6
X2.5394Y-5.0571
X2.5591Y-3.4823
X3.3465Y-3.4823
T7
X1.8286Y-3.9872
X2.4727Y-4.6313
T8
X1.387Y-4.9248
T9
X3.6161Y-3.9941
X3.6161Y-4.624
T10
X1.3335Y-2.4374
X3.7894Y-2.4374
T11
X3.8425Y-3.7598
X3.8445Y-4.8583
T0
M30
